<?xml version="1.0" standalone="no"?>
<!DOCTYPE svg PUBLIC "-//W3C//DTD SVG 1.1//EN" "http://www.w3.org/Graphics/SVG/1.1/DTD/svg11.dtd" >
<svg xmlns="http://www.w3.org/2000/svg" xmlns:xlink="http://www.w3.org/1999/xlink" version="1.1">
<metadata>
Created by FontForge 20170731 at Thu Aug 11 22:02:23 2022
 By Aleksey,,,
Copyright (c) 2013 by Type Dynamic. All rights reserved.
</metadata>
<defs>
<font id="Larsseit-Light" horiz-adv-x="471" >
  <font-face 
    font-family="Larsseit Light"
    font-weight="300"
    font-stretch="normal"
    units-per-em="2048"
    panose-1="0 0 0 0 0 0 0 0 0 0"
    ascent="1638"
    descent="-410"
    x-height="1028"
    cap-height="1434"
    bbox="-410 -528 5976 1993"
    underline-thickness="102"
    underline-position="-307"
    unicode-range="U+0020-FB01"
  />
<missing-glyph horiz-adv-x="1228" 
d="M139 0v1434h953v-1434h-953zM612 797l340 542h-682zM997 182v1053l-331 -526zM944 94l-332 527l-333 -527h665zM557 709l-324 516v-1032z" />
    <glyph glyph-name="fi" unicode="fi" horiz-adv-x="1105" 
d="M481 1509q86 0 137 -26v-119q-58 27 -133 27q-131 0 -131 -181v-182h264v-119h-264v-909h-129v909h-209v119h209v184q0 140 67.5 218.5t188.5 78.5zM803 1028h129v-1028h-129v1028zM868 1454q41 0 71 -29.5t30 -70.5t-30 -70t-71 -29q-42 0 -71 28.5t-29 70.5t29 71
t71 29z" />
    <glyph glyph-name="f_j" unicode="fj" horiz-adv-x="1105" 
d="M481 1509q86 0 137 -26v-119q-58 27 -133 27q-131 0 -131 -181v-182h264v-119h-264v-909h-129v909h-209v119h209v184q0 140 67.5 218.5t188.5 78.5zM803 1028h129v-1175q0 -184 -82 -248q-80 -68 -205 -68q-72 0 -115 14v121q53 -16 103 -16q91 0 130.5 49.5t39.5 149.5
v1173zM868 1454q41 0 71 -29.5t30 -70.5t-30 -70t-71 -29q-42 0 -71 28.5t-29 70.5t29 71t71 29z" />
    <glyph glyph-name=".notdef" horiz-adv-x="1228" 
d="M139 0v1434h953v-1434h-953zM612 797l340 542h-682zM997 182v1053l-331 -526zM944 94l-332 527l-333 -527h665zM557 709l-324 516v-1032z" />
    <glyph glyph-name=".null" horiz-adv-x="0" 
 />
    <glyph glyph-name="nonmarkingreturn" horiz-adv-x="682" 
 />
    <glyph glyph-name="space" unicode=" " horiz-adv-x="432" 
 />
    <glyph glyph-name="exclam" unicode="!" 
d="M172 1434h129v-1039h-129v1039zM348 86q0 -45 -31.5 -77t-78.5 -32t-79 31t-32 78t32 79t79 32t78.5 -32t31.5 -79z" />
    <glyph glyph-name="quotedbl" unicode="&#x22;" horiz-adv-x="589" 
d="M88 1470h133l-33 -409h-88zM377 1470h133l-33 -409h-88z" />
    <glyph glyph-name="numbersign" unicode="#" horiz-adv-x="1323" 
d="M924 530h274v-120h-295l-72 -410h-126l71 410h-348l-72 -410h-127l72 410h-270v120h291l75 428h-272v119h293l63 357h127l-63 -357h348l63 357h127l-63 -357h272v-119h-293zM872 958h-348l-75 -428h348z" />
    <glyph glyph-name="dollar" unicode="$" horiz-adv-x="1093" 
d="M506 1634h112v-180q151 -19 239 -120.5t89 -266.5h-137q-1 105 -51.5 173.5t-139.5 88.5v-549q207 -83 291 -170q86 -86 86 -231q0 -175 -101.5 -280.5t-275.5 -123.5v-174h-112v176q-185 17 -290 133.5t-107 303.5h137q1 -135 69 -216t191 -98v576q-184 76 -268 160
q-84 87 -84 241q0 159 94 264t258 117v176zM858 373q0 87 -55 145t-185 113v-533q115 13 177.5 87.5t62.5 187.5zM291 1083q0 -94 46.5 -147t168.5 -109v508q-103 -11 -159 -76.5t-56 -175.5z" />
    <glyph glyph-name="percent" unicode="%" horiz-adv-x="1679" 
d="M1219 1434h149l-907 -1434h-150zM401 1460q147 0 240 -100q96 -104 96 -252q0 -149 -96 -250q-94 -98 -240 -98q-145 0 -239 98t-94 250q0 151 94 252q93 100 239 100zM178 1108q0 -103 63 -170.5t160 -67.5q96 0 158 67.5t62 170.5q0 105 -62 173.5t-158 68.5
q-97 0 -160 -69t-63 -173zM1280 674q144 0 238 -101q96 -104 96 -251q0 -149 -96 -250q-94 -99 -238 -99q-148 0 -242 99q-94 98 -94 250q0 150 94 251t242 101zM1280 563q-98 0 -160.5 -68t-62.5 -173q0 -103 62.5 -170.5t160.5 -67.5q94 0 156.5 67.5t62.5 170.5
q0 104 -62.5 172.5t-156.5 68.5z" />
    <glyph glyph-name="ampersand" unicode="&#x26;" horiz-adv-x="1255" 
d="M541 1460q149 0 238 -85t89 -232q-7 -79 -20 -122t-51 -87l-43 -47q-2 -2 -60 -45l-55 -37q-3 -1 -61 -39l-5 -4l349 -389q16 57 22 135q6 125 -29 237l129 21q37 -118 31 -266q-6 -132 -57 -236l239 -264h-174l-137 152q-150 -179 -407 -179q-214 0 -341.5 105.5
t-127.5 292.5q0 88 34.5 159t93.5 125.5t156 114.5l25 14l-35 39q-143 158 -143 320q0 138 93.5 227.5t246.5 89.5zM541 92q215 0 321 152l-401 448l-12 -6q-130 -79 -185 -147t-55 -166q0 -135 87.5 -208t244.5 -73zM336 1143q0 -117 119 -248l37 -43l12 8q127 77 164 117
q63 66 63 162q0 92 -51 147t-137 55q-91 0 -148.5 -54t-58.5 -144z" />
    <glyph glyph-name="quotesingle" unicode="'" horiz-adv-x="301" 
d="M88 1470h133l-33 -409h-88z" />
    <glyph glyph-name="parenleft" unicode="(" horiz-adv-x="536" 
d="M416 1501l94 -69q-148 -186 -211 -361q-66 -183 -66 -414q0 -230 66 -413q63 -175 211 -361l-94 -69q-158 201 -234 401.5t-76 441.5q0 242 76 443t234 401z" />
    <glyph glyph-name="parenright" unicode=")" horiz-adv-x="536" 
d="M27 1432l94 69q158 -200 233.5 -401t75.5 -443t-75.5 -442.5t-233.5 -400.5l-94 69q148 186 211 361q65 180 65 413q0 234 -65 414q-63 175 -211 361z" />
    <glyph glyph-name="asterisk" unicode="*" horiz-adv-x="716" 
d="M303 1509h107l-2 -272l249 86l37 -100l-252 -82l164 -219l-86 -64l-160 219l-157 -219l-86 62l159 217l-253 82l32 102l250 -84z" />
    <glyph glyph-name="plus" unicode="+" horiz-adv-x="966" 
d="M422 1139h123v-363h360v-119h-360v-362h-123v362h-361v119h361v363z" />
    <glyph glyph-name="comma" unicode="," horiz-adv-x="380" 
d="M295 76q0 -87 -38.5 -180.5t-100.5 -161.5l-47 18q60 105 75 232q-32 0 -56.5 19t-34.5 45.5t-5 57.5t27 52q22 24 55 28.5t61 -7t47.5 -39.5t16.5 -64z" />
    <glyph glyph-name="hyphen" unicode="-" horiz-adv-x="747" 
d="M51 590h645v-117h-645v117z" />
    <glyph glyph-name="period" unicode="." horiz-adv-x="391" 
d="M305 86q0 -44 -32 -76.5t-76 -32.5q-35 0 -62.5 20t-39.5 48t-7.5 61t29.5 58q24 26 58.5 31.5t63.5 -7t49 -40t17 -62.5z" />
    <glyph glyph-name="slash" unicode="/" horiz-adv-x="780" 
d="M641 1434h129l-633 -1434h-127z" />
    <glyph glyph-name="zero" unicode="0" horiz-adv-x="1124" 
d="M1030 719q0 -343 -123 -545q-124 -201 -344 -201q-222 0 -346 201q-121 204 -121 545q0 340 121 541q123 200 346 200q224 0 344 -200q123 -200 123 -541zM563 1333q-160 0 -245 -162t-85 -452q0 -292 85.5 -455.5t244.5 -163.5q158 0 243 164t85 455q0 290 -85 452
t-243 162z" />
    <glyph glyph-name="one" unicode="1" horiz-adv-x="653" 
d="M381 1434h108v-1434h-135v1155h-301v115q171 0 236 33q69 35 92 131z" />
    <glyph glyph-name="two" unicode="2" horiz-adv-x="987" 
d="M498 1460q183 0 283 -102.5t100 -284.5q0 -196 -170 -422l-404 -524h606v-127h-792v100l473 613q84 105 116.5 183t32.5 173q0 264 -247 264q-118 0 -187 -77.5t-69 -223.5h-136q0 196 107.5 312t286.5 116z" />
    <glyph glyph-name="three" unicode="3" horiz-adv-x="1073" 
d="M913 1065q0 -124 -60 -208.5t-153 -115.5q113 -27 188 -125.5t75 -236.5q0 -176 -121 -291t-307 -115q-202 0 -320.5 113.5t-118.5 310.5h133q1 -148 83.5 -222.5t224.5 -74.5q130 0 208 76.5t78 204.5q0 146 -100 222.5t-287 76.5h-26v123h26q177 0 257.5 62t80.5 198
q0 129 -64 199.5t-184 70.5q-119 0 -189.5 -75.5t-70.5 -217.5h-135q0 192 107.5 306t287.5 114q183 0 283 -112q104 -110 104 -283z" />
    <glyph glyph-name="four" unicode="4" horiz-adv-x="1071" 
d="M655 1434h146v-996h211v-125h-211v-313h-135v313h-600v111zM666 438v774l-50 -92l-399 -682h449z" />
    <glyph glyph-name="five" unicode="5" horiz-adv-x="1081" 
d="M186 1434h740v-127h-602v-488q95 62 254 62q195 0 309 -123q117 -120 117 -318q0 -203 -119 -334q-118 -133 -318 -133q-195 0 -308.5 105.5t-113.5 298.5h136q1 -137 76.5 -207t209.5 -70q138 0 217.5 91t79.5 245q0 144 -80 231t-219 87q-144 0 -260 -72h-119v752z" />
    <glyph glyph-name="six" unicode="6" horiz-adv-x="1101" 
d="M588 1460q167 0 275.5 -102.5t115.5 -272.5h-137q-27 248 -258 248q-168 0 -250.5 -155t-83.5 -488q42 76 135 127t197 51q198 0 313 -127q117 -126 117 -313q0 -195 -119 -326q-120 -129 -315 -129q-198 0 -326 140q-139 157 -139 563q0 392 115.5 588t359.5 196z
M575 743q-125 0 -217 -92q-90 -90 -90 -223q0 -126 86 -229q85 -101 221 -101q133 0 216 92q81 93 81 236q0 135 -81 225q-83 92 -216 92z" />
    <glyph glyph-name="seven" unicode="7" horiz-adv-x="974" 
d="M82 1434h833v-111l-604 -1323h-147l596 1305h-678v129z" />
    <glyph glyph-name="eight" unicode="8" horiz-adv-x="1105" 
d="M553 1460q179 0 285 -112q110 -113 110 -281q0 -121 -56 -208.5t-132 -119.5q101 -40 168 -131t67 -223q0 -177 -127 -295q-126 -117 -315 -117q-191 0 -317 117q-127 118 -127 295q0 129 66.5 225t168.5 129q-78 33 -132 120.5t-54 207.5q0 167 108 281q106 112 287 112
zM553 98q125 0 215 78q90 81 90 211t-90 211q-89 80 -215 80q-125 0 -217 -80q-90 -81 -90 -211t90 -211q90 -78 217 -78zM553 1335q-116 0 -188 -74.5t-72 -195.5q0 -118 72 -190t188 -72t187 72t71 190q0 121 -72.5 195.5t-185.5 74.5z" />
    <glyph glyph-name="nine" unicode="9" horiz-adv-x="1101" 
d="M512 -27q-167 0 -275.5 102.5t-115.5 272.5h137q27 -248 258 -248q168 0 250.5 155t83.5 488q-42 -76 -135 -127t-197 -51q-199 0 -315 125q-115 127 -115 316q0 195 119 323q119 131 315 131q199 0 326 -139q139 -157 139 -563q0 -393 -115.5 -589t-359.5 -196zM524 690
q125 0 215 90q92 92 92 226q0 124 -86 227q-86 102 -221 102q-133 0 -215 -94q-82 -91 -82 -233q0 -135 82 -226q83 -92 215 -92z" />
    <glyph glyph-name="colon" unicode=":" horiz-adv-x="391" 
d="M197 831q-47 0 -79 31t-32 78t32 79t79 32t77.5 -31.5t30.5 -79.5q0 -47 -31.5 -78t-76.5 -31zM305 86q0 -44 -32 -76.5t-76 -32.5q-35 0 -62.5 20t-39.5 48t-7.5 61t29.5 58q24 26 58.5 31.5t63.5 -7t49 -40t17 -62.5z" />
    <glyph glyph-name="semicolon" unicode=";" horiz-adv-x="391" 
d="M197 831q-47 0 -79 31t-32 78t32 79t79 32t77.5 -31.5t30.5 -79.5q0 -47 -31.5 -78t-76.5 -31zM197 188q43 0 72.5 -31.5t29.5 -80.5q0 -86 -38 -179.5t-99 -162.5l-47 18q60 105 75 232q-44 5 -72 32.5t-28 69.5q0 43 31.5 72.5t75.5 29.5z" />
    <glyph glyph-name="less" unicode="&#x3c;" horiz-adv-x="499" 
d="M334 913h137l-315 -401l315 -399h-137l-305 383v34z" />
    <glyph glyph-name="equal" unicode="=" horiz-adv-x="966" 
d="M61 985h844v-119h-844v119zM61 565h844v-119h-844v119z" />
    <glyph glyph-name="greater" unicode="&#x3e;" horiz-adv-x="499" 
d="M29 913h139l303 -383v-34l-303 -383h-139l317 399z" />
    <glyph glyph-name="question" unicode="?" horiz-adv-x="819" 
d="M399 1468q166 0 279 -104q115 -103 115 -285q0 -95 -33.5 -176t-87.5 -135q-21 -21 -58.5 -55t-60.5 -56.5t-48 -52.5t-37.5 -61t-12.5 -64v-84h-129v86q0 52 19 97.5t48.5 80.5t66 68.5t73 68.5t66 73.5t48.5 91.5t19 114q0 131 -73.5 205t-191.5 74
q-129 0 -200.5 -75.5t-71.5 -215.5h-127q1 191 110.5 298t286.5 107zM502 86q0 -45 -32 -77t-79 -32t-78.5 31t-31.5 78t31.5 79t78.5 32t79 -32t32 -79z" />
    <glyph glyph-name="at" unicode="@" horiz-adv-x="1634" 
d="M797 784q-126 0 -200.5 -86t-74.5 -227q0 -140 73.5 -224.5t197.5 -84.5q118 0 196 76t78 204v47q0 133 -78 214t-192 81zM821 1219q329 0 531 -211t202 -535q0 -205 -80 -311.5t-204 -106.5q-158 0 -195 131q-39 -59 -117 -97t-176 -38q-170 0 -274 119
q-105 120 -105 301q0 183 105 303q104 119 276 119q100 0 175 -44.5t108 -111.5l4 137h107v-608q0 -110 102 -110q164 0 164 317q0 278 -172 459q-173 182 -451 182q-283 0 -459 -182q-172 -181 -172 -459q0 -280 172 -461q176 -182 459 -182q152 0 279 59l37 -100
q-141 -63 -316 -63q-333 0 -538 211q-203 212 -203 536q0 328 203 537q206 209 538 209z" />
    <glyph glyph-name="A" unicode="A" horiz-adv-x="1382" 
d="M717 1171l-27 76l-26 -76l-258 -626h569zM627 1434h129l587 -1434h-151l-170 416h-664l-165 -416h-152z" />
    <glyph glyph-name="B" unicode="B" horiz-adv-x="1140" 
d="M168 1434h369q201 0 318.5 -102.5t117.5 -276.5q0 -198 -168 -299q122 -38 191 -132.5t69 -220.5q0 -185 -124.5 -294t-340.5 -109h-432v1434zM600 672h-297v-545h297q153 0 240.5 74.5t87.5 204.5q0 123 -87.5 194.5t-240.5 71.5zM537 1307h-234v-508h244
q130 0 210.5 69.5t80.5 182.5q0 121 -80.5 188.5t-220.5 67.5z" />
    <glyph glyph-name="C" unicode="C" horiz-adv-x="1480" 
d="M791 1460q236 0 399 -114t225 -318h-151q-51 144 -171.5 224.5t-301.5 80.5q-247 0 -406 -176q-158 -178 -158 -440q0 -265 158 -443q158 -174 406 -174q181 0 302.5 82.5t172.5 227.5h151q-63 -210 -224.5 -323.5t-401.5 -113.5q-307 0 -506 211t-199 533q0 319 199 530
q201 213 506 213z" />
    <glyph glyph-name="D" unicode="D" horiz-adv-x="1488" 
d="M168 1434h504q330 0 524 -197q197 -194 197 -520q0 -325 -197 -522q-195 -195 -524 -195h-504v1434zM672 1307h-369v-1180h369q266 0 424 158q159 156 159 432q0 273 -157 430q-157 160 -426 160z" />
    <glyph glyph-name="E" unicode="E" horiz-adv-x="1034" 
d="M168 1434h770v-127h-635v-504h563v-127h-563v-549h635v-127h-770v1434z" />
    <glyph glyph-name="F" unicode="F" horiz-adv-x="972" 
d="M168 1434h750v-127h-615v-523h522v-129h-522v-655h-135v1434z" />
    <glyph glyph-name="G" unicode="G" horiz-adv-x="1531" 
d="M791 1460q236 0 399 -114t225 -318h-151q-51 144 -171.5 224.5t-301.5 80.5q-247 0 -406 -176q-158 -178 -158 -440q0 -265 158 -443q158 -174 408 -174q234 0 368 123.5t135 362.5h-475v129h617v-82q0 -307 -170 -483q-171 -177 -475 -177q-309 0 -508 211t-199 533
q0 319 199 530q201 213 506 213z" />
    <glyph glyph-name="H" unicode="H" horiz-adv-x="1441" 
d="M1139 1434h135v-1434h-135v676h-836v-676h-135v1434h135v-629h836v629z" />
    <glyph glyph-name="I" unicode="I" 
d="M168 1434h135v-1434h-135v1434z" />
    <glyph glyph-name="J" unicode="J" horiz-adv-x="991" 
d="M707 1434h135v-1037q0 -204 -98 -313t-281 -109q-385 0 -406 439h136q15 -312 270 -312q118 0 181 76.5t63 222.5v1033z" />
    <glyph glyph-name="K" unicode="K" horiz-adv-x="1357" 
d="M995 1434h170l-495 -629l645 -805h-170l-563 698l-263 -323v-375h-137v1434h137v-856z" />
    <glyph glyph-name="L" unicode="L" horiz-adv-x="1009" 
d="M166 1434h135v-1307h662v-127h-797v1434z" />
    <glyph glyph-name="M" unicode="M" horiz-adv-x="1775" 
d="M1468 1434h142v-1434h-135v1153l-39 -98l-496 -1055h-102l-498 1055l-37 98v-1153h-135v1434h139l537 -1121l43 -98l45 98z" />
    <glyph glyph-name="N" unicode="N" horiz-adv-x="1435" 
d="M1133 1434h135v-1434h-131l-779 1114l-55 84v-1198h-135v1434h129l774 -1108l62 -90v1198z" />
    <glyph glyph-name="O" unicode="O" horiz-adv-x="1624" 
d="M1538 719q0 -322 -205 -533q-207 -213 -520 -213q-315 0 -522 213q-205 211 -205 533q0 317 205 528q207 213 522 213q313 0 520 -213q205 -211 205 -528zM813 1333q-255 0 -422 -176q-164 -176 -164 -438q0 -267 164 -443q167 -176 422 -176q254 0 418 176
q166 175 166 443q0 263 -166 438q-164 176 -418 176z" />
    <glyph glyph-name="P" unicode="P" horiz-adv-x="1071" 
d="M168 1434h403q206 0 328 -119q123 -117 123 -309q0 -189 -123 -306q-120 -114 -328 -114h-268v-586h-135v1434zM571 1307h-268v-594h268q142 0 229 80t87 213q0 136 -87 218.5t-229 82.5z" />
    <glyph glyph-name="Q" unicode="Q" horiz-adv-x="1619" 
d="M1538 719q0 -197 -83 -361t-232 -264l307 -307h-191l-241 242q-139 -56 -285 -56q-315 0 -522 213q-205 211 -205 533q0 317 205 528q207 213 522 213q313 0 520 -213q205 -211 205 -528zM813 1333q-255 0 -422 -176q-164 -176 -164 -438q0 -267 164 -443
q167 -176 422 -176q89 0 184 29l-276 274h190l215 -215q127 79 199 220t72 311q0 263 -166 438q-164 176 -418 176z" />
    <glyph glyph-name="R" unicode="R" horiz-adv-x="1087" 
d="M168 1434h362q207 0 328 -115q123 -114 123 -305q0 -145 -74.5 -245t-210.5 -142l346 -627h-155l-330 604h-254v-604h-135v1434zM530 1307h-227v-578h227q143 0 229.5 76.5t86.5 208.5q0 134 -86.5 213.5t-229.5 79.5z" />
    <glyph glyph-name="S" unicode="S" horiz-adv-x="1058" 
d="M526 1460q185 0 293 -103t109 -290h-137q-1 128 -72.5 199t-194.5 71q-118 0 -185 -67.5t-67 -186.5q0 -110 64 -165q67 -57 237 -127q224 -87 312 -175q92 -86 92 -237q0 -190 -119 -297q-118 -109 -309 -109q-212 0 -334.5 119.5t-124.5 321.5h137q1 -152 86 -235
t238 -83q137 0 213 75.5t76 201.5q0 98 -72.5 162t-255.5 131q-201 80 -289 165t-88 246q0 164 103 273q101 110 288 110z" />
    <glyph glyph-name="T" unicode="T" horiz-adv-x="1234" 
d="M18 1434h1196v-127h-530v-1307h-135v1307h-531v127z" />
    <glyph glyph-name="U" unicode="U" horiz-adv-x="1400" 
d="M1116 1434h137v-873q0 -287 -143.5 -437.5t-409.5 -150.5q-264 0 -407 150.5t-143 437.5v873h135v-873q0 -461 415 -461q416 0 416 461v873z" />
    <glyph glyph-name="V" unicode="V" horiz-adv-x="1372" 
d="M1186 1434h147l-588 -1434h-118l-588 1434h147l471 -1158l29 -88l27 88z" />
    <glyph glyph-name="W" unicode="W" horiz-adv-x="2007" 
d="M1823 1434h141l-467 -1434h-123l-346 1087l-24 95l-25 -95l-344 -1087h-123l-469 1434h143l365 -1110l24 -103l25 103l350 1110h107l352 -1110l23 -103l26 103z" />
    <glyph glyph-name="X" unicode="X" horiz-adv-x="1376" 
d="M1122 1434h164l-510 -701l537 -733h-162l-463 627l-461 -627h-164l535 733l-510 701h166l434 -592z" />
    <glyph glyph-name="Y" unicode="Y" horiz-adv-x="1366" 
d="M1171 1434h160l-579 -885v-549h-138v549l-579 885h160l430 -656l57 -96l57 96z" />
    <glyph glyph-name="Z" unicode="Z" horiz-adv-x="1196" 
d="M82 1434h1022v-107l-854 -1200h876v-127h-1054v106l856 1201h-846v127z" />
    <glyph glyph-name="bracketleft" unicode="[" horiz-adv-x="542" 
d="M143 1466h349v-118h-224v-1387h224v-119h-349v1624z" />
    <glyph glyph-name="backslash" unicode="\" horiz-adv-x="780" 
d="M10 1434h127l633 -1434h-129z" />
    <glyph glyph-name="bracketright" unicode="]" horiz-adv-x="542" 
d="M51 1466h348v-1624h-348v119h221v1387h-221v118z" />
    <glyph glyph-name="asciicircum" unicode="^" horiz-adv-x="1103" 
d="M43 946l508 610l510 -610h-146l-364 438l-361 -438h-147z" />
    <glyph glyph-name="underscore" unicode="_" horiz-adv-x="1300" 
d="M51 0h1198v-119h-1198v119z" />
    <glyph glyph-name="grave" unicode="`" horiz-adv-x="456" 
d="M20 1499h166l250 -323h-135z" />
    <glyph glyph-name="a" unicode="a" horiz-adv-x="987" 
d="M489 1051q170 0 261.5 -95.5t91.5 -269.5v-686h-123l-4 150q-43 -76 -130 -124.5t-196 -48.5q-133 0 -212 75.5t-79 199.5q0 234 279 293l334 69v68q0 248 -222 248q-106 0 -169.5 -57.5t-63.5 -163.5h-129q3 150 100 243q102 99 262 99zM711 412v86l-310 -68
q-89 -21 -130.5 -61t-41.5 -115q0 -74 46.5 -115t130.5 -41q148 0 237 111q68 89 68 203z" />
    <glyph glyph-name="b" unicode="b" horiz-adv-x="1210" 
d="M164 1495h129v-639q40 82 138 138.5t222 56.5q217 0 351 -152q133 -151 133 -385q0 -236 -131 -385q-134 -152 -349 -152q-124 0 -223 57t-145 140l-6 -174h-119v1495zM641 928q-142 0 -248 -109q-102 -108 -102 -291v-43q0 -174 102 -282q105 -105 252 -105
q166 0 260 117q99 117 99 299q0 184 -101 297q-102 117 -262 117z" />
    <glyph glyph-name="c" unicode="c" horiz-adv-x="1099" 
d="M565 1051q169 0 288.5 -84t160.5 -236h-133q-32 93 -117 146t-197 53q-157 0 -258 -119q-102 -120 -102 -299q0 -175 102 -295q104 -119 260 -119q111 0 195.5 53.5t116.5 145.5h133q-42 -152 -161.5 -236t-287.5 -84q-212 0 -352 152q-137 152 -137 383q0 236 137 385
q139 154 352 154z" />
    <glyph glyph-name="d" unicode="d" horiz-adv-x="1210" 
d="M920 1495h127v-1495h-119l-4 174q-47 -84 -146 -140.5t-223 -56.5q-216 0 -350 152q-129 150 -129 385q0 236 131 385q134 152 350 152q124 0 222 -55.5t141 -139.5v639zM569 928q-160 0 -262 -117q-100 -115 -100 -297q0 -183 98 -299q99 -117 262 -117q146 0 248 105
q105 108 105 282v43q0 183 -105 291q-103 109 -246 109z" />
    <glyph glyph-name="e" unicode="e" horiz-adv-x="1126" 
d="M557 1051q214 0 340.5 -135.5t126.5 -378.5v-72h-817q7 -166 106 -266.5t250 -100.5q243 0 316 193h133q-48 -150 -164 -232t-287 -82q-211 0 -350 148q-135 147 -135 387q0 238 131 387q134 152 350 152zM557 930q-147 0 -242.5 -96.5t-107.5 -251.5h686
q0 161 -91 254.5t-245 93.5z" />
    <glyph glyph-name="f" unicode="f" horiz-adv-x="651" 
d="M500 1509q88 0 139 -26v-119q-59 27 -133 27q-152 0 -152 -181v-182h267v-119h-267v-909h-129v909h-198v119h198v184q0 139 73 218t202 79z" />
    <glyph glyph-name="g" unicode="g" horiz-adv-x="1001" 
d="M653 1028h365v-117h-199q72 -97 72 -227q0 -155 -105 -260t-278 -105q-141 0 -242 70q-59 -50 -59 -123q0 -59 41 -90t110 -31h285q157 0 237.5 -73t80.5 -203q0 -156 -109.5 -244t-304.5 -88q-214 0 -327.5 80.5t-113.5 232.5q0 144 117 203q-64 26 -103.5 81t-39.5 128
q0 125 108 205q-67 88 -67 217q0 163 105 265t282 102q71 0 145 -23zM250 684q0 -110 70 -179t186 -69q117 0 187.5 69t70.5 179q0 113 -70 181.5t-188 68.5t-187 -68.5t-69 -181.5zM627 29h-219q-75 -2 -123.5 -48.5t-48.5 -125.5q0 -201 311 -201q284 0 284 213
q0 78 -53.5 120t-150.5 42z" />
    <glyph glyph-name="h" unicode="h" horiz-adv-x="1067" 
d="M164 1495h129v-616q27 71 108.5 121.5t182.5 50.5q159 0 247.5 -105.5t88.5 -281.5v-664h-129v651q0 132 -60.5 203.5t-167.5 71.5q-119 0 -194.5 -97.5t-75.5 -257.5v-571h-129v1495z" />
    <glyph glyph-name="i" unicode="i" 
d="M172 1028h129v-1028h-129v1028zM238 1454q41 0 70.5 -29.5t29.5 -70.5t-29.5 -70t-70.5 -29q-43 0 -72 29t-29 70q0 42 29.5 71t71.5 29z" />
    <glyph glyph-name="j" unicode="j" 
d="M172 1028h129v-1175q0 -184 -82 -248q-80 -68 -205 -68q-71 0 -114 14v121q53 -16 102 -16q91 0 130.5 49.5t39.5 149.5v1173zM238 1454q41 0 70.5 -29.5t29.5 -70.5t-29.5 -70t-70.5 -29q-43 0 -72 29t-29 70q0 42 29.5 71t71.5 29z" />
    <glyph glyph-name="k" unicode="k" horiz-adv-x="978" 
d="M180 1495h129v-983l430 516h162l-350 -422l403 -606h-149l-344 506l-152 -182v-324h-129v1495z" />
    <glyph glyph-name="l" unicode="l" 
d="M172 1495h129v-1495h-129v1495z" />
    <glyph glyph-name="m" unicode="m" horiz-adv-x="1683" 
d="M1202 1051q159 0 246.5 -104t87.5 -283v-664h-129v651q0 132 -59 203.5t-166 71.5q-117 0 -192.5 -92.5t-76.5 -245.5v-588h-127v651q0 132 -60 203.5t-167 71.5q-118 0 -192 -96.5t-74 -258.5v-571h-129v1028h119l6 -156q32 75 112 127t179 52q228 0 305 -209
q44 92 127 150.5t190 58.5z" />
    <glyph glyph-name="n" unicode="n" horiz-adv-x="1067" 
d="M584 1051q159 0 247.5 -105.5t88.5 -281.5v-664h-129v651q0 132 -60.5 203.5t-167.5 71.5q-119 0 -194.5 -97.5t-75.5 -257.5v-571h-129v1028h119l6 -156q32 75 113 127t182 52z" />
    <glyph glyph-name="o" unicode="o" horiz-adv-x="1173" 
d="M217 899q146 152 371 152t368 -152q142 -151 142 -385t-142 -385q-143 -152 -368 -152t-371 152q-141 150 -141 385t141 385zM590 930q-172 0 -279 -119q-104 -116 -104 -297q0 -180 104 -299q108 -117 279 -117q170 0 272 117q105 120 105 299q0 180 -105 297
q-101 119 -272 119z" />
    <glyph glyph-name="p" unicode="p" horiz-adv-x="1230" 
d="M676 1051q217 0 348 -152q131 -149 131 -385t-131 -385q-134 -152 -350 -152q-126 0 -223.5 56t-137.5 139v-612h-131v1468h123l2 -176q48 84 146.5 141.5t222.5 57.5zM664 928q-148 0 -250 -105q-103 -106 -103 -280v-43q0 -182 103 -291q106 -109 248 -109
q160 0 262 117q100 115 100 297q0 184 -98 297q-94 117 -262 117z" />
    <glyph glyph-name="q" unicode="q" horiz-adv-x="1230" 
d="M555 1051q124 0 222.5 -57.5t146.5 -141.5l4 176h119v-1468h-127v612q-43 -84 -141 -139.5t-222 -55.5q-216 0 -350 152q-131 149 -131 385q0 235 129 385q134 152 350 152zM567 928q-165 0 -264 -117q-96 -116 -96 -297q0 -182 100 -297q102 -117 262 -117
q143 0 246 109q105 108 105 291v43q0 174 -103 280q-102 105 -250 105z" />
    <glyph glyph-name="r" unicode="r" horiz-adv-x="663" 
d="M616 1038v-127q-124 0 -208 -84q-99 -95 -99 -270v-557h-129v1028h121l4 -186q33 87 113.5 141.5t197.5 54.5z" />
    <glyph glyph-name="s" unicode="s" horiz-adv-x="897" 
d="M442 1051q147 0 236 -84t90 -226h-133q-3 189 -197 189q-91 0 -140.5 -43.5t-49.5 -118.5q0 -77 45 -113q48 -36 176 -69q181 -50 257.5 -119t76.5 -186q0 -138 -96.5 -221t-251.5 -83q-169 0 -267 88t-100 236h133q2 -97 64 -150t174 -53q102 0 157.5 48t55.5 128
q0 75 -53.5 118.5t-192.5 78.5q-165 43 -237 108t-72 183q0 126 88 207.5t237 81.5z" />
    <glyph glyph-name="t" unicode="t" horiz-adv-x="686" 
d="M219 1290h129l-2 -262h279v-121h-281l-4 -624q0 -97 33 -138t121 -41q66 0 131 21v-117q-55 -22 -146 -22q-137 0 -202 67t-64 213l4 641h-205v121h205z" />
    <glyph glyph-name="u" unicode="u" horiz-adv-x="1058" 
d="M766 1028h129v-1028h-121l-4 154q-32 -76 -111 -126.5t-180 -50.5q-159 0 -245.5 104t-86.5 284v663h129v-651q0 -134 59.5 -205.5t166.5 -71.5q118 0 191 94.5t73 251.5v582z" />
    <glyph glyph-name="v" unicode="v" horiz-adv-x="1011" 
d="M836 1028h139l-406 -1028h-125l-405 1028h137l309 -797l21 -71l22 71z" />
    <glyph glyph-name="w" unicode="w" horiz-adv-x="1558" 
d="M1382 1028h138l-336 -1028h-125l-281 805l-280 -805h-125l-334 1028h137l244 -770l22 -86l23 86l260 770h109l260 -770l22 -86l23 86z" />
    <glyph glyph-name="x" unicode="x" horiz-adv-x="1021" 
d="M786 1028h154l-346 -493l375 -535h-156l-303 428l-301 -428h-156l373 535l-344 493h154l274 -391z" />
    <glyph glyph-name="y" unicode="y" horiz-adv-x="1013" 
d="M836 1028h139l-580 -1468h-137l180 456l-399 1012h137l309 -797l21 -71l22 71z" />
    <glyph glyph-name="z" unicode="z" horiz-adv-x="919" 
d="M78 1028h758v-100l-592 -809h628v-119h-800v100l592 809h-586v119z" />
    <glyph glyph-name="braceleft" unicode="{" horiz-adv-x="555" 
d="M440 1466h64v-118h-62q-133 0 -133 -148v-350q0 -151 -110 -197q110 -46 110 -194v-350q0 -148 133 -148h62v-119h-64q-123 0 -188.5 70.5t-65.5 196.5v340q0 147 -133 147h-37v117h37q133 0 133 147v340q0 126 65.5 196t188.5 70z" />
    <glyph glyph-name="bar" unicode="|" horiz-adv-x="417" 
d="M147 1487h125v-1624h-125v1624z" />
    <glyph glyph-name="braceright" unicode="}" horiz-adv-x="555" 
d="M51 1466h64q123 0 188.5 -70t65.5 -196v-340q0 -147 133 -147h37v-117h-37q-133 0 -133 -147v-340q0 -126 -65.5 -196.5t-188.5 -70.5h-64v119h62q133 0 133 148v350q0 148 110 194q-110 46 -110 197v350q0 148 -133 148h-62v118z" />
    <glyph glyph-name="asciitilde" unicode="~" horiz-adv-x="1169" 
d="M371 881q67 0 128.5 -28t100.5 -69q41 -40 94.5 -67t106.5 -27q154 0 213 176l96 -53q-86 -246 -311 -246q-68 0 -129 27.5t-101 67.5q-92 96 -200 96q-154 0 -213 -176l-97 51q85 248 312 248z" />
    <glyph glyph-name="exclamdown" unicode="&#xa1;" 
d="M301 -408h-129v1039h129v-1039zM125 940q0 45 32 77t79 32t78.5 -31t31.5 -78t-31.5 -79t-78.5 -32t-79 32t-32 79z" />
    <glyph glyph-name="cent" unicode="&#xa2;" horiz-adv-x="1099" 
d="M512 1227h115v-180q144 -14 247.5 -97.5t139.5 -218.5h-133q-59 165 -254 195v-824q91 12 158 63.5t96 131.5h133q-38 -136 -141 -218.5t-246 -96.5v-181h-115v181q-192 18 -315 165q-121 151 -121 365q0 217 121 365q122 149 315 170v180zM207 512q0 -158 84 -274
q86 -115 221 -136v824q-136 -23 -220.5 -137t-84.5 -277z" />
    <glyph glyph-name="sterling" unicode="&#xa3;" horiz-adv-x="1011" 
d="M342 741h338v-112h-307q10 -65 10 -115q0 -183 -100 -330l-35 -55h411q104 0 152.5 49t48.5 150h127q-4 -159 -90 -243.5t-240 -84.5h-591v70l79 114q107 158 107 332q0 60 -12 113h-205v112h172q-4 12 -22 56.5t-23 60.5q-39 115 -39 197q0 186 106 295q107 110 279 110
q174 0 274.5 -98t104.5 -279h-129q0 118 -66.5 186t-179.5 68q-120 0 -187 -76t-67 -208q0 -57 27 -162l28 -78q8 -19 17.5 -43t11.5 -29z" />
    <glyph glyph-name="currency" unicode="&#xa4;" horiz-adv-x="1259" 
d="M858 858l256 254l80 -82l-252 -252q78 -110 78 -239q0 -138 -80 -244l254 -252l-80 -80l-256 252q-104 -76 -227 -76q-127 0 -228 76l-253 -252l-84 80l253 252q-77 106 -77 244q0 130 77 239l-253 252l84 82l251 -254q103 80 230 80q118 0 227 -80zM631 831
q-118 0 -196.5 -83.5t-78.5 -208.5t78.5 -209t196.5 -84q116 0 194 84q80 83 80 209t-80 209q-77 83 -194 83z" />
    <glyph glyph-name="yen" unicode="&#xa5;" horiz-adv-x="1355" 
d="M784 606h234v-112h-270v-152h270v-113h-270v-229h-138v229h-274v113h274v152h-274v112h235l-540 828h159l431 -656l57 -96l57 96l432 656h160z" />
    <glyph glyph-name="brokenbar" unicode="&#xa6;" horiz-adv-x="417" 
d="M147 1487h125v-574h-125v574zM147 436h125v-573h-125v573z" />
    <glyph glyph-name="section" unicode="&#xa7;" horiz-adv-x="1024" 
d="M518 1475q170 0 270.5 -87t102.5 -229h-135q0 98 -63.5 151.5t-176.5 53.5q-104 0 -161.5 -51t-57.5 -135q0 -79 60 -125.5t202 -75.5q206 -39 295.5 -108.5t89.5 -200.5q0 -154 -168 -248q127 -77 127 -223q0 -138 -103 -219.5t-270 -81.5q-177 0 -284 87t-109 228h135
q0 -98 68.5 -151.5t191.5 -53.5q114 0 176 51.5t62 135.5q0 79 -65.5 125.5t-223.5 76.5q-207 42 -300 113t-93 199q0 163 176 258q-98 73 -98 209q0 138 97.5 219.5t254.5 81.5zM535 500q20 -3 120 -29q158 68 158 188q0 88 -64 134.5t-235 78.5q-69 13 -141 37
q-154 -65 -154 -192q0 -88 68 -135t248 -82z" />
    <glyph glyph-name="dieresis" unicode="&#xa8;" horiz-adv-x="591" 
d="M47 1358q29 29 68 29t65 -29q26 -26 26 -65.5t-26 -65.5t-65 -26t-68 26q-26 26 -26 65.5t26 65.5zM412 1358q29 29 68 29t65 -29q26 -26 26 -65.5t-26 -65.5t-65 -26t-68 26q-26 26 -26 65.5t26 65.5z" />
    <glyph glyph-name="copyright" unicode="&#xa9;" horiz-adv-x="1183" 
d="M600 1272q204 0 256 -193h-115q-35 95 -141 95q-79 0 -129.5 -56t-50.5 -143t50.5 -143t129.5 -56q118 0 148 98h110q-23 -95 -89 -145.5t-169 -50.5q-125 0 -209 84q-82 82 -82 213t82 213q84 84 209 84zM594 1518q236 0 381 -154q147 -153 147 -389q0 -233 -147 -389
q-145 -154 -381 -154q-237 0 -385 154q-148 157 -148 389q0 235 148 389t385 154zM594 1419q-190 0 -311 -127q-117 -126 -117 -317q0 -194 117 -320q119 -125 311 -125q191 0 307 125q117 126 117 320q0 191 -117 317q-118 127 -307 127z" />
    <glyph glyph-name="ordfeminine" unicode="&#xaa;" horiz-adv-x="772" 
d="M383 1450q125 0 193.5 -63.5t68.5 -184.5v-467h-100l-4 99q-73 -113 -228 -113q-98 0 -155.5 51t-57.5 137q0 159 205 199l230 45v45q0 154 -152 154q-71 0 -112.5 -36t-41.5 -102h-110q5 106 76 171t188 65zM535 1008v57l-207 -43q-117 -21 -117 -107q0 -45 32 -72.5
t87 -27.5q99 0 159 72q46 55 46 121z" />
    <glyph glyph-name="guillemotleft" unicode="&#xab;" horiz-adv-x="903" 
d="M324 913h137l-305 -401l305 -399h-137l-295 383v34zM735 913h139l-307 -401l307 -399h-139l-295 383v34z" />
    <glyph glyph-name="logicalnot" unicode="&#xac;" horiz-adv-x="1153" 
d="M78 864h999v-532h-104v428h-895v104z" />
    <glyph glyph-name="registered" unicode="&#xae;" horiz-adv-x="1183" 
d="M594 1518q236 0 381 -154q147 -153 147 -389q0 -233 -147 -389q-145 -154 -381 -154q-237 0 -385 154q-148 157 -148 389q0 235 148 389t385 154zM594 1419q-190 0 -311 -127q-117 -126 -117 -317q0 -194 117 -320q119 -125 311 -125q191 0 307 125q117 126 117 320
q0 191 -117 317q-118 127 -307 127zM408 1262h192q92 0 145.5 -49t53.5 -134q0 -111 -105 -157l129 -234h-121l-114 217h-76v-217h-104v574zM596 1167h-84v-176h84q60 -7 85 40.5t0 95t-85 40.5z" />
    <glyph glyph-name="overscore" unicode="&#xaf;" horiz-adv-x="559" 
d="M20 1341h519v-112h-519v112z" />
    <glyph glyph-name="degree" unicode="&#xb0;" horiz-adv-x="686" 
d="M342 893q-128 0 -211 80q-84 84 -84 213q0 130 84 211q82 82 211 82t211 -82q86 -80 86 -211q0 -130 -83.5 -211.5t-213.5 -81.5zM342 1374q-81 0 -133.5 -52t-52.5 -136t53 -137.5t133 -53.5q82 0 135 53.5t53 137.5t-53 136t-135 52z" />
    <glyph glyph-name="plusminus" unicode="&#xb1;" horiz-adv-x="966" 
d="M422 1315h123v-363h360v-118h-360v-363h-123v363h-361v118h361v363zM61 317h844v-118h-844v118z" />
    <glyph glyph-name="two.sups" unicode="&#xb2;" horiz-adv-x="655" 
d="M330 1653q116 0 179.5 -59t63.5 -164q0 -112 -104 -234l-219 -254h336v-106h-492v82l277 319q88 101 88 186q0 125 -131 125q-59 0 -96 -37.5t-37 -107.5h-113q0 114 68.5 182t179.5 68z" />
    <glyph glyph-name="three.sups" unicode="&#xb3;" horiz-adv-x="710" 
d="M350 1653q111 0 177.5 -63.5t66.5 -162.5q0 -68 -33.5 -112.5t-87.5 -63.5q65 -18 107.5 -69t42.5 -125q0 -106 -74 -171t-193 -65q-128 0 -200 64.5t-72 181.5h113q0 -70 43 -106.5t118 -36.5q68 0 110 38t42 99q0 141 -203 141h-31v96h29q174 0 174 125q0 58 -34 91.5
t-95 33.5q-62 0 -98.5 -35.5t-36.5 -101.5h-113q0 113 66.5 177.5t181.5 64.5z" />
    <glyph glyph-name="acute" unicode="&#xb4;" horiz-adv-x="456" 
d="M270 1499h166l-280 -323h-136z" />
    <glyph glyph-name="mu" unicode="&#xb5;" horiz-adv-x="1073" 
d="M782 1028h127v-1028h-118l-7 154q-32 -77 -109.5 -127t-178.5 -50q-124 0 -203 64v-481h-129v1468h129v-666q1 -127 59.5 -194.5t163.5 -67.5q118 0 192 94.5t74 251.5v582z" />
    <glyph glyph-name="paragraph" unicode="&#xb6;" horiz-adv-x="1200" 
d="M465 1434h686v-99h-182v-1499h-103v1499h-264v-1499h-102v809h-35q-184 0 -299 109q-115 112 -115 282q0 175 115 287q114 111 299 111z" />
    <glyph glyph-name="middot" unicode="&#xb7;" horiz-adv-x="391" 
d="M197 641q44 0 76 -32.5t32 -76.5q3 -35 -17 -62.5t-49.5 -39.5t-63.5 -7t-58 30q-25 24 -30 58.5t7 63.5t40 49t63 17z" />
    <glyph glyph-name="cedilla" unicode="&#xb8;" horiz-adv-x="434" 
d="M164 12h88l-35 -141h23q78 0 126 -45.5t48 -120.5q0 -80 -57 -128t-146 -48q-125 0 -191 78l60 74q51 -60 131 -60q47 0 76.5 22.5t29.5 59.5q0 38 -25 60t-67 22q-21 0 -73 -10l-46 14z" />
    <glyph glyph-name="one.sups" unicode="&#xb9;" horiz-adv-x="479" 
d="M270 1638h86v-802h-112v616h-181v86q100 0 147 22t60 78z" />
    <glyph glyph-name="ordmasculine" unicode="&#xba;" horiz-adv-x="886" 
d="M807 1083q0 -158 -102 -260t-263 -102q-160 0 -262 102q-100 100 -100 260q0 165 100 265q102 102 262 102q161 0 263 -102t102 -265zM444 1350q-112 0 -181.5 -74.5t-69.5 -190.5t69.5 -190t181.5 -74q109 0 179.5 75.5t70.5 188.5q0 116 -70 190.5t-180 74.5z" />
    <glyph glyph-name="guillemotright" unicode="&#xbb;" horiz-adv-x="903" 
d="M29 913h139l293 -383v-34l-293 -383h-139l307 399zM440 913h140l294 -383v-34l-294 -383h-140l308 399z" />
    <glyph glyph-name="onequarter" unicode="&#xbc;" horiz-adv-x="1351" 
d="M1034 803h131v-541h119v-100h-119v-162h-112v162h-363v90zM1053 262v385l-27 -49l-213 -336h240zM270 1434h86v-803h-112v616h-181v86q100 0 147 22.5t60 78.5zM1024 1434h150l-908 -1434h-149z" />
    <glyph glyph-name="onehalf" unicode="&#xbd;" horiz-adv-x="1413" 
d="M1024 1434h150l-908 -1434h-149zM270 1434h86v-803h-112v616h-181v86q100 0 147 22.5t60 78.5zM1085 817q116 0 180 -59t64 -164q0 -112 -104 -234l-219 -254h335v-106h-491v82l276 319q88 101 88 187q0 125 -131 125q-61 0 -97 -37.5t-36 -108.5h-112q0 115 68 182.5
t179 67.5z" />
    <glyph glyph-name="threequarters" unicode="&#xbe;" horiz-adv-x="1529" 
d="M350 1448q111 0 177.5 -63.5t66.5 -161.5q0 -68 -33.5 -112.5t-87.5 -63.5q65 -18 107.5 -69.5t42.5 -125.5q0 -106 -74 -171t-193 -65q-128 0 -200 64.5t-72 181.5h113q0 -70 43 -106.5t118 -36.5q68 0 110 38t42 99q0 141 -203 141h-31v97h29q174 0 174 125
q0 58 -34 91t-95 33q-62 0 -98.5 -35.5t-36.5 -101.5h-113q0 113 66.5 177.5t181.5 64.5zM1212 803h131v-541h119v-100h-119v-162h-112v162h-363v90zM1231 262v385l-27 -49l-213 -336h240zM1200 1434h150l-908 -1434h-149z" />
    <glyph glyph-name="questiondown" unicode="&#xbf;" horiz-adv-x="819" 
d="M420 -442q-168 0 -281 104q-112 100 -112 285q0 95 32.5 175.5t85.5 133.5q21 21 59.5 55.5t61.5 57.5t48.5 53t38 61t12.5 64v84h129v-86q0 -52 -19 -97.5t-48.5 -80.5t-66 -68.5t-73 -68.5t-66 -73.5t-48.5 -91.5t-19 -114q0 -131 73 -205t191 -74q129 0 200.5 75.5
t71.5 215.5h127q-1 -191 -110.5 -298t-286.5 -107zM317 940q0 45 32 77t79 32t79 -31t32 -78t-32 -79t-79 -32t-79 32t-32 79z" />
    <glyph glyph-name="Agrave" unicode="&#xc0;" horiz-adv-x="1382" 
d="M717 1171l-27 76l-26 -76l-258 -626h569zM627 1434h129l587 -1434h-151l-170 416h-664l-165 -416h-152zM360 1708h201l219 -211h-162z" />
    <glyph glyph-name="Aacute" unicode="&#xc1;" horiz-adv-x="1382" 
d="M717 1171l-27 76l-26 -76l-258 -626h569zM627 1434h129l587 -1434h-151l-170 416h-664l-165 -416h-152zM809 1708h201l-256 -211h-164z" />
    <glyph glyph-name="Acircumflex" unicode="&#xc2;" horiz-adv-x="1382" 
d="M717 1171l-27 76l-26 -76l-258 -626h569zM627 1434h129l587 -1434h-151l-170 416h-664l-165 -416h-152zM645 1710h94l281 -215h-180l-150 117l-149 -117h-179z" />
    <glyph glyph-name="Atilde" unicode="&#xc3;" horiz-adv-x="1382" 
d="M717 1171l-27 76l-26 -76l-258 -626h569zM627 1434h129l587 -1434h-151l-170 416h-664l-165 -416h-152zM565 1737q45 0 79.5 -14.5t55 -35.5t37.5 -42t38 -35.5t46 -14.5q94 0 94 123h99q0 -106 -51.5 -167.5t-147.5 -61.5q-38 0 -69 10.5t-49.5 26.5t-36.5 34.5
t-31 34.5t-31.5 26.5t-40.5 10.5q-94 0 -94 -125h-98q0 107 51 168.5t149 61.5z" />
    <glyph glyph-name="Adieresis" unicode="&#xc4;" horiz-adv-x="1382" 
d="M717 1171l-27 76l-26 -76l-258 -626h569zM627 1434h129l587 -1434h-151l-170 416h-664l-165 -416h-152zM506 1688q56 4 79.5 -44t0 -96.5t-79.5 -44.5q-38 0 -66 27t-28 65q0 39 26.5 66t67.5 27zM870 1688q56 4 79.5 -44t0 -96.5t-79.5 -44.5q-38 0 -66 27t-28 65
q0 39 26.5 66t67.5 27z" />
    <glyph glyph-name="Aring" unicode="&#xc5;" horiz-adv-x="1382" 
d="M717 1171l-27 76l-26 -76l-258 -626h569zM627 1434h129l587 -1434h-151l-170 416h-664l-165 -416h-152zM688 1577q41 0 66.5 26.5t25.5 65.5q0 38 -27 65t-65 27q-55 4 -78 -44t0 -96t78 -44zM688 1849q82 0 135.5 -51t53.5 -129t-53.5 -130t-135.5 -52q-80 0 -133 52
t-53 130t53 129t133 51z" />
    <glyph glyph-name="AE" unicode="&#xc6;" horiz-adv-x="1875" 
d="M983 1434h795v-127h-635v-504h563v-127h-563v-549h635v-127h-770v420h-537l-287 -420h-157zM1008 543v700l-41 -74l-416 -626h457z" />
    <glyph glyph-name="Ccedilla" unicode="&#xc7;" horiz-adv-x="1480" 
d="M791 1460q236 0 399 -114t225 -318h-151q-51 144 -171.5 224.5t-301.5 80.5q-247 0 -406 -176q-158 -178 -158 -440q0 -265 158 -443q158 -174 406 -174q181 0 302.5 82.5t172.5 227.5h151q-62 -203 -215 -316.5t-381 -120.5l-24 -102h22q78 0 126 -45.5t48 -120.5
q0 -81 -56.5 -128.5t-145.5 -47.5q-125 0 -191 78l59 74q51 -60 132 -60q47 0 76.5 22.5t29.5 59.5q0 38 -25 60t-67 22q-22 0 -74 -10l-45 14l47 186q-284 21 -467 228q-180 207 -180 514q0 319 199 530q201 213 506 213z" />
    <glyph glyph-name="Egrave" unicode="&#xc8;" horiz-adv-x="1034" 
d="M168 1434h770v-127h-635v-504h563v-127h-563v-549h635v-127h-770v1434zM238 1708h200l219 -211h-161z" />
    <glyph glyph-name="Eacute" unicode="&#xc9;" horiz-adv-x="1034" 
d="M168 1434h770v-127h-635v-504h563v-127h-563v-549h635v-127h-770v1434zM684 1708h201l-256 -211h-164z" />
    <glyph glyph-name="Ecircumflex" unicode="&#xca;" horiz-adv-x="1034" 
d="M520 1710h94l281 -215h-180l-150 117l-149 -117h-178zM168 1434h770v-127h-635v-504h563v-127h-563v-549h635v-127h-770v1434z" />
    <glyph glyph-name="Edieresis" unicode="&#xcb;" horiz-adv-x="1034" 
d="M168 1434h770v-127h-635v-504h563v-127h-563v-549h635v-127h-770v1434zM383 1688q56 4 79.5 -44t0 -96.5t-79.5 -44.5q-38 0 -66 27t-28 65q0 39 26.5 66t67.5 27zM748 1688q56 4 79.5 -44t0 -96.5t-79.5 -44.5q-39 0 -67 27t-28 65q0 39 27 66t68 27z" />
    <glyph glyph-name="Igrave" unicode="&#xcc;" 
d="M-94 1708h200l220 -211h-162zM168 1434h135v-1434h-135v1434z" />
    <glyph glyph-name="Iacute" unicode="&#xcd;" 
d="M352 1708h201l-256 -211h-164zM168 1434h135v-1434h-135v1434z" />
    <glyph glyph-name="Icircumflex" unicode="&#xce;" 
d="M190 1710h95l280 -215h-180l-149 117l-150 -117h-178zM168 1434h135v-1434h-135v1434z" />
    <glyph glyph-name="Idieresis" unicode="&#xcf;" 
d="M53 1688q56 4 79.5 -44t0 -96.5t-79.5 -44.5q-38 0 -66 27t-28 65q0 39 26.5 66t67.5 27zM418 1688q56 4 79.5 -44t0 -96.5t-79.5 -44.5q-38 0 -66 27t-28 65q0 39 26.5 66t67.5 27zM168 1434h135v-1434h-135v1434z" />
    <glyph glyph-name="Eth" unicode="&#xd0;" horiz-adv-x="1507" 
d="M186 1434h504q330 0 524 -197q197 -194 197 -520q0 -325 -197 -522q-195 -195 -524 -195h-504v657h-190v113h190v664zM690 1307h-368v-537h303v-113h-303v-530h368q268 0 426 158t158 432q0 272 -158 430q-157 160 -426 160z" />
    <glyph glyph-name="Ntilde" unicode="&#xd1;" horiz-adv-x="1435" 
d="M1133 1434h135v-1434h-131l-779 1114l-55 84v-1198h-135v1434h129l774 -1108l62 -90v1198zM594 1737q45 0 79.5 -14.5t55 -35.5t37.5 -42t37.5 -35.5t46.5 -14.5q94 0 94 123h98q0 -107 -51 -168t-147 -61q-38 0 -69 10.5t-49.5 26.5t-36.5 34.5t-31 34.5t-31.5 26.5
t-40.5 10.5q-94 0 -94 -125h-99q0 107 51.5 168.5t149.5 61.5z" />
    <glyph glyph-name="Ograve" unicode="&#xd2;" horiz-adv-x="1624" 
d="M1538 719q0 -322 -205 -533q-207 -213 -520 -213q-315 0 -522 213q-205 211 -205 533q0 317 205 528q207 213 522 213q313 0 520 -213q205 -211 205 -528zM813 1333q-255 0 -422 -176q-164 -176 -164 -438q0 -267 164 -443q167 -176 422 -176q254 0 418 176
q166 175 166 443q0 263 -166 438q-164 176 -418 176zM481 1729h201l219 -211h-162z" />
    <glyph glyph-name="Oacute" unicode="&#xd3;" horiz-adv-x="1624" 
d="M1538 719q0 -322 -205 -533q-207 -213 -520 -213q-315 0 -522 213q-205 211 -205 533q0 317 205 528q207 213 522 213q313 0 520 -213q205 -211 205 -528zM813 1333q-255 0 -422 -176q-164 -176 -164 -438q0 -267 164 -443q167 -176 422 -176q254 0 418 176
q166 175 166 443q0 263 -166 438q-164 176 -418 176zM930 1729h200l-256 -211h-163z" />
    <glyph glyph-name="Ocircumflex" unicode="&#xd4;" horiz-adv-x="1624" 
d="M766 1731h94l281 -215h-180l-150 116l-149 -116h-179zM1538 719q0 -322 -205 -533q-207 -213 -520 -213q-315 0 -522 213q-205 211 -205 533q0 317 205 528q207 213 522 213q313 0 520 -213q205 -211 205 -528zM813 1333q-255 0 -422 -176q-164 -176 -164 -438
q0 -267 164 -443q167 -176 422 -176q254 0 418 176q166 175 166 443q0 263 -166 438q-164 176 -418 176z" />
    <glyph glyph-name="Otilde" unicode="&#xd5;" horiz-adv-x="1624" 
d="M686 1757q45 0 79.5 -14.5t55 -35.5t37.5 -41.5t37.5 -35t46.5 -14.5q94 0 94 123h99q0 -107 -51.5 -168.5t-147.5 -61.5q-45 0 -80 15t-55.5 36t-37.5 42t-38.5 36t-46.5 15q-94 0 -94 -125h-99q0 107 51.5 168t149.5 61zM1538 719q0 -322 -205 -533
q-207 -213 -520 -213q-315 0 -522 213q-205 211 -205 533q0 317 205 528q207 213 522 213q313 0 520 -213q205 -211 205 -528zM813 1333q-255 0 -422 -176q-164 -176 -164 -438q0 -267 164 -443q167 -176 422 -176q254 0 418 176q166 175 166 443q0 263 -166 438
q-164 176 -418 176z" />
    <glyph glyph-name="Odieresis" unicode="&#xd6;" horiz-adv-x="1624" 
d="M1538 719q0 -322 -205 -533q-207 -213 -520 -213q-315 0 -522 213q-205 211 -205 533q0 317 205 528q207 213 522 213q313 0 520 -213q205 -211 205 -528zM813 1333q-255 0 -422 -176q-164 -176 -164 -438q0 -267 164 -443q167 -176 422 -176q254 0 418 176
q166 175 166 443q0 263 -166 438q-164 176 -418 176zM627 1708q56 4 79.5 -44t0 -96t-79.5 -44q-39 0 -67 27t-28 65q0 39 27 65.5t68 26.5zM991 1708q56 4 79.5 -44t0 -96t-79.5 -44q-38 0 -66 27t-28 65q0 39 26.5 65.5t67.5 26.5z" />
    <glyph glyph-name="multiply" unicode="&#xd7;" horiz-adv-x="839" 
d="M418 803l276 274l86 -88l-274 -276l274 -275l-86 -84l-272 275l-277 -275l-86 86l275 277l-275 274l84 86z" />
    <glyph glyph-name="Oslash" unicode="&#xd8;" horiz-adv-x="1624" 
d="M813 1460q159 0 299 -61l88 160l111 -54l-90 -164q149 -101 233 -264t84 -358q0 -322 -205 -533q-207 -213 -520 -213q-164 0 -307 64l-90 -168l-111 53l94 172q-148 98 -230.5 262.5t-82.5 362.5q0 317 205 528q207 213 522 213zM1397 719q0 159 -63.5 291.5
t-176.5 214.5l-588 -1075q109 -50 244 -50q254 0 418 176q166 175 166 443zM813 1333q-255 0 -422 -176q-164 -176 -164 -438q0 -159 61.5 -290t174.5 -216l588 1071q-113 49 -238 49z" />
    <glyph glyph-name="Ugrave" unicode="&#xd9;" horiz-adv-x="1400" 
d="M1116 1434h137v-873q0 -287 -143.5 -437.5t-409.5 -150.5q-264 0 -407 150.5t-143 437.5v873h135v-873q0 -461 415 -461q416 0 416 461v873zM371 1708h200l220 -211h-162z" />
    <glyph glyph-name="Uacute" unicode="&#xda;" horiz-adv-x="1400" 
d="M1116 1434h137v-873q0 -287 -143.5 -437.5t-409.5 -150.5q-264 0 -407 150.5t-143 437.5v873h135v-873q0 -461 415 -461q416 0 416 461v873zM819 1708h201l-256 -211h-164z" />
    <glyph glyph-name="Ucircumflex" unicode="&#xdb;" horiz-adv-x="1400" 
d="M655 1710h95l280 -215h-180l-150 117l-149 -117h-178zM1116 1434h137v-873q0 -287 -143.5 -437.5t-409.5 -150.5q-264 0 -407 150.5t-143 437.5v873h135v-873q0 -461 415 -461q416 0 416 461v873z" />
    <glyph glyph-name="Udieresis" unicode="&#xdc;" horiz-adv-x="1400" 
d="M516 1688q56 4 79.5 -44t0 -96.5t-79.5 -44.5q-38 0 -66 27t-28 65q0 39 26.5 66t67.5 27zM881 1688q56 4 79.5 -44t0 -96.5t-79.5 -44.5q-39 0 -67 27t-28 65q0 39 27 66t68 27zM1116 1434h137v-873q0 -287 -143.5 -437.5t-409.5 -150.5q-264 0 -407 150.5t-143 437.5
v873h135v-873q0 -461 415 -461q416 0 416 461v873z" />
    <glyph glyph-name="Yacute" unicode="&#xdd;" horiz-adv-x="1366" 
d="M1171 1434h160l-579 -885v-549h-138v549l-579 885h160l430 -656l57 -96l57 96zM801 1708h200l-256 -211h-163z" />
    <glyph glyph-name="Thorn" unicode="&#xde;" horiz-adv-x="1124" 
d="M168 1434h135v-236h295q203 0 321.5 -108t118.5 -289t-118.5 -287t-321.5 -106h-295v-408h-135v1434zM598 1069h-295v-532h295q141 0 223 70t82 194t-82 196t-223 72z" />
    <glyph glyph-name="germandbls" unicode="&#xdf;" horiz-adv-x="1105" 
d="M549 1499v-125q-123 0 -183.5 -65t-60.5 -205v-76h680v-104l-342 -496q209 -15 324 -139q116 -125 116 -293q0 -210 -124.5 -328.5t-354.5 -118.5q-71 0 -168 17l13 131q97 -23 147 -23q172 0 263 81.5t91 240.5q0 145 -101.5 229t-270.5 84h-97v84l350 514h-526v-907
h-133v1104q0 395 377 395z" />
    <glyph glyph-name="agrave" unicode="&#xe0;" horiz-adv-x="987" 
d="M489 1051q170 0 261.5 -95.5t91.5 -269.5v-686h-123l-4 150q-43 -76 -130 -124.5t-196 -48.5q-133 0 -212 75.5t-79 199.5q0 234 279 293l334 69v68q0 248 -222 248q-106 0 -169.5 -57.5t-63.5 -163.5h-129q3 150 100 243q102 99 262 99zM711 412v86l-310 -68
q-89 -21 -130.5 -61t-41.5 -115q0 -74 46.5 -115t130.5 -41q148 0 237 111q68 89 68 203zM152 1499h165l250 -323h-135z" />
    <glyph glyph-name="aacute" unicode="&#xe1;" horiz-adv-x="987" 
d="M489 1051q170 0 261.5 -95.5t91.5 -269.5v-686h-123l-4 150q-43 -76 -130 -124.5t-196 -48.5q-133 0 -212 75.5t-79 199.5q0 234 279 293l334 69v68q0 248 -222 248q-106 0 -169.5 -57.5t-63.5 -163.5h-129q3 150 100 243q102 99 262 99zM711 412v86l-310 -68
q-89 -21 -130.5 -61t-41.5 -115q0 -74 46.5 -115t130.5 -41q148 0 237 111q68 89 68 203zM664 1499h165l-280 -323h-135z" />
    <glyph glyph-name="acircumflex" unicode="&#xe2;" horiz-adv-x="987" 
d="M489 1051q170 0 261.5 -95.5t91.5 -269.5v-686h-123l-4 150q-43 -76 -130 -124.5t-196 -48.5q-133 0 -212 75.5t-79 199.5q0 234 279 293l334 69v68q0 248 -222 248q-106 0 -169.5 -57.5t-63.5 -163.5h-129q3 150 100 243q102 99 262 99zM711 412v86l-310 -68
q-89 -21 -130.5 -61t-41.5 -115q0 -74 46.5 -115t130.5 -41q148 0 237 111q68 89 68 203zM459 1499h71l275 -323h-150l-159 202l-162 -202h-150z" />
    <glyph glyph-name="atilde" unicode="&#xe3;" horiz-adv-x="987" 
d="M489 1051q170 0 261.5 -95.5t91.5 -269.5v-686h-123l-4 150q-43 -76 -130 -124.5t-196 -48.5q-133 0 -212 75.5t-79 199.5q0 234 279 293l334 69v68q0 248 -222 248q-106 0 -169.5 -57.5t-63.5 -163.5h-129q3 150 100 243q102 99 262 99zM711 412v86l-310 -68
q-89 -21 -130.5 -61t-41.5 -115q0 -74 46.5 -115t130.5 -41q148 0 237 111q68 89 68 203zM379 1430q44 0 77.5 -16.5t54 -39.5t38 -46t39 -39.5t47.5 -16.5q94 0 94 139h98q0 -113 -51 -179.5t-147 -66.5q-45 0 -79 16.5t-54.5 40t-38 47t-39 40t-47.5 16.5q-95 0 -95 -141
h-98q0 115 51.5 180.5t149.5 65.5z" />
    <glyph glyph-name="adieresis" unicode="&#xe4;" horiz-adv-x="987" 
d="M489 1051q170 0 261.5 -95.5t91.5 -269.5v-686h-123l-4 150q-43 -76 -130 -124.5t-196 -48.5q-133 0 -212 75.5t-79 199.5q0 234 279 293l334 69v68q0 248 -222 248q-106 0 -169.5 -57.5t-63.5 -163.5h-129q3 150 100 243q102 99 262 99zM711 412v86l-310 -68
q-89 -21 -130.5 -61t-41.5 -115q0 -74 46.5 -115t130.5 -41q148 0 237 111q68 89 68 203zM246 1358q29 29 68 29t65 -29q26 -26 26 -65.5t-26 -65.5t-65 -26t-68 26q-26 26 -26 65.5t26 65.5zM610 1358q29 29 68 29t65 -29q26 -26 26 -65.5t-26 -65.5t-65 -26t-68 26
q-26 26 -26 65.5t26 65.5z" />
    <glyph glyph-name="aring" unicode="&#xe5;" horiz-adv-x="987" 
d="M489 1051q170 0 261.5 -95.5t91.5 -269.5v-686h-123l-4 150q-43 -76 -130 -124.5t-196 -48.5q-133 0 -212 75.5t-79 199.5q0 234 279 293l334 69v68q0 248 -222 248q-106 0 -169.5 -57.5t-63.5 -163.5h-129q3 150 100 243q102 99 262 99zM711 412v86l-310 -68
q-89 -21 -130.5 -61t-41.5 -115q0 -74 46.5 -115t130.5 -41q148 0 237 111q68 89 68 203zM711 1343q0 -87 -58.5 -143.5t-150.5 -56.5t-150.5 56.5t-58.5 143.5q0 91 58.5 149t150.5 58t150.5 -58t58.5 -149zM389 1346q0 -45 33 -79t80 -34q48 0 80 33.5t32 79.5
q0 50 -31 81t-81 31q-49 0 -81 -32t-32 -80z" />
    <glyph glyph-name="ae" unicode="&#xe6;" horiz-adv-x="1761" 
d="M1192 1051q214 0 340.5 -135.5t126.5 -378.5v-72h-817q7 -166 106 -266.5t250 -100.5q242 0 315 193h134q-48 -150 -164 -232t-287 -82q-139 0 -248.5 65t-171.5 183q-60 -121 -159 -184.5t-218 -63.5q-139 0 -220 75.5t-81 199.5q0 234 281 293l332 67v68
q0 250 -224 250q-105 0 -168 -57.5t-63 -163.5h-129q3 148 98 243q99 99 262 99q243 0 322 -193q135 193 383 193zM1192 930q-147 0 -242.5 -96.5t-107.5 -251.5h686q0 161 -91 254.5t-245 93.5zM711 401v97l-293 -64q-101 -24 -145 -65t-44 -117q0 -71 47 -112.5t136 -41.5
q147 0 229 107q70 91 70 196z" />
    <glyph glyph-name="ccedilla" unicode="&#xe7;" horiz-adv-x="1099" 
d="M565 1051q169 0 288.5 -84t160.5 -236h-133q-32 93 -117 146t-197 53q-157 0 -258 -119q-102 -120 -102 -299q0 -175 102 -295q104 -119 260 -119q111 0 195.5 53.5t116.5 145.5h133q-41 -145 -150 -227t-264 -90l-27 -109h23q78 0 126 -45.5t48 -120.5q0 -80 -57 -128
t-146 -48q-124 0 -190 78l59 74q51 -60 131 -60q47 0 77 22.5t30 59.5q0 38 -25 60t-67 22q-22 0 -74 -10l-45 14l49 193q-192 18 -315 165q-121 151 -121 365q0 236 137 385q139 154 352 154z" />
    <glyph glyph-name="egrave" unicode="&#xe8;" horiz-adv-x="1126" 
d="M557 1051q214 0 340.5 -135.5t126.5 -378.5v-72h-817q7 -166 106 -266.5t250 -100.5q243 0 316 193h133q-48 -150 -164 -232t-287 -82q-211 0 -350 148q-135 147 -135 387q0 238 131 387q134 152 350 152zM557 930q-147 0 -242.5 -96.5t-107.5 -251.5h686
q0 161 -91 254.5t-245 93.5zM207 1499h166l250 -323h-136z" />
    <glyph glyph-name="eacute" unicode="&#xe9;" horiz-adv-x="1126" 
d="M557 1051q214 0 340.5 -135.5t126.5 -378.5v-72h-817q7 -166 106 -266.5t250 -100.5q243 0 316 193h133q-48 -150 -164 -232t-287 -82q-211 0 -350 148q-135 147 -135 387q0 238 131 387q134 152 350 152zM557 930q-147 0 -242.5 -96.5t-107.5 -251.5h686
q0 161 -91 254.5t-245 93.5zM719 1499h166l-281 -323h-135z" />
    <glyph glyph-name="ecircumflex" unicode="&#xea;" horiz-adv-x="1126" 
d="M557 1051q214 0 340.5 -135.5t126.5 -378.5v-72h-817q7 -166 106 -266.5t250 -100.5q243 0 316 193h133q-48 -150 -164 -232t-287 -82q-211 0 -350 148q-135 147 -135 387q0 238 131 387q134 152 350 152zM557 930q-147 0 -242.5 -96.5t-107.5 -251.5h686
q0 161 -91 254.5t-245 93.5zM514 1499h72l274 -323h-149l-160 202l-162 -202h-149z" />
    <glyph glyph-name="edieresis" unicode="&#xeb;" horiz-adv-x="1126" 
d="M557 1051q214 0 340.5 -135.5t126.5 -378.5v-72h-817q7 -166 106 -266.5t250 -100.5q243 0 316 193h133q-48 -150 -164 -232t-287 -82q-211 0 -350 148q-135 147 -135 387q0 238 131 387q134 152 350 152zM557 930q-147 0 -242.5 -96.5t-107.5 -251.5h686
q0 161 -91 254.5t-245 93.5zM313 1358q29 29 68 29t65 -29q26 -26 26 -65.5t-26 -65.5t-65 -26t-68 26q-26 26 -26 65.5t26 65.5zM678 1358q29 29 68 29t65 -29q26 -26 26 -65.5t-26 -65.5t-65 -26t-68 26q-26 26 -26 65.5t26 65.5z" />
    <glyph glyph-name="igrave" unicode="&#xec;" 
d="M-106 1499h165l250 -323h-135zM172 1028h129v-1028h-129v1028z" />
    <glyph glyph-name="iacute" unicode="&#xed;" 
d="M403 1499h166l-280 -323h-135zM172 1028h129v-1028h-129v1028z" />
    <glyph glyph-name="icircumflex" unicode="&#xee;" 
d="M201 1499h71l275 -323h-150l-159 202l-162 -202h-150zM172 1028h129v-1028h-129v1028z" />
    <glyph glyph-name="idieresis" unicode="&#xef;" 
d="M-12 1358q29 29 68 29t65 -29q26 -26 26 -65.5t-26 -65.5t-65.5 -26t-65.5 26q-29 26 -29 65t27 66zM352 1358q29 29 68 29t65 -29q26 -26 26 -65.5t-26 -65.5t-65 -26t-68 26q-26 26 -26 65.5t26 65.5zM172 1028h129v-1028h-129v1028z" />
    <glyph glyph-name="eth" unicode="&#xf0;" horiz-adv-x="1124" 
d="M537 1278h305v-121h-205l270 -328q137 -162 137 -358q0 -213 -135 -354q-134 -140 -346 -140q-214 0 -348 140q-133 139 -133 354q0 213 133 352q134 140 348 140q8 0 18.5 -1t26 -2t27.5 -2l-164 199h-311v121h213l-178 217h163zM913 471q0 152 -104 277q-94 94 -246 94
q-155 0 -254 -105q-96 -107 -96 -266q0 -158 96 -268q98 -107 254 -107q158 0 252 107q98 107 98 268z" />
    <glyph glyph-name="ntilde" unicode="&#xf1;" horiz-adv-x="1071" 
d="M434 1430q44 0 77.5 -16.5t54 -39.5t38 -46t39 -39.5t47.5 -16.5q94 0 94 139h99q0 -113 -51.5 -179.5t-147.5 -66.5q-45 0 -79 16.5t-54.5 40t-38 47t-39 40t-47.5 16.5q-94 0 -94 -141h-99q0 115 51.5 180.5t149.5 65.5zM584 1051q159 0 247.5 -105.5t88.5 -281.5v-664
h-129v651q0 132 -60.5 203.5t-167.5 71.5q-119 0 -194.5 -97.5t-75.5 -257.5v-571h-129v1028h119l6 -156q32 75 113 127t182 52z" />
    <glyph glyph-name="ograve" unicode="&#xf2;" horiz-adv-x="1173" 
d="M217 899q146 152 371 152t368 -152q142 -151 142 -385t-142 -385q-143 -152 -368 -152t-371 152q-141 150 -141 385t141 385zM590 930q-172 0 -279 -119q-104 -116 -104 -297q0 -180 104 -299q108 -117 279 -117q170 0 272 117q105 120 105 299q0 180 -105 297
q-101 119 -272 119zM244 1499h166l249 -323h-135z" />
    <glyph glyph-name="oacute" unicode="&#xf3;" horiz-adv-x="1173" 
d="M217 899q146 152 371 152t368 -152q142 -151 142 -385t-142 -385q-143 -152 -368 -152t-371 152q-141 150 -141 385t141 385zM590 930q-172 0 -279 -119q-104 -116 -104 -297q0 -180 104 -299q108 -117 279 -117q170 0 272 117q105 120 105 299q0 180 -105 297
q-101 119 -272 119zM754 1499h166l-281 -323h-135z" />
    <glyph glyph-name="ocircumflex" unicode="&#xf4;" horiz-adv-x="1173" 
d="M549 1499h72l274 -323h-150l-159 202l-162 -202h-150zM217 899q146 152 371 152t368 -152q142 -151 142 -385t-142 -385q-143 -152 -368 -152t-371 152q-141 150 -141 385t141 385zM590 930q-172 0 -279 -119q-104 -116 -104 -297q0 -180 104 -299q108 -117 279 -117
q170 0 272 117q105 120 105 299q0 180 -105 297q-101 119 -272 119z" />
    <glyph glyph-name="otilde" unicode="&#xf5;" horiz-adv-x="1173" 
d="M463 1430q44 0 77.5 -16.5t54 -39.5t38 -46t39 -39.5t47.5 -16.5q94 0 94 139h98q0 -113 -51 -179.5t-147 -66.5q-45 0 -79 16.5t-54.5 40t-38 47t-39 40t-47.5 16.5q-95 0 -95 -141h-98q0 115 51.5 180.5t149.5 65.5zM217 899q146 152 371 152t368 -152
q142 -151 142 -385t-142 -385q-143 -152 -368 -152t-371 152q-141 150 -141 385t141 385zM590 930q-172 0 -279 -119q-104 -116 -104 -297q0 -180 104 -299q108 -117 279 -117q170 0 272 117q105 120 105 299q0 180 -105 297q-101 119 -272 119z" />
    <glyph glyph-name="odieresis" unicode="&#xf6;" horiz-adv-x="1173" 
d="M217 899q146 152 371 152t368 -152q142 -151 142 -385t-142 -385q-143 -152 -368 -152t-371 152q-141 150 -141 385t141 385zM590 930q-172 0 -279 -119q-104 -116 -104 -297q0 -180 104 -299q108 -117 279 -117q170 0 272 117q105 120 105 299q0 180 -105 297
q-101 119 -272 119zM336 1358q29 29 68 29t65 -29q26 -26 26 -65.5t-26 -65.5t-65 -26t-68 26q-26 26 -26 65.5t26 65.5zM700 1358q29 29 68.5 29t65.5 -29q26 -26 26 -65.5t-26 -65.5t-65.5 -26t-68.5 26q-26 26 -26 65.5t26 65.5z" />
    <glyph glyph-name="divide" unicode="&#xf7;" horiz-adv-x="966" 
d="M571 1079q0 -41 -29.5 -69.5t-72.5 -28.5t-71.5 28.5t-28.5 69.5q0 43 28.5 72t71.5 29t72.5 -29t29.5 -72zM369 352q0 42 29 71.5t71 29.5q43 0 72.5 -29t29.5 -72q0 -42 -29.5 -70t-72.5 -28t-71.5 27.5t-28.5 70.5zM61 776h844v-119h-844v119z" />
    <glyph glyph-name="oslash" unicode="&#xf8;" horiz-adv-x="1173" 
d="M588 1051q109 0 209 -41l80 149l90 -43l-82 -155q213 -151 213 -447q0 -234 -142 -385q-143 -152 -368 -152q-112 0 -207 39l-80 -149l-92 45l82 154q-103 72 -159 189t-56 259q0 235 141 385q146 152 371 152zM590 930q-172 0 -279 -119q-104 -116 -104 -297
q0 -215 145 -336l385 723q-73 29 -147 29zM967 514q0 217 -144 334l-385 -721q76 -29 152 -29q170 0 272 117q105 120 105 299z" />
    <glyph glyph-name="ugrave" unicode="&#xf9;" horiz-adv-x="1058" 
d="M766 1028h129v-1028h-121l-4 154q-32 -76 -111 -126.5t-180 -50.5q-159 0 -245.5 104t-86.5 284v663h129v-651q0 -134 59.5 -205.5t166.5 -71.5q118 0 191 94.5t73 251.5v582zM182 1499h166l250 -323h-135z" />
    <glyph glyph-name="uacute" unicode="&#xfa;" horiz-adv-x="1058" 
d="M766 1028h129v-1028h-121l-4 154q-32 -76 -111 -126.5t-180 -50.5q-159 0 -245.5 104t-86.5 284v663h129v-651q0 -134 59.5 -205.5t166.5 -71.5q118 0 191 94.5t73 251.5v582zM694 1499h166l-280 -323h-136z" />
    <glyph glyph-name="ucircumflex" unicode="&#xfb;" horiz-adv-x="1058" 
d="M487 1499h72l275 -323h-150l-160 202l-162 -202h-149zM766 1028h129v-1028h-121l-4 154q-32 -76 -111 -126.5t-180 -50.5q-159 0 -245.5 104t-86.5 284v663h129v-651q0 -134 59.5 -205.5t166.5 -71.5q118 0 191 94.5t73 251.5v582z" />
    <glyph glyph-name="udieresis" unicode="&#xfc;" horiz-adv-x="1058" 
d="M766 1028h129v-1028h-121l-4 154q-32 -76 -111 -126.5t-180 -50.5q-159 0 -245.5 104t-86.5 284v663h129v-651q0 -134 59.5 -205.5t166.5 -71.5q118 0 191 94.5t73 251.5v582zM274 1358q29 29 68.5 29t65.5 -29q26 -26 26 -65.5t-26 -65.5t-65.5 -26t-68.5 26
q-26 26 -26 65.5t26 65.5zM639 1358q29 29 68 29t65 -29q26 -26 26 -65.5t-26 -65.5t-65 -26t-68 26q-26 26 -26 65.5t26 65.5z" />
    <glyph glyph-name="yacute" unicode="&#xfd;" horiz-adv-x="1013" 
d="M836 1028h139l-580 -1468h-137l180 456l-399 1012h137l309 -797l21 -71l22 71zM674 1499h166l-281 -323h-135z" />
    <glyph glyph-name="thorn" unicode="&#xfe;" horiz-adv-x="1230" 
d="M182 1495h131v-637q46 81 144.5 137t220.5 56q217 0 348 -152q129 -150 129 -385q0 -236 -131 -385q-134 -152 -350 -152q-125 0 -220.5 54.5t-140.5 140.5v-612h-131v1935zM666 928q-148 0 -252 -101q-103 -103 -103 -274v-64q0 -177 103 -286q102 -105 248 -105
q160 0 262 117q100 115 100 299t-98 297q-94 117 -260 117z" />
    <glyph glyph-name="ydieresis" unicode="&#xff;" horiz-adv-x="1013" 
d="M836 1028h139l-580 -1468h-137l180 456l-399 1012h137l309 -797l21 -71l22 71zM256 1358q29 29 68 29t65 -29q26 -26 26 -65.5t-26 -65.5t-65 -26t-68 26q-26 26 -26 65.5t26 65.5zM621 1358q29 29 68 29t65 -29q26 -26 26 -65.5t-26 -65.5t-65 -26t-68 26
q-26 26 -26 65.5t26 65.5z" />
    <glyph glyph-name="Amacron" unicode="&#x100;" horiz-adv-x="1382" 
d="M717 1171l-27 76l-26 -76l-258 -626h569zM627 1434h129l587 -1434h-151l-170 416h-664l-165 -416h-152zM430 1632h518v-110h-518v110z" />
    <glyph glyph-name="amacron" unicode="&#x101;" horiz-adv-x="987" 
d="M489 1051q170 0 261.5 -95.5t91.5 -269.5v-686h-123l-4 150q-43 -76 -130 -124.5t-196 -48.5q-133 0 -212 75.5t-79 199.5q0 234 279 293l334 69v68q0 248 -222 248q-106 0 -169.5 -57.5t-63.5 -163.5h-129q3 150 100 243q102 99 262 99zM711 412v86l-310 -68
q-89 -21 -130.5 -61t-41.5 -115q0 -74 46.5 -115t130.5 -41q148 0 237 111q68 89 68 203zM252 1341h518v-112h-518v112z" />
    <glyph glyph-name="Abreve" unicode="&#x102;" horiz-adv-x="1382" 
d="M717 1171l-27 76l-26 -76l-258 -626h569zM627 1434h129l587 -1434h-151l-170 416h-664l-165 -416h-152zM850 1726h117q0 -104 -77 -168.5t-200 -64.5q-124 0 -201 64.5t-77 168.5h114q0 -60 44.5 -95.5t119.5 -35.5q73 0 116.5 35.5t43.5 95.5z" />
    <glyph glyph-name="abreve" unicode="&#x103;" horiz-adv-x="987" 
d="M489 1051q170 0 261.5 -95.5t91.5 -269.5v-686h-123l-4 150q-43 -76 -130 -124.5t-196 -48.5q-133 0 -212 75.5t-79 199.5q0 234 279 293l334 69v68q0 248 -222 248q-106 0 -169.5 -57.5t-63.5 -163.5h-129q3 150 100 243q102 99 262 99zM711 412v86l-310 -68
q-89 -21 -130.5 -61t-41.5 -115q0 -74 46.5 -115t130.5 -41q148 0 237 111q68 89 68 203zM666 1444h114q0 -118 -77 -195.5t-199 -77.5q-124 0 -201.5 77t-77.5 196h115q0 -75 45 -122.5t119 -47.5q71 0 116.5 48.5t45.5 121.5z" />
    <glyph glyph-name="Aogonek" unicode="&#x104;" horiz-adv-x="1382" 
d="M627 1434h129l587 -1434h-28q-123 -62 -123 -172q0 -60 31.5 -92.5t87.5 -32.5q51 0 88 18l28 -92q-43 -24 -120 -24q-95 0 -156 60t-61 161q0 117 94 190l-162 400h-664l-165 -416h-152zM717 1171l-27 76l-26 -76l-258 -626h569z" />
    <glyph glyph-name="aogonek" unicode="&#x105;" horiz-adv-x="987" 
d="M489 1051q170 0 261.5 -95.5t91.5 -269.5v-686h-8q-123 -62 -123 -172q0 -60 31 -92.5t87 -32.5q51 0 89 18l28 -92q-44 -24 -121 -24q-95 0 -156 60t-61 161q0 127 109 201l-2 123q-43 -76 -130 -124.5t-196 -48.5q-133 0 -212 75.5t-79 199.5q0 234 279 293l334 69v68
q0 248 -222 248q-106 0 -169.5 -57.5t-63.5 -163.5h-129q3 150 100 243q102 99 262 99zM711 412v86l-310 -68q-89 -21 -130.5 -61t-41.5 -115q0 -74 46.5 -115t130.5 -41q148 0 237 111q68 89 68 203z" />
    <glyph glyph-name="Cacute" unicode="&#x106;" horiz-adv-x="1480" 
d="M791 1460q236 0 399 -114t225 -318h-151q-51 144 -171.5 224.5t-301.5 80.5q-247 0 -406 -176q-158 -178 -158 -440q0 -265 158 -443q158 -174 406 -174q181 0 302.5 82.5t172.5 227.5h151q-63 -210 -224.5 -323.5t-401.5 -113.5q-307 0 -506 211t-199 533q0 319 199 530
q201 213 506 213zM907 1729h201l-256 -211h-164z" />
    <glyph glyph-name="cacute" unicode="&#x107;" horiz-adv-x="1099" 
d="M565 1051q169 0 288.5 -84t160.5 -236h-133q-32 93 -117 146t-197 53q-157 0 -258 -119q-102 -120 -102 -299q0 -175 102 -295q104 -119 260 -119q111 0 195.5 53.5t116.5 145.5h133q-42 -152 -161.5 -236t-287.5 -84q-212 0 -352 152q-137 152 -137 383q0 236 137 385
q139 154 352 154zM733 1499h166l-281 -323h-135z" />
    <glyph glyph-name="Ccircumflex" unicode="&#x108;" horiz-adv-x="1480" 
d="M791 1460q236 0 399 -114t225 -318h-151q-51 144 -171.5 224.5t-301.5 80.5q-247 0 -406 -176q-158 -178 -158 -440q0 -265 158 -443q158 -174 406 -174q181 0 302.5 82.5t172.5 227.5h151q-63 -210 -224.5 -323.5t-401.5 -113.5q-307 0 -506 211t-199 533q0 319 199 530
q201 213 506 213zM743 1731h95l280 -215h-180l-150 116l-149 -116h-178z" />
    <glyph glyph-name="ccircumflex" unicode="&#x109;" horiz-adv-x="1099" 
d="M565 1051q169 0 288.5 -84t160.5 -236h-133q-32 93 -117 146t-197 53q-157 0 -258 -119q-102 -120 -102 -299q0 -175 102 -295q104 -119 260 -119q111 0 195.5 53.5t116.5 145.5h133q-42 -152 -161.5 -236t-287.5 -84q-212 0 -352 152q-137 152 -137 383q0 236 137 385
q139 154 352 154zM528 1499h72l274 -323h-149l-160 202l-162 -202h-149z" />
    <glyph glyph-name="Cdotaccent" unicode="&#x10a;" horiz-adv-x="1480" 
d="M791 1460q236 0 399 -114t225 -318h-151q-51 144 -171.5 224.5t-301.5 80.5q-247 0 -406 -176q-158 -178 -158 -440q0 -265 158 -443q158 -174 406 -174q181 0 302.5 82.5t172.5 227.5h151q-63 -210 -224.5 -323.5t-401.5 -113.5q-307 0 -506 211t-199 533q0 319 199 530
q201 213 506 213zM788 1718q39 0 68 -28t29 -68q0 -41 -28 -68.5t-69 -27.5t-69.5 27.5t-28.5 68.5t28.5 68.5t69.5 27.5z" />
    <glyph glyph-name="cdotaccent" unicode="&#x10b;" horiz-adv-x="1099" 
d="M565 1051q169 0 288.5 -84t160.5 -236h-133q-32 93 -117 146t-197 53q-157 0 -258 -119q-102 -120 -102 -299q0 -175 102 -295q104 -119 260 -119q111 0 195.5 53.5t116.5 145.5h133q-42 -152 -161.5 -236t-287.5 -84q-212 0 -352 152q-137 152 -137 383q0 236 137 385
q139 154 352 154zM494 1380q31 31 71.5 31t69.5 -31q31 -29 31 -69.5t-31 -69.5q-29 -29 -69.5 -29t-71.5 29q-29 29 -29 69.5t29 69.5z" />
    <glyph glyph-name="Ccaron" unicode="&#x10c;" horiz-adv-x="1480" 
d="M791 1460q236 0 399 -114t225 -318h-151q-51 144 -171.5 224.5t-301.5 80.5q-247 0 -406 -176q-158 -178 -158 -440q0 -265 158 -443q158 -174 406 -174q181 0 302.5 82.5t172.5 227.5h151q-63 -210 -224.5 -323.5t-401.5 -113.5q-307 0 -506 211t-199 533q0 319 199 530
q201 213 506 213zM938 1724h180l-280 -215h-95l-282 215h178l149 -114z" />
    <glyph glyph-name="ccaron" unicode="&#x10d;" horiz-adv-x="1099" 
d="M565 1051q169 0 288.5 -84t160.5 -236h-133q-32 93 -117 146t-197 53q-157 0 -258 -119q-102 -120 -102 -299q0 -175 102 -295q104 -119 260 -119q111 0 195.5 53.5t116.5 145.5h133q-42 -152 -161.5 -236t-287.5 -84q-212 0 -352 152q-137 152 -137 383q0 236 137 385
q139 154 352 154zM725 1475h149l-274 -324h-72l-274 324h149l162 -203z" />
    <glyph glyph-name="Dcaron" unicode="&#x10e;" horiz-adv-x="1488" 
d="M829 1704h181l-281 -215h-94l-283 215h178l150 -115zM168 1434h504q330 0 524 -197q197 -194 197 -520q0 -325 -197 -522q-195 -195 -524 -195h-504v1434zM672 1307h-369v-1180h369q266 0 424 158q159 156 159 432q0 273 -157 430q-157 160 -426 160z" />
    <glyph glyph-name="dcaron" unicode="&#x10f;" horiz-adv-x="1452" 
d="M920 1495h127v-1495h-119l-4 174q-47 -84 -146 -140.5t-223 -56.5q-216 0 -350 152q-129 150 -129 385q0 236 131 385q134 152 350 152q124 0 222 -55.5t141 -139.5v639zM569 928q-160 0 -262 -117q-100 -115 -100 -297q0 -183 98 -299q99 -117 262 -117q146 0 248 105
q105 108 105 282v43q0 183 -105 291q-103 109 -246 109zM1317 1468q45 0 75.5 -31.5t30.5 -80.5q0 -179 -139 -344l-47 20q61 107 76 230q-44 5 -71.5 32.5t-27.5 69.5q0 43 30 73.5t73 30.5z" />
    <glyph glyph-name="Dcroat" unicode="&#x110;" horiz-adv-x="1507" 
d="M186 1434h504q330 0 524 -197q197 -194 197 -520q0 -325 -197 -522q-195 -195 -524 -195h-504v657h-190v113h190v664zM690 1307h-368v-537h303v-113h-303v-530h368q268 0 426 158t158 432q0 272 -158 430q-157 160 -426 160z" />
    <glyph glyph-name="dslash" unicode="&#x111;" horiz-adv-x="1220" 
d="M920 1495h127v-139h163v-109h-163v-1247h-119l-4 174q-47 -84 -146 -140.5t-223 -56.5q-216 0 -350 152q-129 150 -129 385q0 236 131 385q134 152 350 152q124 0 222 -55.5t141 -139.5v391h-230v109h230v139zM569 928q-160 0 -262 -117q-100 -115 -100 -297
q0 -183 98 -299q99 -117 262 -117q146 0 248 105q105 108 105 282v43q0 183 -105 291q-103 109 -246 109z" />
    <glyph glyph-name="Emacron" unicode="&#x112;" horiz-adv-x="1034" 
d="M168 1434h770v-127h-635v-504h563v-127h-563v-549h635v-127h-770v1434zM303 1632h518v-110h-518v110z" />
    <glyph glyph-name="emacron" unicode="&#x113;" horiz-adv-x="1126" 
d="M557 1051q214 0 340.5 -135.5t126.5 -378.5v-72h-817q7 -166 106 -266.5t250 -100.5q243 0 316 193h133q-48 -150 -164 -232t-287 -82q-211 0 -350 148q-135 147 -135 387q0 238 131 387q134 152 350 152zM557 930q-147 0 -242.5 -96.5t-107.5 -251.5h686
q0 161 -91 254.5t-245 93.5zM293 1341h518v-112h-518v112z" />
    <glyph glyph-name="Ebreve" unicode="&#x114;" horiz-adv-x="1034" 
d="M168 1434h770v-127h-635v-504h563v-127h-563v-549h635v-127h-770v1434zM725 1726h117q0 -104 -77 -168.5t-200 -64.5q-124 0 -201 64.5t-77 168.5h114q0 -60 44.5 -95.5t119.5 -35.5q73 0 116.5 35.5t43.5 95.5z" />
    <glyph glyph-name="ebreve" unicode="&#x115;" horiz-adv-x="1126" 
d="M557 1051q214 0 340.5 -135.5t126.5 -378.5v-72h-817q7 -166 106 -266.5t250 -100.5q243 0 316 193h133q-48 -150 -164 -232t-287 -82q-211 0 -350 148q-135 147 -135 387q0 238 131 387q134 152 350 152zM557 930q-147 0 -242.5 -96.5t-107.5 -251.5h686
q0 161 -91 254.5t-245 93.5zM713 1444h114q0 -118 -77.5 -195.5t-198.5 -77.5q-124 0 -201.5 77t-77.5 196h115q0 -75 45 -122.5t119 -47.5q71 0 116.5 48.5t45.5 121.5z" />
    <glyph glyph-name="Edotaccent" unicode="&#x116;" horiz-adv-x="1034" 
d="M168 1434h770v-127h-635v-504h563v-127h-563v-549h635v-127h-770v1434zM567 1698q39 0 68 -28t29 -68q0 -41 -28 -69t-69 -28t-69.5 28t-28.5 69t28.5 68.5t69.5 27.5z" />
    <glyph glyph-name="edotaccent" unicode="&#x117;" horiz-adv-x="1126" 
d="M557 1051q214 0 340.5 -135.5t126.5 -378.5v-72h-817q7 -166 106 -266.5t250 -100.5q243 0 316 193h133q-48 -150 -164 -232t-287 -82q-211 0 -350 148q-135 147 -135 387q0 238 131 387q134 152 350 152zM557 930q-147 0 -242.5 -96.5t-107.5 -251.5h686
q0 161 -91 254.5t-245 93.5zM479 1380q31 31 72 31t70 -31q31 -29 31 -69.5t-31 -69.5q-29 -29 -70 -29t-72 29q-29 29 -29 69.5t29 69.5z" />
    <glyph glyph-name="Eogonek" unicode="&#x118;" horiz-adv-x="1034" 
d="M168 1434h770v-127h-635v-504h563v-127h-563v-549h635v-127h-86q-123 -62 -123 -172q0 -60 31.5 -92.5t87.5 -32.5q50 0 88 18l29 -92q-43 -24 -121 -24q-95 0 -156 60t-61 161q0 105 75 174h-534v1434z" />
    <glyph glyph-name="eogonek" unicode="&#x119;" horiz-adv-x="1126" 
d="M557 1051q214 0 340.5 -135.5t126.5 -378.5v-72h-817q7 -166 106 -266.5t250 -100.5q243 0 316 193h133q-59 -190 -221 -266q-78 -54 -78 -146q0 -60 31 -92.5t87 -32.5q49 0 89 19l28 -92q-45 -25 -121 -25q-95 0 -156 60t-61 161q0 54 23 105q-12 -1 -27.5 -2t-26 -2
t-18.5 -1q-211 0 -350 148q-135 147 -135 387q0 238 131 387q134 152 350 152zM557 930q-147 0 -242.5 -96.5t-107.5 -251.5h686q0 161 -91 254.5t-245 93.5z" />
    <glyph glyph-name="Ecaron" unicode="&#x11a;" horiz-adv-x="1034" 
d="M715 1704h180l-281 -215h-94l-282 215h178l149 -115zM168 1434h770v-127h-635v-504h563v-127h-563v-549h635v-127h-770v1434z" />
    <glyph glyph-name="ecaron" unicode="&#x11b;" horiz-adv-x="1126" 
d="M557 1051q214 0 340.5 -135.5t126.5 -378.5v-72h-817q7 -166 106 -266.5t250 -100.5q243 0 316 193h133q-48 -150 -164 -232t-287 -82q-211 0 -350 148q-135 147 -135 387q0 238 131 387q134 152 350 152zM557 930q-147 0 -242.5 -96.5t-107.5 -251.5h686
q0 161 -91 254.5t-245 93.5zM711 1475h149l-274 -324h-72l-274 324h149l162 -203z" />
    <glyph glyph-name="Gcircumflex" unicode="&#x11c;" horiz-adv-x="1531" 
d="M791 1460q236 0 399 -114t225 -318h-151q-51 144 -171.5 224.5t-301.5 80.5q-247 0 -406 -176q-158 -178 -158 -440q0 -265 158 -443q158 -174 408 -174q234 0 368 123.5t135 362.5h-475v129h617v-82q0 -307 -170 -483q-171 -177 -475 -177q-309 0 -508 211t-199 533
q0 319 199 530q201 213 506 213zM743 1731h95l280 -215h-180l-150 116l-149 -116h-178z" />
    <glyph glyph-name="gcircumflex" unicode="&#x11d;" horiz-adv-x="1001" 
d="M653 1028h365v-117h-199q72 -97 72 -227q0 -155 -105 -260t-278 -105q-141 0 -242 70q-59 -50 -59 -123q0 -59 41 -90t110 -31h285q157 0 237.5 -73t80.5 -203q0 -156 -109.5 -244t-304.5 -88q-214 0 -327.5 80.5t-113.5 232.5q0 144 117 203q-64 26 -103.5 81t-39.5 128
q0 125 108 205q-67 88 -67 217q0 163 105 265t282 102q71 0 145 -23zM250 684q0 -110 70 -179t186 -69q117 0 187.5 69t70.5 179q0 113 -70 181.5t-188 68.5t-187 -68.5t-69 -181.5zM627 29h-219q-75 -2 -123.5 -48.5t-48.5 -125.5q0 -201 311 -201q284 0 284 213
q0 78 -53.5 120t-150.5 42zM475 1499h72l274 -323h-149l-160 202l-162 -202h-149z" />
    <glyph glyph-name="Gbreve" unicode="&#x11e;" horiz-adv-x="1531" 
d="M791 1460q236 0 399 -114t225 -318h-151q-51 144 -171.5 224.5t-301.5 80.5q-247 0 -406 -176q-158 -178 -158 -440q0 -265 158 -443q158 -174 408 -174q234 0 368 123.5t135 362.5h-475v129h617v-82q0 -307 -170 -483q-171 -177 -475 -177q-309 0 -508 211t-199 533
q0 319 199 530q201 213 506 213zM950 1747h117q0 -104 -76.5 -169t-199.5 -65q-124 0 -201.5 65t-77.5 169h115q0 -60 44.5 -95.5t119.5 -35.5q73 0 116 35.5t43 95.5z" />
    <glyph glyph-name="gbreve" unicode="&#x11f;" horiz-adv-x="1001" 
d="M653 1028h365v-117h-199q72 -97 72 -227q0 -155 -105 -260t-278 -105q-141 0 -242 70q-59 -50 -59 -123q0 -59 41 -90t110 -31h285q157 0 237.5 -73t80.5 -203q0 -156 -109.5 -244t-304.5 -88q-214 0 -327.5 80.5t-113.5 232.5q0 144 117 203q-64 26 -103.5 81t-39.5 128
q0 125 108 205q-67 88 -67 217q0 163 105 265t282 102q71 0 145 -23zM250 684q0 -110 70 -179t186 -69q117 0 187.5 69t70.5 179q0 113 -70 181.5t-188 68.5t-187 -68.5t-69 -181.5zM627 29h-219q-75 -2 -123.5 -48.5t-48.5 -125.5q0 -201 311 -201q284 0 284 213
q0 78 -53.5 120t-150.5 42zM676 1444h115q0 -118 -78 -195.5t-199 -77.5q-124 0 -201 77t-77 196h114q0 -75 45 -122.5t119 -47.5q71 0 116.5 48.5t45.5 121.5z" />
    <glyph glyph-name="Gdotaccent" unicode="&#x120;" horiz-adv-x="1531" 
d="M791 1460q236 0 399 -114t225 -318h-151q-51 144 -171.5 224.5t-301.5 80.5q-247 0 -406 -176q-158 -178 -158 -440q0 -265 158 -443q158 -174 408 -174q234 0 368 123.5t135 362.5h-475v129h617v-82q0 -307 -170 -483q-171 -177 -475 -177q-309 0 -508 211t-199 533
q0 319 199 530q201 213 506 213zM788 1718q39 0 68 -28t29 -68q0 -41 -28 -68.5t-69 -27.5t-69.5 27.5t-28.5 68.5t28.5 68.5t69.5 27.5z" />
    <glyph glyph-name="gdotaccent" unicode="&#x121;" horiz-adv-x="1001" 
d="M653 1028h365v-117h-199q72 -97 72 -227q0 -155 -105 -260t-278 -105q-141 0 -242 70q-59 -50 -59 -123q0 -59 41 -90t110 -31h285q157 0 237.5 -73t80.5 -203q0 -156 -109.5 -244t-304.5 -88q-214 0 -327.5 80.5t-113.5 232.5q0 144 117 203q-64 26 -103.5 81t-39.5 128
q0 125 108 205q-67 88 -67 217q0 163 105 265t282 102q71 0 145 -23zM250 684q0 -110 70 -179t186 -69q117 0 187.5 69t70.5 179q0 113 -70 181.5t-188 68.5t-187 -68.5t-69 -181.5zM627 29h-219q-75 -2 -123.5 -48.5t-48.5 -125.5q0 -201 311 -201q284 0 284 213
q0 78 -53.5 120t-150.5 42zM438 1380q31 31 72 31t70 -31q31 -29 31 -69.5t-31 -69.5q-29 -29 -70 -29t-72 29q-29 29 -29 69.5t29 69.5z" />
    <glyph glyph-name="Gcommaaccent" unicode="&#x122;" horiz-adv-x="1531" 
d="M791 1460q236 0 399 -114t225 -318h-151q-51 144 -171.5 224.5t-301.5 80.5q-247 0 -406 -176q-158 -178 -158 -440q0 -265 158 -443q158 -174 408 -174q234 0 368 123.5t135 362.5h-475v129h617v-82q0 -307 -170 -483q-171 -177 -475 -177q-309 0 -508 211t-199 533
q0 319 199 530q201 213 506 213zM911 -209q0 -81 -38.5 -168t-100.5 -151l-43 22q60 94 72 203q-44 5 -71.5 32.5t-27.5 69.5q0 44 30.5 74.5t74.5 30.5q45 0 74.5 -32t29.5 -81z" />
    <glyph glyph-name="gcommaaccent" unicode="&#x123;" horiz-adv-x="1001" 
d="M653 1028h365v-117h-199q72 -97 72 -227q0 -155 -105 -260t-278 -105q-141 0 -242 70q-59 -50 -59 -123q0 -59 41 -90t110 -31h285q157 0 237.5 -73t80.5 -203q0 -156 -109.5 -244t-304.5 -88q-214 0 -327.5 80.5t-113.5 232.5q0 144 117 203q-64 26 -103.5 81t-39.5 128
q0 125 108 205q-67 88 -67 217q0 163 105 265t282 102q71 0 145 -23zM250 684q0 -110 70 -179t186 -69q117 0 187.5 69t70.5 179q0 113 -70 181.5t-188 68.5t-187 -68.5t-69 -181.5zM627 29h-219q-75 -2 -123.5 -48.5t-48.5 -125.5q0 -201 311 -201q284 0 284 213
q0 78 -53.5 120t-150.5 42zM547 1614l47 -19q-62 -112 -74 -231q42 -5 70 -33t28 -69q0 -43 -30.5 -74t-73.5 -31q-45 0 -74.5 32t-29.5 83q3 184 137 342z" />
    <glyph glyph-name="Hcircumflex" unicode="&#x124;" horiz-adv-x="1441" 
d="M674 1710h94l281 -215h-181l-149 117l-150 -117h-178zM1139 1434h135v-1434h-135v676h-836v-676h-135v1434h135v-629h836v629z" />
    <glyph glyph-name="hcircumflex" unicode="&#x125;" horiz-adv-x="1067" 
d="M190 1749h95l280 -215h-180l-149 117l-150 -117h-178zM164 1495h129v-616q27 71 108.5 121.5t182.5 50.5q159 0 247.5 -105.5t88.5 -281.5v-664h-129v651q0 132 -60.5 203.5t-167.5 71.5q-119 0 -194.5 -97.5t-75.5 -257.5v-571h-129v1495z" />
    <glyph glyph-name="Hbar" unicode="&#x126;" horiz-adv-x="1468" 
d="M1151 1434h135v-246h170v-109h-170v-1079h-135v676h-836v-676h-135v1079h-168v109h168v246h135v-246h836v246zM315 1079v-274h836v274h-836z" />
    <glyph glyph-name="hbar" unicode="&#x127;" horiz-adv-x="1077" 
d="M174 1495h129v-139h229v-109h-229v-368q27 71 108.5 121.5t182.5 50.5q159 0 247.5 -105.5t88.5 -281.5v-664h-129v651q0 132 -60.5 203.5t-167.5 71.5q-119 0 -194.5 -97.5t-75.5 -257.5v-571h-129v1247h-164v109h164v139z" />
    <glyph glyph-name="Itilde" unicode="&#x128;" 
d="M113 1737q45 0 79.5 -14.5t55 -35.5t37.5 -42t38 -35.5t46 -14.5q94 0 94 123h98q0 -106 -51.5 -167.5t-147.5 -61.5q-38 0 -69 10.5t-49.5 26.5t-36.5 34.5t-31 34.5t-31.5 26.5t-40.5 10.5q-94 0 -94 -125h-98q0 107 51.5 168.5t149.5 61.5zM168 1434h135v-1434h-135
v1434z" />
    <glyph glyph-name="itilde" unicode="&#x129;" 
d="M113 1430q44 0 77.5 -16.5t54 -39.5t38 -46t39 -39.5t47.5 -16.5q94 0 94 139h98q0 -113 -51.5 -179.5t-147.5 -66.5q-45 0 -79 16.5t-54.5 40t-38 47t-39 40t-47.5 16.5q-94 0 -94 -141h-98q0 115 51.5 180.5t149.5 65.5zM172 1028h129v-1028h-129v1028z" />
    <glyph glyph-name="Imacron" unicode="&#x12a;" 
d="M168 1434h135v-1434h-135v1434zM-23 1632h519v-110h-519v110z" />
    <glyph glyph-name="imacron" unicode="&#x12b;" 
d="M172 1028h129v-1028h-129v1028zM-23 1341h519v-112h-519v112z" />
    <glyph glyph-name="Ibreve" unicode="&#x12c;" 
d="M395 1726h117q0 -104 -76.5 -168.5t-199.5 -64.5q-125 0 -202 64.5t-77 168.5h115q0 -60 44.5 -95.5t119.5 -35.5q73 0 116 35.5t43 95.5zM168 1434h135v-1434h-135v1434z" />
    <glyph glyph-name="ibreve" unicode="&#x12d;" 
d="M399 1444h115q0 -118 -77 -195.5t-199 -77.5q-124 0 -201.5 77t-77.5 196h115q0 -75 45 -122.5t119 -47.5q71 0 116 48.5t45 121.5zM172 1028h129v-1028h-129v1028z" />
    <glyph glyph-name="Iogonek" unicode="&#x12e;" 
d="M168 1434h135v-1434h-51q-123 -62 -123 -172q0 -60 31.5 -92.5t87.5 -32.5q50 0 88 18l29 -92q-44 -24 -121 -24q-95 0 -156 60t-61 161q0 142 141 221v1387z" />
    <glyph glyph-name="iogonek" unicode="&#x12f;" 
d="M172 1028h129v-1028h-12q-123 -62 -123 -172q0 -60 31.5 -92.5t87.5 -32.5q51 0 88 18l28 -92q-43 -24 -120 -24q-96 0 -157 60t-61 161q0 127 109 201v1001zM238 1454q41 0 70.5 -29.5t29.5 -70.5t-29.5 -70t-70.5 -29q-43 0 -72 29t-29 70q0 42 29.5 71t71.5 29z" />
    <glyph glyph-name="Idot" unicode="&#x130;" 
d="M164 1669q29 29 70 29t67 -29q29 -26 29 -67t-29 -70q-26 -26 -67 -26t-70 26q-29 29 -29 70t29 67zM168 1434h135v-1434h-135v1434z" />
    <glyph glyph-name="dotlessi" unicode="&#x131;" 
d="M172 1028h129v-1028h-129v1028z" />
    <glyph glyph-name="Jcircumflex" unicode="&#x134;" horiz-adv-x="991" 
d="M725 1710h94l281 -215h-180l-150 117l-149 -117h-179zM707 1434h135v-1037q0 -204 -98 -313t-281 -109q-385 0 -406 439h136q15 -312 270 -312q118 0 181 76.5t63 222.5v1033z" />
    <glyph glyph-name="jcircumflex" unicode="&#x135;" 
d="M172 1028h129v-1175q0 -184 -82 -248q-80 -68 -205 -68q-71 0 -114 14v121q53 -16 102 -16q91 0 130.5 49.5t39.5 149.5v1173zM203 1499h71l275 -323h-150l-159 202l-162 -202h-150z" />
    <glyph glyph-name="Kcommaaccent" unicode="&#x136;" horiz-adv-x="1357" 
d="M995 1434h170l-495 -629l645 -805h-170l-563 698l-263 -323v-375h-137v1434h137v-856zM793 -188q0 -81 -39 -168.5t-101 -151.5l-43 23q60 94 72 202q-43 5 -70.5 33t-27.5 70q0 44 30 74t74 30q45 0 75 -31.5t30 -80.5z" />
    <glyph glyph-name="kcommaaccent" unicode="&#x137;" horiz-adv-x="978" 
d="M180 1495h129v-983l430 516h162l-350 -422l403 -606h-149l-344 506l-152 -182v-324h-129v1495zM639 -188q0 -81 -38.5 -168.5t-100.5 -151.5l-43 23q59 93 71 202q-43 5 -70.5 33t-27.5 70q0 44 30.5 74t74.5 30q45 0 74.5 -31.5t29.5 -80.5z" />
    <glyph glyph-name="Lacute" unicode="&#x139;" horiz-adv-x="1009" 
d="M352 1708h201l-256 -211h-164zM166 1434h135v-1307h662v-127h-797v1434z" />
    <glyph glyph-name="lacute" unicode="&#x13a;" 
d="M379 1788h201l-256 -211h-164zM172 1495h129v-1495h-129v1495z" />
    <glyph glyph-name="Lcommaaccent" unicode="&#x13b;" horiz-adv-x="1009" 
d="M672 -188q0 -81 -39 -168.5t-101 -151.5l-43 23q60 94 72 202q-43 5 -70.5 33t-27.5 70q0 44 30 74t74 30q45 0 75 -31.5t30 -80.5zM166 1434h135v-1307h662v-127h-797v1434z" />
    <glyph glyph-name="lcommaaccent" unicode="&#x13c;" 
d="M338 -188q0 -81 -38.5 -168.5t-100.5 -151.5l-43 23q59 93 71 202q-43 5 -70.5 33t-27.5 70q0 44 30 74t74 30q45 0 75 -31.5t30 -80.5zM172 1495h129v-1495h-129v1495z" />
    <glyph glyph-name="Lcaron" unicode="&#x13d;" horiz-adv-x="1009" 
d="M887 1444q45 0 75.5 -32t30.5 -81q0 -179 -139 -344l-47 21q62 107 76 229q-44 5 -71.5 32.5t-27.5 69.5q0 43 30 74t73 31zM166 1434h135v-1307h662v-127h-797v1434z" />
    <glyph glyph-name="lcaron" unicode="&#x13e;" horiz-adv-x="704" 
d="M569 1468q45 0 76 -31.5t31 -80.5q0 -179 -139 -344l-48 20q61 107 76 230q-43 5 -70.5 32.5t-27.5 69.5q0 43 29.5 73.5t72.5 30.5zM172 1495h129v-1495h-129v1495z" />
    <glyph glyph-name="Ldot" unicode="&#x13f;" horiz-adv-x="1009" 
d="M166 1434h135v-1307h662v-127h-797v1434zM897 614q0 -47 -31 -78.5t-78 -31.5t-78.5 31.5t-31.5 78.5t31.5 78t78.5 31t78 -32t31 -77z" />
    <glyph glyph-name="ldot" unicode="&#x140;" horiz-adv-x="768" 
d="M172 1495h129v-1495h-129v1495zM680 532q0 -47 -31 -78.5t-78 -31.5t-78.5 31.5t-31.5 78.5t31.5 78t78.5 31t78 -32t31 -77z" />
    <glyph glyph-name="Lslash" unicode="&#x141;" horiz-adv-x="1026" 
d="M180 1434h135v-705l189 90l45 -98l-234 -111v-483h662v-127h-797v545l-157 -74l-43 100l200 95v768z" />
    <glyph glyph-name="lslash" unicode="&#x142;" horiz-adv-x="507" 
d="M188 1495h129v-762l172 84l46 -100l-218 -103v-614h-129v553l-172 -82l-43 98l215 103v823z" />
    <glyph glyph-name="Nacute" unicode="&#x143;" horiz-adv-x="1435" 
d="M1133 1434h135v-1434h-131l-779 1114l-55 84v-1198h-135v1434h129l774 -1108l62 -90v1198zM836 1708h200l-256 -211h-164z" />
    <glyph glyph-name="nacute" unicode="&#x144;" horiz-adv-x="1071" 
d="M584 1051q159 0 247.5 -105.5t88.5 -281.5v-664h-129v651q0 132 -60.5 203.5t-167.5 71.5q-119 0 -194.5 -97.5t-75.5 -257.5v-571h-129v1028h119l6 -156q32 75 113 127t182 52zM727 1499h166l-281 -323h-135z" />
    <glyph glyph-name="Ncommaaccent" unicode="&#x145;" horiz-adv-x="1435" 
d="M1133 1434h135v-1434h-131l-779 1114l-55 84v-1198h-135v1434h129l774 -1108l62 -90v1198zM821 -188q0 -81 -38.5 -168.5t-100.5 -151.5l-43 23q60 94 72 202q-43 5 -71 33t-28 70q0 44 30.5 74t74.5 30q45 0 74.5 -31.5t29.5 -80.5z" />
    <glyph glyph-name="ncommaaccent" unicode="&#x146;" horiz-adv-x="1071" 
d="M584 1051q159 0 247.5 -105.5t88.5 -281.5v-664h-129v651q0 132 -60.5 203.5t-167.5 71.5q-119 0 -194.5 -97.5t-75.5 -257.5v-571h-129v1028h119l6 -156q32 75 113 127t182 52zM647 -188q0 -81 -38.5 -168.5t-100.5 -151.5l-43 23q60 94 72 202q-43 5 -71 33t-28 70
q0 44 30.5 74t74.5 30q45 0 74.5 -31.5t29.5 -80.5z" />
    <glyph glyph-name="Ncaron" unicode="&#x147;" horiz-adv-x="1435" 
d="M1133 1434h135v-1434h-131l-779 1114l-55 84v-1198h-135v1434h129l774 -1108l62 -90v1198zM866 1704h181l-281 -215h-94l-283 215h178l150 -115z" />
    <glyph glyph-name="ncaron" unicode="&#x148;" horiz-adv-x="1071" 
d="M717 1475h149l-274 -324h-72l-274 324h149l162 -203zM584 1051q159 0 247.5 -105.5t88.5 -281.5v-664h-129v651q0 132 -60.5 203.5t-167.5 71.5q-119 0 -194.5 -97.5t-75.5 -257.5v-571h-129v1028h119l6 -156q32 75 113 127t182 52z" />
    <glyph glyph-name="Eng" unicode="&#x14a;" horiz-adv-x="1435" 
d="M1133 1434h135v-1452q0 -204 -99 -313t-284 -109v123q121 0 184.5 75.5t63.5 218.5v29l-775 1108l-55 84v-1198h-135v1434h129l774 -1108l62 -90v1198z" />
    <glyph glyph-name="eng" unicode="&#x14b;" horiz-adv-x="1067" 
d="M584 1051q159 0 247.5 -105.5t88.5 -281.5v-811q0 -183 -86 -248q-83 -68 -218 -68v119q95 0 135 49t40 150v796q0 132 -60.5 203.5t-167.5 71.5q-119 0 -194.5 -97.5t-75.5 -257.5v-571h-129v1028h119l6 -156q32 75 113 127t182 52z" />
    <glyph glyph-name="Omacron" unicode="&#x14c;" horiz-adv-x="1624" 
d="M1538 719q0 -322 -205 -533q-207 -213 -520 -213q-315 0 -522 213q-205 211 -205 533q0 317 205 528q207 213 522 213q313 0 520 -213q205 -211 205 -528zM813 1333q-255 0 -422 -176q-164 -176 -164 -438q0 -267 164 -443q167 -176 422 -176q254 0 418 176
q166 175 166 443q0 263 -166 438q-164 176 -418 176zM551 1653h518v-111h-518v111z" />
    <glyph glyph-name="omacron" unicode="&#x14d;" horiz-adv-x="1173" 
d="M217 899q146 152 371 152t368 -152q142 -151 142 -385t-142 -385q-143 -152 -368 -152t-371 152q-141 150 -141 385t141 385zM590 930q-172 0 -279 -119q-104 -116 -104 -297q0 -180 104 -299q108 -117 279 -117q170 0 272 117q105 120 105 299q0 180 -105 297
q-101 119 -272 119zM328 1341h518v-112h-518v112z" />
    <glyph glyph-name="Obreve" unicode="&#x14e;" horiz-adv-x="1624" 
d="M1538 719q0 -322 -205 -533q-207 -213 -520 -213q-315 0 -522 213q-205 211 -205 533q0 317 205 528q207 213 522 213q313 0 520 -213q205 -211 205 -528zM813 1333q-255 0 -422 -176q-164 -176 -164 -438q0 -267 164 -443q167 -176 422 -176q254 0 418 176
q166 175 166 443q0 263 -166 438q-164 176 -418 176zM971 1747h116q0 -104 -76.5 -169t-199.5 -65q-124 0 -201.5 65t-77.5 169h115q0 -60 44.5 -95.5t119.5 -35.5q73 0 116.5 35.5t43.5 95.5z" />
    <glyph glyph-name="obreve" unicode="&#x14f;" horiz-adv-x="1173" 
d="M217 899q146 152 371 152t368 -152q142 -151 142 -385t-142 -385q-143 -152 -368 -152t-371 152q-141 150 -141 385t141 385zM590 930q-172 0 -279 -119q-104 -116 -104 -297q0 -180 104 -299q108 -117 279 -117q170 0 272 117q105 120 105 299q0 180 -105 297
q-101 119 -272 119zM750 1444h114q0 -118 -77.5 -195.5t-198.5 -77.5q-124 0 -201.5 77t-77.5 196h115q0 -75 45 -122.5t119 -47.5q71 0 116.5 48.5t45.5 121.5z" />
    <glyph glyph-name="Ohungarumlaut" unicode="&#x150;" horiz-adv-x="1624" 
d="M748 1726h147l-186 -215h-127zM1038 1726h148l-185 -215h-131zM1538 719q0 -322 -205 -533q-207 -213 -520 -213q-315 0 -522 213q-205 211 -205 533q0 317 205 528q207 213 522 213q313 0 520 -213q205 -211 205 -528zM813 1333q-255 0 -422 -176q-164 -176 -164 -438
q0 -267 164 -443q167 -176 422 -176q254 0 418 176q166 175 166 443q0 263 -166 438q-164 176 -418 176z" />
    <glyph glyph-name="ohungarumlaut" unicode="&#x151;" horiz-adv-x="1173" 
d="M541 1499h143l-211 -323h-125zM858 1499h143l-210 -323h-125zM217 899q146 152 371 152t368 -152q142 -151 142 -385t-142 -385q-143 -152 -368 -152t-371 152q-141 150 -141 385t141 385zM590 930q-172 0 -279 -119q-104 -116 -104 -297q0 -180 104 -299
q108 -117 279 -117q170 0 272 117q105 120 105 299q0 180 -105 297q-101 119 -272 119z" />
    <glyph glyph-name="OE" unicode="&#x152;" horiz-adv-x="2271" 
d="M1401 1434h770v-127h-635v-504h563v-127h-563v-549h635v-127h-770v272q-98 -142 -250 -220.5t-336 -78.5q-315 0 -522 213q-203 212 -203 533q0 318 203 530q205 211 522 211q184 0 336 -78.5t250 -220.5v273zM815 1333q-255 0 -422 -176q-164 -176 -164 -438
q0 -267 164 -443q167 -176 422 -176q250 0 412 168q165 171 174 424v51q-9 254 -174 422q-162 168 -412 168z" />
    <glyph glyph-name="oe" unicode="&#x153;" horiz-adv-x="2017" 
d="M588 1051q146 0 261 -67t179 -185q62 120 170 186t248 66q214 0 340.5 -135.5t126.5 -378.5v-72h-817v-6q7 -163 107 -262t249 -99q242 0 315 193h134q-48 -150 -164 -232t-287 -82q-142 0 -252 65.5t-170 186.5q-67 -119 -181.5 -185.5t-258.5 -66.5q-225 0 -371 152
q-141 150 -141 385t141 385q146 152 371 152zM590 930q-172 0 -279 -119q-104 -116 -104 -297q0 -180 104 -299q108 -117 279 -117q158 0 260 105q103 109 115 270v80q-9 163 -113 270q-101 107 -262 107zM1446 930q-147 0 -242.5 -96.5t-107.5 -251.5h686q0 161 -91 254.5
t-245 93.5z" />
    <glyph glyph-name="Racute" unicode="&#x154;" horiz-adv-x="1087" 
d="M168 1434h362q207 0 328 -115q123 -114 123 -305q0 -145 -74.5 -245t-210.5 -142l346 -627h-155l-330 604h-254v-604h-135v1434zM530 1307h-227v-578h227q143 0 229.5 76.5t86.5 208.5q0 134 -86.5 213.5t-229.5 79.5zM647 1708h201l-256 -211h-164z" />
    <glyph glyph-name="racute" unicode="&#x155;" horiz-adv-x="663" 
d="M616 1038v-127q-124 0 -208 -84q-99 -95 -99 -270v-557h-129v1028h121l4 -186q33 87 113.5 141.5t197.5 54.5zM535 1499h165l-280 -323h-135z" />
    <glyph glyph-name="Rcommaaccent" unicode="&#x156;" horiz-adv-x="1087" 
d="M168 1434h362q207 0 328 -115q123 -114 123 -305q0 -145 -74.5 -245t-210.5 -142l346 -627h-155l-330 604h-254v-604h-135v1434zM530 1307h-227v-578h227q143 0 229.5 76.5t86.5 208.5q0 134 -86.5 213.5t-229.5 79.5zM676 -188q0 -81 -38.5 -168.5t-100.5 -151.5l-43 23
q59 93 71 202q-43 5 -70.5 33t-27.5 70q0 44 30 74t74 30q45 0 75 -31.5t30 -80.5z" />
    <glyph glyph-name="rcommaaccent" unicode="&#x157;" horiz-adv-x="663" 
d="M616 1038v-127q-124 0 -208 -84q-99 -95 -99 -270v-557h-129v1028h121l4 -186q33 87 113.5 141.5t197.5 54.5zM344 -188q0 -81 -38.5 -168.5t-100.5 -151.5l-43 23q59 93 71 202q-43 5 -70.5 33t-27.5 70q0 44 30.5 74t74.5 30q45 0 74.5 -31.5t29.5 -80.5z" />
    <glyph glyph-name="Rcaron" unicode="&#x158;" horiz-adv-x="1087" 
d="M168 1434h362q207 0 328 -115q123 -114 123 -305q0 -145 -74.5 -245t-210.5 -142l346 -627h-155l-330 604h-254v-604h-135v1434zM530 1307h-227v-578h227q143 0 229.5 76.5t86.5 208.5q0 134 -86.5 213.5t-229.5 79.5zM676 1704h180l-281 -215h-94l-282 215h178l149 -115
z" />
    <glyph glyph-name="rcaron" unicode="&#x159;" horiz-adv-x="663" 
d="M526 1475h150l-275 -324h-71l-275 324h150l162 -203zM616 1038v-127q-124 0 -208 -84q-99 -95 -99 -270v-557h-129v1028h121l4 -186q33 87 113.5 141.5t197.5 54.5z" />
    <glyph glyph-name="Sacute" unicode="&#x15a;" horiz-adv-x="1058" 
d="M526 1460q185 0 293 -103t109 -290h-137q-1 128 -72.5 199t-194.5 71q-118 0 -185 -67.5t-67 -186.5q0 -110 64 -165q67 -57 237 -127q224 -87 312 -175q92 -86 92 -237q0 -190 -119 -297q-118 -109 -309 -109q-212 0 -334.5 119.5t-124.5 321.5h137q1 -152 86 -235
t238 -83q137 0 213 75.5t76 201.5q0 98 -72.5 162t-255.5 131q-201 80 -289 165t-88 246q0 164 103 273q101 110 288 110zM649 1729h201l-256 -211h-164z" />
    <glyph glyph-name="sacute" unicode="&#x15b;" horiz-adv-x="897" 
d="M442 1051q147 0 236 -84t90 -226h-133q-3 189 -197 189q-91 0 -140.5 -43.5t-49.5 -118.5q0 -77 45 -113q48 -36 176 -69q181 -50 257.5 -119t76.5 -186q0 -138 -96.5 -221t-251.5 -83q-169 0 -267 88t-100 236h133q2 -97 64 -150t174 -53q102 0 157.5 48t55.5 128
q0 75 -53.5 118.5t-192.5 78.5q-165 43 -237 108t-72 183q0 126 88 207.5t237 81.5zM614 1499h166l-280 -323h-135z" />
    <glyph glyph-name="Scircumflex" unicode="&#x15c;" horiz-adv-x="1058" 
d="M526 1460q185 0 293 -103t109 -290h-137q-1 128 -72.5 199t-194.5 71q-118 0 -185 -67.5t-67 -186.5q0 -110 64 -165q67 -57 237 -127q224 -87 312 -175q92 -86 92 -237q0 -190 -119 -297q-118 -109 -309 -109q-212 0 -334.5 119.5t-124.5 321.5h137q1 -152 86 -235
t238 -83q137 0 213 75.5t76 201.5q0 98 -72.5 162t-255.5 131q-201 80 -289 165t-88 246q0 164 103 273q101 110 288 110zM485 1731h95l280 -215h-180l-150 116l-149 -116h-178z" />
    <glyph glyph-name="scircumflex" unicode="&#x15d;" horiz-adv-x="897" 
d="M442 1051q147 0 236 -84t90 -226h-133q-3 189 -197 189q-91 0 -140.5 -43.5t-49.5 -118.5q0 -77 45 -113q48 -36 176 -69q181 -50 257.5 -119t76.5 -186q0 -138 -96.5 -221t-251.5 -83q-169 0 -267 88t-100 236h133q2 -97 64 -150t174 -53q102 0 157.5 48t55.5 128
q0 75 -53.5 118.5t-192.5 78.5q-165 43 -237 108t-72 183q0 126 88 207.5t237 81.5zM408 1499h71l275 -323h-150l-160 202l-161 -202h-150z" />
    <glyph glyph-name="Scedilla" unicode="&#x15e;" horiz-adv-x="1058" 
d="M526 1460q185 0 293 -103t109 -290h-137q-1 128 -72.5 199t-194.5 71q-118 0 -185 -67.5t-67 -186.5q0 -110 64 -165q67 -57 237 -127q224 -87 312 -175q92 -86 92 -237q0 -181 -109.5 -289.5t-294.5 -116.5l-24 -102h22q78 0 126 -45.5t48 -120.5q0 -81 -56.5 -128.5
t-145.5 -47.5q-125 0 -191 78l60 74q51 -60 131 -60q47 0 76.5 22.5t29.5 59.5q0 38 -25 60t-67 22q-22 0 -74 -10l-45 14l47 188q-185 17 -289 133.5t-106 303.5h137q1 -152 86 -235t238 -83q137 0 213 75.5t76 201.5q0 98 -72.5 162t-255.5 131q-201 80 -289 165t-88 246
q0 164 103 273q101 110 288 110z" />
    <glyph glyph-name="scedilla" unicode="&#x15f;" horiz-adv-x="897" 
d="M442 1051q147 0 236 -84t90 -226h-133q-3 189 -197 189q-91 0 -140.5 -43.5t-49.5 -118.5q0 -77 45 -113q48 -36 176 -69q181 -50 257.5 -119t76.5 -186q0 -132 -87 -212.5t-231 -88.5l-26 -109h22q78 0 126 -45.5t48 -120.5q0 -81 -56.5 -128.5t-145.5 -47.5
q-125 0 -191 78l60 74q51 -60 131 -60q47 0 76.5 22.5t29.5 59.5q0 38 -25 60t-67 22q-22 0 -74 -10l-45 14l49 193q-145 13 -226 98.5t-83 220.5h133q2 -97 64 -150t174 -53q102 0 157.5 48t55.5 128q0 75 -53.5 118.5t-192.5 78.5q-165 43 -237 108t-72 183
q0 126 88 207.5t237 81.5z" />
    <glyph glyph-name="Scaron" unicode="&#x160;" horiz-adv-x="1058" 
d="M526 1460q185 0 293 -103t109 -290h-137q-1 128 -72.5 199t-194.5 71q-118 0 -185 -67.5t-67 -186.5q0 -110 64 -165q67 -57 237 -127q224 -87 312 -175q92 -86 92 -237q0 -190 -119 -297q-118 -109 -309 -109q-212 0 -334.5 119.5t-124.5 321.5h137q1 -152 86 -235
t238 -83q137 0 213 75.5t76 201.5q0 98 -72.5 162t-255.5 131q-201 80 -289 165t-88 246q0 164 103 273q101 110 288 110zM680 1724h180l-280 -215h-95l-282 215h178l149 -114z" />
    <glyph glyph-name="scaron" unicode="&#x161;" horiz-adv-x="897" 
d="M442 1051q147 0 236 -84t90 -226h-133q-3 189 -197 189q-91 0 -140.5 -43.5t-49.5 -118.5q0 -77 45 -113q48 -36 176 -69q181 -50 257.5 -119t76.5 -186q0 -138 -96.5 -221t-251.5 -83q-169 0 -267 88t-100 236h133q2 -97 64 -150t174 -53q102 0 157.5 48t55.5 128
q0 75 -53.5 118.5t-192.5 78.5q-165 43 -237 108t-72 183q0 126 88 207.5t237 81.5zM604 1475h150l-275 -324h-71l-275 324h150l161 -203z" />
    <glyph glyph-name="Tcommaaccent" unicode="&#x162;" horiz-adv-x="1234" 
d="M18 1434h1196v-127h-530v-1307h-135v1307h-531v127zM719 -188q0 -81 -38.5 -168.5t-100.5 -151.5l-43 23q59 93 71 202q-43 5 -70.5 33t-27.5 70q0 44 30 74t74 30q45 0 75 -31.5t30 -80.5z" />
    <glyph glyph-name="tcommaaccent" unicode="&#x163;" horiz-adv-x="686" 
d="M219 1290h129l-2 -262h279v-121h-281l-4 -624q0 -97 33 -138t121 -41q66 0 131 21v-117q-55 -22 -146 -22q-137 0 -202 67t-64 213l4 641h-205v121h205zM494 -203q0 -81 -39 -168t-101 -151l-43 22q60 94 72 203q-43 5 -70.5 32.5t-27.5 69.5q0 44 30 74.5t74 30.5
q45 0 75 -32t30 -81z" />
    <glyph glyph-name="Tcaron" unicode="&#x164;" horiz-adv-x="1234" 
d="M764 1704h180l-280 -215h-95l-282 215h178l149 -115zM18 1434h1196v-127h-530v-1307h-135v1307h-531v127z" />
    <glyph glyph-name="tcaron" unicode="&#x165;" horiz-adv-x="940" 
d="M219 1290h129l-2 -262h279v-121h-281l-4 -624q0 -97 33 -138t121 -41q66 0 131 21v-117q-55 -22 -146 -22q-137 0 -202 67t-64 213l4 641h-205v121h205zM805 1468q45 0 75.5 -31.5t30.5 -80.5q0 -179 -139 -344l-47 20q61 107 76 230q-44 5 -71.5 32.5t-27.5 69.5
q0 43 30 73.5t73 30.5z" />
    <glyph glyph-name="Tbar" unicode="&#x166;" horiz-adv-x="1234" 
d="M18 1434h1196v-127h-530v-514h328v-109h-328v-684h-135v684h-328v109h328v514h-531v127z" />
    <glyph glyph-name="tbar" unicode="&#x167;" horiz-adv-x="686" 
d="M219 1290h129l-2 -262h279v-113h-281l-2 -276h283v-113h-283l-2 -243q0 -97 33 -138t121 -41q66 0 131 21v-117q-55 -22 -146 -22q-137 0 -202 67t-64 213l2 260h-203v113h203l2 276h-205v113h205z" />
    <glyph glyph-name="Utilde" unicode="&#x168;" horiz-adv-x="1400" 
d="M575 1737q45 0 79.5 -14.5t55 -35.5t37.5 -42t38 -35.5t46 -14.5q95 0 95 123h98q0 -106 -51.5 -167.5t-147.5 -61.5q-38 0 -69 10.5t-49.5 26.5t-36.5 34.5t-31 34.5t-31.5 26.5t-40.5 10.5q-94 0 -94 -125h-98q0 107 51 168.5t149 61.5zM1116 1434h137v-873
q0 -287 -143.5 -437.5t-409.5 -150.5q-264 0 -407 150.5t-143 437.5v873h135v-873q0 -461 415 -461q416 0 416 461v873z" />
    <glyph glyph-name="utilde" unicode="&#x169;" horiz-adv-x="1058" 
d="M401 1430q44 0 77.5 -16.5t54 -39.5t38 -46t39 -39.5t47.5 -16.5q95 0 95 139h98q0 -113 -51.5 -179.5t-147.5 -66.5q-45 0 -79 16.5t-54.5 40t-38 47t-39 40t-47.5 16.5q-94 0 -94 -141h-98q0 115 51 180.5t149 65.5zM766 1028h129v-1028h-121l-4 154
q-32 -76 -111 -126.5t-180 -50.5q-159 0 -245.5 104t-86.5 284v663h129v-651q0 -134 59.5 -205.5t166.5 -71.5q118 0 191 94.5t73 251.5v582z" />
    <glyph glyph-name="Umacron" unicode="&#x16a;" horiz-adv-x="1400" 
d="M1116 1434h137v-873q0 -287 -143.5 -437.5t-409.5 -150.5q-264 0 -407 150.5t-143 437.5v873h135v-873q0 -461 415 -461q416 0 416 461v873zM440 1632h518v-110h-518v110z" />
    <glyph glyph-name="umacron" unicode="&#x16b;" horiz-adv-x="1058" 
d="M766 1028h129v-1028h-121l-4 154q-32 -76 -111 -126.5t-180 -50.5q-159 0 -245.5 104t-86.5 284v663h129v-651q0 -134 59.5 -205.5t166.5 -71.5q118 0 191 94.5t73 251.5v582zM266 1341h518v-112h-518v112z" />
    <glyph glyph-name="Ubreve" unicode="&#x16c;" horiz-adv-x="1400" 
d="M860 1726h117q0 -104 -77 -168.5t-200 -64.5q-124 0 -201 64.5t-77 168.5h115q0 -60 44 -95.5t119 -35.5q73 0 116.5 35.5t43.5 95.5zM1116 1434h137v-873q0 -287 -143.5 -437.5t-409.5 -150.5q-264 0 -407 150.5t-143 437.5v873h135v-873q0 -461 415 -461q416 0 416 461
v873z" />
    <glyph glyph-name="ubreve" unicode="&#x16d;" horiz-adv-x="1058" 
d="M766 1028h129v-1028h-121l-4 154q-32 -76 -111 -126.5t-180 -50.5q-159 0 -245.5 104t-86.5 284v663h129v-651q0 -134 59.5 -205.5t166.5 -71.5q118 0 191 94.5t73 251.5v582zM688 1444h115q0 -118 -78 -195.5t-199 -77.5q-124 0 -201 77t-77 196h114q0 -75 45 -122.5
t119 -47.5q71 0 116.5 48.5t45.5 121.5z" />
    <glyph glyph-name="Uring" unicode="&#x16e;" horiz-adv-x="1400" 
d="M764 1735q-26 26 -65.5 26t-65.5 -26q-25 -26 -25 -65.5t25 -65.5q26 -26 65.5 -26t65.5 26t26 65.5t-26 65.5zM698 1849q82 0 135.5 -51t53.5 -129t-53.5 -130t-135.5 -52q-80 0 -133 52t-53 130t53 129t133 51zM1116 1434h137v-873q0 -287 -143.5 -437.5t-409.5 -150.5
q-264 0 -407 150.5t-143 437.5v873h135v-873q0 -461 415 -461q416 0 416 461v873z" />
    <glyph glyph-name="uring" unicode="&#x16f;" horiz-adv-x="1058" 
d="M733 1343q0 -87 -58.5 -143.5t-150.5 -56.5t-150.5 56.5t-58.5 143.5q0 91 58.5 149t150.5 58t150.5 -58t58.5 -149zM412 1346q0 -45 33 -79t79 -34q48 0 80.5 34t32.5 79q0 49 -31.5 80.5t-81.5 31.5q-49 0 -80.5 -32t-31.5 -80zM766 1028h129v-1028h-121l-4 154
q-32 -76 -111 -126.5t-180 -50.5q-159 0 -245.5 104t-86.5 284v663h129v-651q0 -134 59.5 -205.5t166.5 -71.5q118 0 191 94.5t73 251.5v582z" />
    <glyph glyph-name="Uhungarumlaut" unicode="&#x170;" horiz-adv-x="1400" 
d="M637 1706h147l-186 -215h-127zM928 1706h147l-184 -215h-131zM1116 1434h137v-873q0 -287 -143.5 -437.5t-409.5 -150.5q-264 0 -407 150.5t-143 437.5v873h135v-873q0 -461 415 -461q416 0 416 461v873z" />
    <glyph glyph-name="uhungarumlaut" unicode="&#x171;" horiz-adv-x="1058" 
d="M479 1499h144l-211 -323h-125zM797 1499h143l-211 -323h-125zM766 1028h129v-1028h-121l-4 154q-32 -76 -111 -126.5t-180 -50.5q-159 0 -245.5 104t-86.5 284v663h129v-651q0 -134 59.5 -205.5t166.5 -71.5q118 0 191 94.5t73 251.5v582z" />
    <glyph glyph-name="Uogonek" unicode="&#x172;" horiz-adv-x="1400" 
d="M1116 1434h137v-873q0 -236 -99 -381t-286 -188q-82 -55 -82 -150q0 -60 31.5 -92.5t87.5 -32.5q48 0 88 19l29 -92q-45 -25 -121 -25q-95 0 -156 60t-61 161q0 80 39 133h-23q-264 0 -407 150.5t-143 437.5v873h135v-873q0 -461 415 -461q416 0 416 461v873z" />
    <glyph glyph-name="uogonek" unicode="&#x173;" horiz-adv-x="1058" 
d="M766 1028h129v-1028h-2q-123 -62 -123 -172q0 -60 31.5 -92.5t87.5 -32.5q51 0 88 18l29 -92q-44 -24 -121 -24q-95 0 -156 60t-61 161q0 126 104 199l-2 129q-32 -76 -111 -126.5t-180 -50.5q-159 0 -245.5 104t-86.5 284v663h129v-651q0 -134 59.5 -205.5t166.5 -71.5
q118 0 191 94.5t73 251.5v582z" />
    <glyph glyph-name="Wcircumflex" unicode="&#x174;" horiz-adv-x="2007" 
d="M1823 1434h141l-467 -1434h-123l-346 1087l-24 95l-25 -95l-344 -1087h-123l-469 1434h143l365 -1110l24 -103l25 103l350 1110h107l352 -1110l23 -103l26 103zM958 1710h95l280 -215h-180l-149 117l-150 -117h-178z" />
    <glyph glyph-name="wcircumflex" unicode="&#x175;" horiz-adv-x="1558" 
d="M1382 1028h138l-336 -1028h-125l-281 805l-280 -805h-125l-334 1028h137l244 -770l22 -86l23 86l260 770h109l260 -770l22 -86l23 86zM741 1499h72l274 -323h-149l-160 202l-162 -202h-149z" />
    <glyph glyph-name="Ycircumflex" unicode="&#x176;" horiz-adv-x="1366" 
d="M1171 1434h160l-579 -885v-549h-138v549l-579 885h160l430 -656l57 -96l57 96zM637 1710h94l281 -215h-181l-149 117l-150 -117h-178z" />
    <glyph glyph-name="ycircumflex" unicode="&#x177;" horiz-adv-x="1013" 
d="M836 1028h139l-580 -1468h-137l180 456l-399 1012h137l309 -797l21 -71l22 71zM469 1499h72l274 -323h-149l-160 202l-162 -202h-149z" />
    <glyph glyph-name="Ydieresis" unicode="&#x178;" horiz-adv-x="1366" 
d="M1171 1434h160l-579 -885v-549h-138v549l-579 885h160l430 -656l57 -96l57 96zM498 1688q56 4 79.5 -44t0 -96.5t-79.5 -44.5q-39 0 -67 27t-28 65q0 39 27 66t68 27zM862 1688q56 4 79.5 -44t0 -96.5t-79.5 -44.5q-38 0 -66 27t-28 65q0 39 26.5 66t67.5 27z" />
    <glyph glyph-name="Zacute" unicode="&#x179;" horiz-adv-x="1196" 
d="M82 1434h1022v-107l-854 -1200h876v-127h-1054v106l856 1201h-846v127zM715 1708h200l-256 -211h-163z" />
    <glyph glyph-name="zacute" unicode="&#x17a;" horiz-adv-x="919" 
d="M78 1028h758v-100l-592 -809h628v-119h-800v100l592 809h-586v119zM639 1499h166l-281 -323h-135z" />
    <glyph glyph-name="Zdotaccent" unicode="&#x17b;" horiz-adv-x="1196" 
d="M82 1434h1022v-107l-854 -1200h876v-127h-1054v106l856 1201h-846v127zM596 1698q39 0 67.5 -27.5t28.5 -68.5t-27.5 -69t-68.5 -28t-69.5 28t-28.5 69t28.5 68.5t69.5 27.5z" />
    <glyph glyph-name="zdotaccent" unicode="&#x17c;" horiz-adv-x="919" 
d="M78 1028h758v-100l-592 -809h628v-119h-800v100l592 809h-586v119zM399 1380q31 31 72 31t70 -31q31 -29 31 -69.5t-31 -69.5q-29 -29 -70 -29t-72 29q-29 29 -29 69.5t29 69.5z" />
    <glyph glyph-name="Zcaron" unicode="&#x17d;" horiz-adv-x="1196" 
d="M745 1704h181l-281 -215h-94l-283 215h178l150 -115zM82 1434h1022v-107l-854 -1200h876v-127h-1054v106l856 1201h-846v127z" />
    <glyph glyph-name="zcaron" unicode="&#x17e;" horiz-adv-x="919" 
d="M631 1475h149l-274 -324h-72l-274 324h149l162 -203zM78 1028h758v-100l-592 -809h628v-119h-800v100l592 809h-586v119z" />
    <glyph glyph-name="florin" unicode="&#x192;" horiz-adv-x="700" 
d="M610 1509q89 0 148 -26l-15 -119q-59 27 -129 27q-151 0 -172 -181l-18 -182h285l-13 -119h-284l-117 -1085q-14 -135 -91.5 -211t-201.5 -76q-80 0 -145 27l12 119q65 -27 129 -27q152 0 170 180l115 1073h-209l12 119h209l22 195q13 135 90.5 210.5t202.5 75.5z" />
    <glyph glyph-name="Aringacute" unicode="&#x1fa;" horiz-adv-x="1382" 
d="M627 1434h129l587 -1434h-151l-170 416h-664l-165 -416h-152zM717 1171l-27 76l-26 -76l-258 -626h569zM770 1993h201l-197 -162q48 -24 75.5 -66.5t27.5 -95.5q0 -78 -53.5 -130t-135.5 -52q-80 0 -133 52t-53 130q0 114 98 160zM688 1577q41 0 66.5 26.5t25.5 65.5
q0 38 -27 65t-65 27q-55 4 -78 -44t0 -96t78 -44z" />
    <glyph glyph-name="aringacute" unicode="&#x1fb;" horiz-adv-x="987" 
d="M489 1051q170 0 261.5 -95.5t91.5 -269.5v-686h-123l-4 150q-43 -76 -130 -124.5t-196 -48.5q-133 0 -212 75.5t-79 199.5q0 234 279 293l334 69v68q0 248 -222 248q-106 0 -169.5 -57.5t-63.5 -163.5h-129q3 150 100 243q102 99 262 99zM588 1708h200l-206 -170
q61 -24 96 -75.5t35 -119.5q0 -87 -58.5 -143.5t-150.5 -56.5t-150.5 56.5t-58.5 143.5q0 125 102 181zM711 412v86l-310 -68q-89 -21 -130.5 -61t-41.5 -115q0 -74 46.5 -115t130.5 -41q148 0 237 111q68 89 68 203zM391 1346q0 -45 33 -79t80 -34q48 0 80 33.5t32 79.5
q0 50 -31 81t-81 31q-49 0 -81 -32t-32 -80z" />
    <glyph glyph-name="AEacute" unicode="&#x1fc;" horiz-adv-x="1875" 
d="M983 1434h795v-127h-635v-504h563v-127h-563v-549h635v-127h-770v420h-537l-287 -420h-157zM1008 543v700l-41 -74l-416 -626h457zM1298 1708h201l-256 -211h-164z" />
    <glyph glyph-name="aeacute" unicode="&#x1fd;" horiz-adv-x="1742" 
d="M1174 1051q214 0 340 -135.5t126 -378.5v-72h-817q7 -166 106.5 -266.5t250.5 -100.5q242 0 315 193h133q-48 -150 -163.5 -232t-286.5 -82q-139 0 -248.5 65t-171.5 183q-120 -248 -371 -248q-135 0 -212 74.5t-77 200.5q0 231 279 293l315 67v68q0 250 -215 250
q-101 0 -161 -57.5t-60 -163.5h-129q2 150 97.5 246t252.5 96q239 0 316 -191q138 191 381 191zM1174 930q-147 0 -243 -96.5t-108 -251.5h686q0 161 -90.5 254.5t-244.5 93.5zM692 401v97l-280 -66q-94 -21 -138.5 -63.5t-44.5 -116.5q0 -70 45 -112t125 -42q142 0 224 107
q69 90 69 196zM983 1499h166l-281 -323h-135z" />
    <glyph glyph-name="Oslashacute" unicode="&#x1fe;" horiz-adv-x="1624" 
d="M813 1460q159 0 299 -61l88 160l111 -54l-90 -164q149 -101 233 -264t84 -358q0 -322 -205 -533q-207 -213 -520 -213q-164 0 -307 64l-90 -168l-111 53l94 172q-148 98 -230.5 262.5t-82.5 362.5q0 317 205 528q207 213 522 213zM1397 719q0 159 -63.5 291.5
t-176.5 214.5l-588 -1075q109 -50 244 -50q254 0 418 176q166 175 166 443zM813 1333q-255 0 -422 -176q-164 -176 -164 -438q0 -159 61.5 -290t174.5 -216l588 1071q-113 49 -238 49zM930 1724h200l-256 -211h-163z" />
    <glyph glyph-name="oslashacute" unicode="&#x1ff;" horiz-adv-x="1173" 
d="M588 1051q109 0 209 -41l80 149l90 -43l-82 -155q213 -151 213 -447q0 -234 -142 -385q-143 -152 -368 -152q-112 0 -207 39l-80 -149l-92 45l82 154q-103 72 -159 189t-56 259q0 235 141 385q146 152 371 152zM590 930q-172 0 -279 -119q-104 -116 -104 -297
q0 -215 145 -336l385 723q-73 29 -147 29zM967 514q0 217 -144 334l-385 -721q76 -29 152 -29q170 0 272 117q105 120 105 299zM754 1499h166l-281 -323h-135z" />
    <glyph glyph-name="Scommaaccent" unicode="&#x218;" horiz-adv-x="1058" 
d="M526 1460q185 0 293 -103t109 -290h-137q-1 128 -72.5 199t-194.5 71q-118 0 -185 -67.5t-67 -186.5q0 -110 64 -165q67 -57 237 -127q224 -87 312 -175q92 -86 92 -237q0 -190 -119 -297q-118 -109 -309 -109q-212 0 -334.5 119.5t-124.5 321.5h137q1 -152 86 -235
t238 -83q137 0 213 75.5t76 201.5q0 98 -72.5 162t-255.5 131q-201 80 -289 165t-88 246q0 164 103 273q101 110 288 110zM635 -209q0 -81 -38.5 -168t-100.5 -151l-43 22q59 92 71 203q-43 5 -70.5 32.5t-27.5 69.5q0 44 30 74.5t74 30.5q45 0 75 -32t30 -81z" />
    <glyph glyph-name="scommaaccent" unicode="&#x219;" horiz-adv-x="897" 
d="M442 1051q147 0 236 -84t90 -226h-133q-3 189 -197 189q-91 0 -140.5 -43.5t-49.5 -118.5q0 -77 45 -113q48 -36 176 -69q181 -50 257.5 -119t76.5 -186q0 -138 -96.5 -221t-251.5 -83q-169 0 -267 88t-100 236h133q2 -97 64 -150t174 -53q102 0 157.5 48t55.5 128
q0 75 -53.5 118.5t-192.5 78.5q-165 43 -237 108t-72 183q0 126 88 207.5t237 81.5zM553 -190q0 -81 -38.5 -168.5t-100.5 -151.5l-43 23q59 93 71 202q-43 5 -70.5 33t-27.5 70q0 44 30.5 74t74.5 30q45 0 74.5 -31.5t29.5 -80.5z" />
    <glyph glyph-name="circumflex" unicode="&#x2c6;" horiz-adv-x="661" 
d="M295 1499h72l274 -323h-149l-160 202l-162 -202h-150z" />
    <glyph glyph-name="caron" unicode="&#x2c7;" horiz-adv-x="661" 
d="M492 1475h149l-274 -324h-72l-275 324h150l162 -203z" />
    <glyph glyph-name="breve" unicode="&#x2d8;" horiz-adv-x="595" 
d="M461 1444h114q0 -118 -77 -195.5t-199 -77.5q-124 0 -201.5 77t-77.5 196h115q0 -75 45 -122.5t119 -47.5q71 0 116.5 48.5t45.5 121.5z" />
    <glyph glyph-name="dotaccent" unicode="&#x2d9;" horiz-adv-x="241" 
d="M49 1380q31 31 71.5 31t69.5 -31q31 -29 31 -69.5t-31 -69.5q-29 -29 -69.5 -29t-71.5 29q-29 29 -29 69.5t29 69.5z" />
    <glyph glyph-name="ring" unicode="&#x2da;" horiz-adv-x="458" 
d="M438 1343q0 -87 -58.5 -143.5t-150.5 -56.5t-150.5 56.5t-58.5 143.5q0 91 58.5 149t150.5 58t150.5 -58t58.5 -149zM117 1346q0 -45 33 -79t79 -34q48 0 80.5 34t32.5 79q0 49 -31.5 80.5t-81.5 31.5q-49 0 -80.5 -32t-31.5 -80z" />
    <glyph glyph-name="ogonek" unicode="&#x2db;" horiz-adv-x="374" 
d="M184 61l58 -61q-123 -62 -123 -172q0 -60 31.5 -92.5t87.5 -32.5q50 0 88 18l28 -92q-44 -24 -121 -24q-95 0 -156 60t-61 161q0 150 168 235z" />
    <glyph glyph-name="tilde" unicode="&#x2dc;" horiz-adv-x="690" 
d="M221 1430q44 0 77.5 -16.5t54 -39.5t38 -46t39 -39.5t47.5 -16.5q94 0 94 139h99q0 -113 -51.5 -179.5t-147.5 -66.5q-45 0 -79 16.5t-54.5 40t-38 47t-39 40t-47.5 16.5q-94 0 -94 -141h-99q0 115 51.5 180.5t149.5 65.5z" />
    <glyph glyph-name="hungarumlaut" unicode="&#x2dd;" horiz-adv-x="694" 
d="M213 1499h143l-211 -323h-125zM530 1499h144l-211 -323h-125z" />
    <glyph glyph-name="uni03A9" unicode="&#x3a9;" horiz-adv-x="1757" 
d="M1550 807q0 -384 -344 -674h475v-133h-675v121q405 273 405 682q0 254 -139 414q-138 159 -381 159t-383 -162q-139 -160 -139 -411q0 -409 405 -682v-121h-676v133h477q-344 290 -344 674q0 308 181 504q180 198 479 198t479 -198q180 -195 180 -504z" />
    <glyph glyph-name="pi" unicode="&#x3c0;" horiz-adv-x="1411" 
d="M1270 1178l106 -60q-50 -114 -119 -166q-70 -49 -221 -49h-35l-79 -604q-12 -95 10 -138.5t84 -43.5q81 0 153 63l54 -96q-122 -90 -240 -90q-117 0 -161 70.5t-25 220.5l80 618h-281l-74 -547q-26 -195 -94 -356h-141q82 163 112 379l70 524h-41q-188 0 -315 -133
l-66 94q88 88 172 123q81 37 240 37h512q141 0 198 31q54 34 101 123z" />
    <glyph glyph-name="Wgrave" unicode="&#x1e80;" horiz-adv-x="2007" 
d="M1823 1434h141l-467 -1434h-123l-346 1087l-24 95l-25 -95l-344 -1087h-123l-469 1434h143l365 -1110l24 -103l25 103l350 1110h107l352 -1110l23 -103l26 103zM674 1708h200l220 -211h-162z" />
    <glyph glyph-name="wgrave" unicode="&#x1e81;" horiz-adv-x="1558" 
d="M1382 1028h138l-336 -1028h-125l-281 805l-280 -805h-125l-334 1028h137l244 -770l22 -86l23 86l260 770h109l260 -770l22 -86l23 86zM434 1499h166l250 -323h-135z" />
    <glyph glyph-name="Wacute" unicode="&#x1e82;" horiz-adv-x="2007" 
d="M1823 1434h141l-467 -1434h-123l-346 1087l-24 95l-25 -95l-344 -1087h-123l-469 1434h143l365 -1110l24 -103l25 103l350 1110h107l352 -1110l23 -103l26 103zM1126 1708h201l-256 -211h-164z" />
    <glyph glyph-name="wacute" unicode="&#x1e83;" horiz-adv-x="1558" 
d="M1382 1028h138l-336 -1028h-125l-281 805l-280 -805h-125l-334 1028h137l244 -770l22 -86l23 86l260 770h109l260 -770l22 -86l23 86zM944 1499h166l-281 -323h-135z" />
    <glyph glyph-name="Wdieresis" unicode="&#x1e84;" horiz-adv-x="2007" 
d="M1823 1434h141l-467 -1434h-123l-346 1087l-24 95l-25 -95l-344 -1087h-123l-469 1434h143l365 -1110l24 -103l25 103l350 1110h107l352 -1110l23 -103l26 103zM821 1688q56 4 79.5 -44t0 -96.5t-79.5 -44.5q-38 0 -66 27t-28 65q0 39 26.5 66t67.5 27zM1186 1688
q56 4 79.5 -44t0 -96.5t-79.5 -44.5q-38 0 -66 27t-28 65q0 39 26.5 66t67.5 27z" />
    <glyph glyph-name="wdieresis" unicode="&#x1e85;" horiz-adv-x="1558" 
d="M1382 1028h138l-336 -1028h-125l-281 805l-280 -805h-125l-334 1028h137l244 -770l22 -86l23 86l260 770h109l260 -770l22 -86l23 86zM526 1358q29 29 68 29t65 -29q26 -26 26 -65.5t-26 -65.5t-65 -26t-68 26q-26 26 -26 65.5t26 65.5zM891 1358q29 29 68 29t65 -29
q26 -26 26 -65.5t-26 -65.5t-65 -26t-68 26q-26 26 -26 65.5t26 65.5z" />
    <glyph glyph-name="Ygrave" unicode="&#x1ef2;" horiz-adv-x="1366" 
d="M1171 1434h160l-579 -885v-549h-138v549l-579 885h160l430 -656l57 -96l57 96zM352 1708h201l219 -211h-162z" />
    <glyph glyph-name="ygrave" unicode="&#x1ef3;" horiz-adv-x="1013" 
d="M836 1028h139l-580 -1468h-137l180 456l-399 1012h137l309 -797l21 -71l22 71zM162 1499h166l250 -323h-136z" />
    <glyph glyph-name="endash" unicode="&#x2013;" horiz-adv-x="1054" 
d="M51 590h953v-117h-953v117z" />
    <glyph glyph-name="emdash" unicode="&#x2014;" horiz-adv-x="1443" 
d="M51 590h1342v-117h-1342v117z" />
    <glyph glyph-name="quoteleft" unicode="&#x2018;" horiz-adv-x="346" 
d="M207 1481l47 -19q-62 -112 -74 -231q42 -5 70.5 -33t28.5 -70q0 -43 -31 -73.5t-74 -30.5q-45 0 -74.5 32t-29.5 83q3 184 137 342z" />
    <glyph glyph-name="quoteright" unicode="&#x2019;" horiz-adv-x="346" 
d="M172 1468q45 0 76 -31.5t31 -80.5q0 -178 -140 -344l-47 20q61 107 76 230q-43 5 -70.5 32.5t-27.5 69.5q0 43 29.5 73.5t72.5 30.5z" />
    <glyph glyph-name="quotesinglbase" unicode="&#x201a;" horiz-adv-x="346" 
d="M172 188q45 0 76 -31.5t31 -80.5q0 -86 -38.5 -179t-101.5 -163l-47 18q61 107 76 232q-43 5 -70.5 32.5t-27.5 69.5q0 43 29.5 72.5t72.5 29.5z" />
    <glyph glyph-name="quotedblleft" unicode="&#x201c;" horiz-adv-x="677" 
d="M207 1481l47 -19q-62 -112 -74 -231q42 -5 70.5 -33t28.5 -70q0 -43 -31 -73.5t-74 -30.5q-45 0 -74.5 32t-29.5 83q3 184 137 342zM535 1481l47 -19q-62 -112 -74 -231q42 -5 70 -33t28 -70q0 -43 -30.5 -73.5t-73.5 -30.5q-45 0 -75 32.5t-30 82.5q3 182 138 342z" />
    <glyph glyph-name="quotedblright" unicode="&#x201d;" horiz-adv-x="677" 
d="M172 1468q45 0 76 -31.5t31 -80.5q0 -178 -140 -344l-47 20q61 107 76 230q-43 5 -70.5 32.5t-27.5 69.5q0 43 29.5 73.5t72.5 30.5zM500 1468q45 0 75.5 -31.5t30.5 -80.5q0 -179 -139 -344l-47 20q61 107 76 230q-44 5 -71.5 32.5t-27.5 69.5q0 43 30 73.5t73 30.5z
" />
    <glyph glyph-name="quotedblbase" unicode="&#x201e;" horiz-adv-x="694" 
d="M172 188q45 0 76 -31.5t31 -80.5q0 -86 -38.5 -179t-101.5 -163l-47 18q61 107 76 232q-43 5 -70.5 32.5t-27.5 69.5q0 43 29.5 72.5t72.5 29.5zM518 188q45 0 76 -31.5t31 -80.5q0 -86 -38.5 -179t-101.5 -163l-47 18q61 107 76 232q-43 5 -70.5 32.5t-27.5 69.5
q0 43 29.5 72.5t72.5 29.5z" />
    <glyph glyph-name="dagger" unicode="&#x2020;" horiz-adv-x="903" 
d="M387 1487h129v-418h354v-123h-354v-1083h-129v1083h-354v123h354v418z" />
    <glyph glyph-name="daggerdbl" unicode="&#x2021;" horiz-adv-x="903" 
d="M387 1487h129v-418h354v-123h-354v-543h354v-122h-354v-418h-129v418h-354v122h354v543h-354v123h354v418z" />
    <glyph glyph-name="bullet" unicode="&#x2022;" horiz-adv-x="727" 
d="M156 737q84 84 206 84q123 0 207 -84t84 -207q0 -122 -84 -206q-82 -82 -207 -82q-124 0 -206 82t-82 206q0 125 82 207z" />
    <glyph glyph-name="ellipsis" unicode="&#x2026;" horiz-adv-x="1204" 
d="M305 86q0 -44 -32 -76.5t-76 -32.5q-35 0 -62.5 20t-39.5 48t-7.5 61t29.5 58q24 26 58.5 31.5t63.5 -7t49 -40t17 -62.5zM713 86q0 -45 -32 -77t-79 -32t-78.5 32t-31.5 77q0 47 31.5 79t78.5 32t79 -32t32 -79zM1118 86q0 -45 -31 -77t-77 -32q-47 0 -79 31t-32 78
t32 79t79 32t77.5 -31.5t30.5 -79.5z" />
    <glyph glyph-name="perthousand" unicode="&#x2030;" horiz-adv-x="2469" 
d="M1219 1434h149l-907 -1434h-150zM401 1460q147 0 240 -100q96 -104 96 -252q0 -149 -96 -250q-94 -98 -240 -98q-145 0 -239 98t-94 250q0 151 94 252q93 100 239 100zM178 1108q0 -103 63 -170.5t160 -67.5q96 0 158 67.5t62 170.5q0 105 -62 173.5t-158 68.5
q-97 0 -160 -69t-63 -173zM1280 674q144 0 238 -101q96 -104 96 -251q0 -149 -96 -250q-94 -99 -238 -99q-148 0 -242 99q-94 98 -94 250q0 150 94 251t242 101zM1280 563q-98 0 -160.5 -68t-62.5 -173q0 -103 62.5 -170.5t160.5 -67.5q94 0 156.5 67.5t62.5 170.5
q0 104 -62.5 172.5t-156.5 68.5zM2068 674q144 0 238 -101q96 -104 96 -251q0 -149 -96 -250q-94 -99 -238 -99q-146 0 -241 99q-94 98 -94 250q0 150 94 251t241 101zM1845 322q0 -103 63 -170.5t160 -67.5q96 0 158 67.5t62 170.5q0 105 -62 173t-158 68q-97 0 -160 -68.5
t-63 -172.5z" />
    <glyph glyph-name="guilsinglleft" unicode="&#x2039;" horiz-adv-x="499" 
d="M334 913h137l-315 -401l315 -399h-137l-305 383v34z" />
    <glyph glyph-name="guilsinglright" unicode="&#x203a;" horiz-adv-x="499" 
d="M29 913h139l303 -383v-34l-303 -383h-139l317 399z" />
    <glyph glyph-name="fraction" unicode="&#x2044;" horiz-adv-x="237" 
d="M498 1434h149l-907 -1434h-150z" />
    <glyph glyph-name="zero.sups" unicode="&#x2070;" horiz-adv-x="745" 
d="M371 1653q138 0 214.5 -110t76.5 -304q0 -196 -76 -307t-215 -111q-136 0 -211.5 111t-75.5 307q0 193 75.5 303.5t211.5 110.5zM371 1548q-84 0 -128 -80.5t-44 -228.5q0 -149 44 -231t128 -82q85 0 130.5 82t45.5 231q0 148 -45 228.5t-131 80.5z" />
    <glyph glyph-name="four.sups" unicode="&#x2074;" horiz-adv-x="724" 
d="M408 1638h131v-540h118v-101h-118v-161h-113v161h-363v90zM426 1098v385l-27 -49l-213 -336h240z" />
    <glyph glyph-name="five.sups" unicode="&#x2075;" horiz-adv-x="712" 
d="M129 1638h465v-106h-352v-227q58 30 141 30q117 0 185.5 -65t68.5 -180q0 -120 -73 -194.5t-195 -74.5q-124 0 -194.5 61t-70.5 175h113q0 -64 40.5 -97.5t111.5 -33.5q74 0 115.5 43t41.5 116q0 70 -42 113t-115 43q-82 0 -140 -37h-100v434z" />
    <glyph glyph-name="six.sups" unicode="&#x2076;" horiz-adv-x="722" 
d="M377 1653q105 0 173.5 -60.5t72.5 -162.5h-113q-12 118 -137 118q-173 0 -176 -303q25 37 77 60.5t111 23.5q115 0 185.5 -70t70.5 -178q0 -116 -74 -188t-196 -72q-125 0 -201 82q-88 88 -88 314q0 436 295 436zM369 1229q-64 0 -112.5 -41.5t-49.5 -100.5v-6
q0 -63 46 -110t116 -47q69 0 113 43.5t44 111.5q0 64 -44.5 107t-112.5 43z" />
    <glyph glyph-name="seven.sups" unicode="&#x2077;" horiz-adv-x="624" 
d="M49 1638h514v-90l-346 -712h-123l338 694h-383v108z" />
    <glyph glyph-name="eight.sups" unicode="&#x2078;" horiz-adv-x="712" 
d="M604 1425q0 -63 -30 -109.5t-74 -66.5q131 -61 131 -192q0 -102 -78.5 -169t-196.5 -67t-196 67t-78 169q0 69 36 118t95 74q-43 21 -73.5 67.5t-30.5 108.5q0 99 69 163.5t178 64.5t178.5 -64.5t69.5 -163.5zM356 924q69 0 115.5 37.5t46.5 99.5t-47 101.5t-115 39.5
q-67 0 -113 -39.5t-46 -101.5t45.5 -99.5t113.5 -37.5zM455 1516q-37 35 -98.5 35t-98.5 -35t-37 -92.5t37 -92.5q38 -35 98.5 -35t98.5 35t38 92.5t-38 92.5z" />
    <glyph glyph-name="nine.sups" unicode="&#x2079;" horiz-adv-x="722" 
d="M350 1653q127 0 205 -78q86 -89 86 -318q0 -436 -297 -436q-105 0 -172.5 60.5t-71.5 162.5h113q15 -118 135 -118q175 0 178 305q-61 -82 -188 -82q-116 0 -186 68.5t-70 175.5q0 116 73.5 188t194.5 72zM352 1241q66 0 114.5 43.5t49.5 104.5v4q0 63 -47 110t-117 47
q-67 0 -111 -44.5t-44 -112.5q0 -64 44 -108t111 -44z" />
    <glyph glyph-name="n.sups" unicode="&#x207f;" horiz-adv-x="829" 
d="M459 1450q114 0 177.5 -71t63.5 -191v-453h-110v434q0 85 -41.5 131t-114.5 46q-80 0 -133 -61t-53 -159v-391h-109v701h99l6 -109q24 53 82 88t133 35z" />
    <glyph glyph-name="Euro" unicode="&#x20ac;" horiz-adv-x="1161" 
d="M324 590h352v-115h-338q37 -180 127 -277.5t225 -97.5q238 0 293 242h147q-55 -190 -158 -279.5t-282 -89.5q-193 0 -319.5 132t-169.5 370h-170v115h153q-4 54 -4 129t4 133h-153v115h170q43 235 169.5 364t319.5 129q362 0 438 -364h-145q-41 237 -293 237
q-134 0 -223.5 -95.5t-126.5 -270.5h336v-115h-352q-7 -75 -7 -133q0 -57 7 -129z" />
    <glyph glyph-name="afii61289" unicode="&#x2113;" horiz-adv-x="1189" 
d="M659 1524q138 0 217.5 -85.5t79.5 -228.5q0 -176 -122 -338q-111 -151 -347 -354v-205q0 -112 40 -164.5t137 -52.5q99 0 168.5 58.5t146.5 191.5l88 -55q-92 -158 -188 -234.5t-230 -76.5q-145 0 -208.5 73t-69.5 215q-9 9 -9 150q-74 -67 -200 -170l-68 96
q205 177 262 231v601q0 165 82 256.5t221 91.5zM657 1415q-85 0 -132.5 -60.5t-47.5 -172.5v-527q180 156 272.5 289t92.5 258q0 103 -47.5 158t-137.5 55z" />
    <glyph glyph-name="trademark" unicode="&#x2122;" horiz-adv-x="1251" 
d="M43 1434h438v-99h-164v-475h-106v475h-168v99zM1042 1434h121v-574h-104v379l-17 -49l-143 -330h-80l-141 330l-19 49v-379h-106v574h123l170 -385l14 -35l12 35z" />
    <glyph glyph-name="Omega" unicode="&#x2126;" horiz-adv-x="1757" 
d="M1550 807q0 -384 -344 -674h475v-133h-675v121q405 273 405 682q0 254 -139 414q-138 159 -381 159t-383 -162q-139 -160 -139 -411q0 -409 405 -682v-121h-676v133h477q-344 290 -344 674q0 308 181 504q180 198 479 198t479 -198q180 -195 180 -504z" />
    <glyph glyph-name="estimated" unicode="&#x212e;" horiz-adv-x="1208" 
d="M631 1044q-84 0 -163.5 -26.5t-127.5 -69.5q-66 -48 -66 -117v-204h670v213q0 90 -57 127q-103 77 -256 77zM631 1098q220 0 362 -142q144 -138 144 -385h-863v-323q0 -76 62 -117q124 -100 295 -100q279 0 454 260l45 -29q-178 -285 -499 -285q-237 0 -400 156
q-159 156 -159 404q0 247 159 403q166 158 400 158z" />
    <glyph glyph-name="partialdiff" unicode="&#x2202;" horiz-adv-x="1085" 
d="M506 1520q508 0 508 -879q0 -286 -70 -414q-128 -241 -399 -241q-203 0 -336 133q-133 136 -133 344q0 207 131 338q133 133 330 133q120 0 210 -50t132 -122q-6 302 -103 468.5t-280 166.5q-185 0 -293 -156l-97 88q150 191 400 191zM547 815q-149 0 -242 -100
q-96 -101 -96 -252q0 -154 96 -258q94 -101 242 -101q144 0 235 101q95 103 95 258q0 152 -95 252q-90 100 -235 100z" />
    <glyph glyph-name="uni2206" unicode="&#x2206;" horiz-adv-x="1476" 
d="M74 0l665 1319l664 -1319h-1329zM1221 111l-482 956l-483 -956h965z" />
    <glyph glyph-name="product" unicode="&#x220f;" horiz-adv-x="1392" 
d="M72 1434h1249v-123h-287v-1553h-123v1553h-430v-1553h-123v1553h-286v123z" />
    <glyph glyph-name="summation" unicode="&#x2211;" horiz-adv-x="1249" 
d="M98 1434h1026v-123h-848l408 -570l-420 -618h887v-123h-1059v82l443 657l-437 613v82z" />
    <glyph glyph-name="minus" unicode="&#x2212;" horiz-adv-x="966" 
d="M61 776h844v-119h-844v119z" />
    <glyph glyph-name="radical" unicode="&#x221a;" horiz-adv-x="1427" 
d="M754 145l487 1274l115 -41l-596 -1521l-354 698l-265 -152l-61 103l383 227z" />
    <glyph glyph-name="infinity" unicode="&#x221e;" horiz-adv-x="1513" 
d="M1116 928q148 0 240 -103t92 -250q0 -148 -92 -251q-91 -101 -240 -101q-106 0 -194 66q-50 37 -68 55l-66 66l-14 14l-45 47l-45 -49q-153 -166 -301 -166q-134 0 -216.5 90t-82.5 227q0 139 82.5 230.5t216.5 91.5q80 0 145 -40t154 -132l47 -51l33 41
q92 109 173 161.5t181 53.5zM1116 805q-137 0 -278 -187l-35 -47l43 -49l76 -82q33 -33 88.5 -63.5t105.5 -30.5q93 0 153 65t60 164t-60 164.5t-153 65.5zM381 778q-85 0 -134.5 -57.5t-49.5 -147.5q0 -88 50.5 -144t133.5 -56q113 0 233 147l41 51l-41 54
q-132 153 -233 153z" />
    <glyph glyph-name="integral" unicode="&#x222b;" horiz-adv-x="888" 
d="M645 1536q117 0 205 -49l-37 -111q-76 43 -154 43q-153 0 -153 -217v-1251q0 -179 -64 -260.5t-200 -81.5q-138 0 -224 51l43 111q70 -43 162 -43q164 0 164 223v1251q0 174 63.5 254t194.5 80z" />
    <glyph glyph-name="approxequal" unicode="&#x2248;" horiz-adv-x="1171" 
d="M381 674q68 0 129 -28t100 -68q99 -95 201 -95q157 0 215 174l94 -51q-85 -248 -309 -248q-69 0 -130.5 28t-100.5 69t-92 68.5t-109 27.5q-152 0 -213 -178l-94 53q88 248 309 248zM381 1087q68 0 129 -28t100 -68q41 -40 94.5 -67t106.5 -27q154 0 213 176l96 -53
q-86 -246 -311 -246q-68 0 -129 27.5t-100 66.5q-40 41 -92.5 69t-108.5 28q-154 0 -213 -177l-96 52q85 247 311 247z" />
    <glyph glyph-name="notequal" unicode="&#x2260;" horiz-adv-x="940" 
d="M477 565h428v-119h-471l-74 -204h-129l74 204h-244v119h287l111 301h-398v119h441l82 227h131l-84 -227h274v-119h-317z" />
    <glyph glyph-name="lessequal" unicode="&#x2264;" horiz-adv-x="681" 
d="M461 1186h174l-418 -350l418 -349h-174l-414 344v9zM47 367h588v-109h-588v109z" />
    <glyph glyph-name="greaterequal" unicode="&#x2265;" horiz-adv-x="681" 
d="M47 1186h172l416 -346v-9l-416 -344h-172l416 349zM47 367h588v-109h-588v109z" />
    <glyph glyph-name="lozenge" unicode="&#x25ca;" horiz-adv-x="1126" 
d="M522 1511h84l467 -823l-467 -821h-84l-469 821zM942 688l-377 635l-379 -635l379 -637z" />
    <glyph glyph-name="commaaccent" unicode="&#xf6c3;" horiz-adv-x="380" 
d="M295 -188q0 -81 -38.5 -168.5t-100.5 -151.5l-43 23q59 93 71 202q-43 5 -70.5 33t-27.5 70q0 44 30 74t74 30q45 0 75 -31.5t30 -80.5z" />
    <glyph glyph-name="g.alt" horiz-adv-x="1228" 
d="M563 928q-165 0 -260 -115q-96 -116 -96 -297q0 -182 98 -295q103 -115 262 -115q145 0 246 107q105 108 105 289v43q0 173 -105 278q-102 105 -250 105zM551 1051q124 0 223.5 -58t145.5 -141l4 176h120v-1014q0 -217 -126 -346q-125 -131 -343 -131q-182 0 -302.5 85
t-157.5 253h135q53 -219 325 -219q162 0 251 92.5t89 263.5v166q-40 -82 -139 -138t-223 -56q-217 0 -348 149q-129 150 -129 383q0 235 129 385t346 150z" />
    <glyph glyph-name="a.alt" horiz-adv-x="1210" 
d="M569 928q-162 0 -264 -117q-98 -113 -98 -297q0 -183 98 -299q99 -117 262 -117q146 0 248 105q105 108 105 282v47q0 178 -103 287t-248 109zM557 1051q128 0 224 -56t143 -145l4 178h119v-1028h-119l-4 174q-47 -84 -146 -140.5t-223 -56.5q-216 0 -350 152
q-129 150 -129 385q0 236 131 385q134 152 350 152z" />
    <glyph glyph-name="parenleft.cap" horiz-adv-x="536" 
d="M416 1542l94 -69q-148 -186 -211 -361q-66 -183 -66 -414q0 -230 66 -413q63 -175 211 -361l-94 -69q-158 201 -234 401.5t-76 441.5q0 242 76 443t234 401z" />
    <glyph glyph-name="parenright.cap" horiz-adv-x="536" 
d="M27 1473l94 69q158 -200 233.5 -401t75.5 -443t-75.5 -442.5t-233.5 -400.5l-94 69q148 186 211 361q65 180 65 413q0 234 -65 414q-63 175 -211 361z" />
    <glyph glyph-name="bracketleft.cap" horiz-adv-x="542" 
d="M143 1507h349v-118h-224v-1387h224v-119h-349v1624z" />
    <glyph glyph-name="bracketright.cap" horiz-adv-x="542" 
d="M51 1507h348v-1624h-348v119h221v1387h-221v118z" />
    <glyph glyph-name="braceleft.cap" horiz-adv-x="555" 
d="M440 1507h64v-118h-62q-133 0 -133 -148v-350q0 -151 -110 -197q110 -46 110 -194v-350q0 -148 133 -148h62v-119h-64q-123 0 -188.5 70.5t-65.5 196.5v339q0 148 -133 148h-37v117h37q133 0 133 147v340q0 126 65.5 196t188.5 70z" />
    <glyph glyph-name="braceright.cap" horiz-adv-x="555" 
d="M51 1507h64q123 0 188.5 -70t65.5 -196v-340q0 -147 133 -147h37v-117h-37q-133 0 -133 -148v-339q0 -126 -65.5 -196.5t-188.5 -70.5h-64v119h62q133 0 133 148v350q0 148 110 194q-110 46 -110 197v350q0 148 -133 148h-62v118z" />
    <glyph glyph-name="hyphen.cap" horiz-adv-x="747" 
d="M51 735h645v-117h-645v117z" />
    <glyph glyph-name="endash.cap" horiz-adv-x="1054" 
d="M51 733h953v-117h-953v117z" />
    <glyph glyph-name="emdash.cap" horiz-adv-x="1443" 
d="M51 735h1342v-117h-1342v117z" />
    <glyph glyph-name="at.cap" horiz-adv-x="1634" 
d="M797 1026q-126 0 -200.5 -86t-74.5 -227q0 -140 73.5 -225t197.5 -85q118 0 196 76.5t78 204.5v47q0 133 -78 214t-192 81zM821 1460q329 0 531 -211t202 -534q0 -205 -80 -311.5t-204 -106.5q-158 0 -195 131q-39 -59 -117 -97t-176 -38q-170 0 -274 119
q-105 120 -105 301q0 183 105 303q104 119 276 119q100 0 175 -44.5t108 -111.5l4 137h107v-608q0 -111 102 -111q164 0 164 318q0 278 -172 459q-173 182 -451 182q-283 0 -459 -182q-172 -181 -172 -459q0 -280 172 -461q176 -182 459 -182q152 0 279 59l37 -100
q-143 -64 -316 -64q-333 0 -538 211q-203 212 -203 537q0 327 203 536q206 209 538 209z" />
    <glyph glyph-name="periodcentered.cap" horiz-adv-x="391" 
d="M197 823q45 0 76.5 -30.5t31.5 -77.5q0 -48 -30.5 -79.5t-77.5 -31.5t-79 32t-32 79t31.5 77.5t79.5 30.5z" />
    <glyph glyph-name="exclamdown.cap" 
d="M301 0h-129v1038h129v-1038zM125 1348q0 45 32 76.5t79 31.5t78.5 -30.5t31.5 -77.5t-31.5 -79t-78.5 -32t-79 32t-32 79z" />
    <glyph glyph-name="questiondown.cap" horiz-adv-x="819" 
d="M420 -29q-166 0 -281 103q-112 103 -112 286q0 95 32.5 176t85.5 134q21 21 59.5 55.5t61.5 57.5t48.5 53t38 61t12.5 64v83h129v-86q0 -52 -19 -97.5t-48.5 -80.5t-66 -68t-73 -68t-66 -73.5t-48.5 -91.5t-19 -114q0 -131 73 -205t191 -74q129 0 200.5 75.5t71.5 215.5
h127q-1 -191 -110.5 -298.5t-286.5 -107.5zM317 1354q0 45 32 76.5t79 31.5q48 0 79.5 -30.5t31.5 -77.5t-32 -79t-79 -32t-79 32t-32 79z" />
    <glyph glyph-name="endash_guilsinglright" horiz-adv-x="1343" 
d="M610 1012l70 84l575 -525l-575 -524l-70 84l424 383h-946v115h948z" />
    <glyph glyph-name="emdash_guilsinglright" horiz-adv-x="2019" 
d="M1284 1012l68 84l581 -525l-581 -524l-68 84l424 383h-1620v115h1622z" />
    <glyph glyph-name="guilsinglleft_endash" horiz-adv-x="1343" 
d="M88 571l580 525l67 -84l-426 -383h946v-115h-944l424 -383l-67 -84z" />
    <glyph glyph-name="guilsinglleft_emdash" horiz-adv-x="2019" 
d="M88 571l580 525l67 -84l-426 -383h1624v-115h-1622l424 -383l-67 -84z" />
    <glyph glyph-name="guilsinglleft.cap" horiz-adv-x="499" 
d="M334 1098h137l-315 -402l315 -399h-137l-305 383v35z" />
    <glyph glyph-name="guilsinglright.cap" horiz-adv-x="499" 
d="M29 1098h139l303 -383v-35l-303 -383h-139l317 399z" />
    <glyph glyph-name="guillemotleft.cap" horiz-adv-x="903" 
d="M324 1098h137l-305 -402l305 -399h-137l-295 383v35zM735 1098h139l-307 -402l307 -399h-139l-295 383v35z" />
    <glyph glyph-name="guillemotright.cap" horiz-adv-x="903" 
d="M29 1098h139l293 -383v-35l-293 -383h-139l307 399zM440 1098h140l294 -383v-35l-294 -383h-140l308 399z" />
    <glyph glyph-name="germandbls.cap" horiz-adv-x="1239" 
d="M662 1460q139 0 238.5 -42t193.5 -136l-338 -451q186 -9 299 -122q114 -114 114 -289q0 -199 -129.5 -316.5t-359.5 -117.5q-113 0 -203 20l12 129q86 -22 189 -22q168 0 260 77.5t92 227.5q0 147 -108.5 228t-303.5 81l-43 51l347 467q-88 88 -263 88q-150 0 -251 -98
q-101 -94 -101 -266v-969h-137v967q0 216 135 354q136 139 357 139z" />
    <glyph glyph-name="grave.cap" horiz-adv-x="460" 
d="M20 1708h201l219 -211h-161z" />
    <glyph glyph-name="acute.cap" horiz-adv-x="460" 
d="M240 1708h200l-256 -211h-164z" />
    <glyph glyph-name="circumflex.cap" horiz-adv-x="698" 
d="M303 1710h94l281 -215h-180l-150 117l-149 -117h-179z" />
    <glyph glyph-name="caron.cap" horiz-adv-x="698" 
d="M498 1704h180l-281 -215h-94l-283 215h179l149 -115z" />
    <glyph glyph-name="tilde.cap" horiz-adv-x="690" 
d="M221 1737q45 0 79.5 -14.5t55 -35.5t37.5 -42t38 -35.5t46 -14.5q94 0 94 123h99q0 -106 -51.5 -167.5t-147.5 -61.5q-38 0 -69 10.5t-49.5 26.5t-36.5 34.5t-31 34.5t-31.5 26.5t-40.5 10.5q-94 0 -94 -125h-99q0 107 51.5 168.5t149.5 61.5z" />
    <glyph glyph-name="dieresis.cap" horiz-adv-x="591" 
d="M115 1688q56 4 79.5 -44t0 -96.5t-79.5 -44.5q-39 0 -67 27t-28 65q0 39 27 66t68 27zM479 1688q56 4 79.5 -44t0 -96.5t-79.5 -44.5q-38 0 -66 27t-28 65q0 39 26.5 66t67.5 27z" />
    <glyph glyph-name="macron.cap" horiz-adv-x="559" 
d="M20 1632h519v-110h-519v110z" />
    <glyph glyph-name="breve.cap" horiz-adv-x="595" 
d="M459 1726h116q0 -104 -76.5 -168.5t-199.5 -64.5q-125 0 -202 64.5t-77 168.5h115q0 -60 44.5 -95.5t119.5 -35.5q73 0 116.5 35.5t43.5 95.5z" />
    <glyph glyph-name="ring.cap" horiz-adv-x="409" 
d="M268 1735q-26 26 -65.5 26t-65.5 -26q-25 -26 -25 -65.5t25 -65.5q26 -26 65.5 -26t65.5 26t26 65.5t-26 65.5zM203 1849q82 0 135 -51t53 -129t-53.5 -130t-134.5 -52q-80 0 -133.5 52t-53.5 130t53.5 129t133.5 51z" />
    <glyph glyph-name="hungarumlaut.cap" horiz-adv-x="645" 
d="M186 1706h148l-187 -215h-127zM477 1706h148l-185 -215h-131z" />
    <glyph glyph-name="dotaccent.cap" horiz-adv-x="235" 
d="M49 1669q29 29 70 29t67 -29q29 -26 29 -67t-29 -70q-26 -26 -67 -26t-70 26q-29 29 -29 70t29 67z" />
    <glyph glyph-name="aogonek.alt" horiz-adv-x="1210" 
d="M557 1051q128 0 224 -56t143 -145l4 178h119v-1028h-3q-122 -61 -122 -172q0 -60 31 -92.5t87 -32.5q50 0 88 18l29 -92q-43 -24 -121 -24q-95 0 -156 60t-61 161q0 123 107 199l-2 149q-47 -84 -146 -140.5t-223 -56.5q-216 0 -350 152q-129 150 -129 385q0 236 131 385
q134 152 350 152zM569 928q-162 0 -264 -117q-98 -113 -98 -297q0 -183 98 -299q99 -117 262 -117q146 0 248 105q105 108 105 282v47q0 178 -103 287t-248 109z" />
    <glyph glyph-name="aringacute.alt" horiz-adv-x="1210" 
d="M557 1051q128 0 224 -56t143 -145l4 178h119v-1028h-119l-4 174q-47 -84 -146 -140.5t-223 -56.5q-216 0 -350 152q-129 150 -129 385q0 236 131 385q134 152 350 152zM569 928q-162 0 -264 -117q-98 -113 -98 -297q0 -183 98 -299q99 -117 262 -117q146 0 248 105
q105 108 105 282v47q0 178 -103 287t-248 109zM659 1708h201l-207 -170q62 -23 97.5 -75t35.5 -120q0 -87 -58 -143.5t-150 -56.5t-150.5 56.5t-58.5 143.5q0 120 96 179zM465 1346q0 -45 33 -79t80 -34q48 0 80 33.5t32 79.5q0 50 -31 81t-81 31q-49 0 -81 -32t-32 -80z
" />
    <glyph glyph-name="aacute.alt" horiz-adv-x="1210" 
d="M569 928q-162 0 -264 -117q-98 -113 -98 -297q0 -183 98 -299q99 -117 262 -117q146 0 248 105q105 108 105 282v47q0 178 -103 287t-248 109zM557 1051q128 0 224 -56t143 -145l4 178h119v-1028h-119l-4 174q-47 -84 -146 -140.5t-223 -56.5q-216 0 -350 152
q-129 150 -129 385q0 236 131 385q134 152 350 152zM731 1499h166l-281 -323h-135z" />
    <glyph glyph-name="abreve.alt" horiz-adv-x="1210" 
d="M569 928q-162 0 -264 -117q-98 -113 -98 -297q0 -183 98 -299q99 -117 262 -117q146 0 248 105q105 108 105 282v47q0 178 -103 287t-248 109zM557 1051q128 0 224 -56t143 -145l4 178h119v-1028h-119l-4 174q-47 -84 -146 -140.5t-223 -56.5q-216 0 -350 152
q-129 150 -129 385q0 236 131 385q134 152 350 152zM725 1444h115q0 -118 -78 -195.5t-199 -77.5q-124 0 -201 77t-77 196h114q0 -75 45 -122.5t119 -47.5q71 0 116.5 48.5t45.5 121.5z" />
    <glyph glyph-name="adieresis.alt" horiz-adv-x="1210" 
d="M569 928q-162 0 -264 -117q-98 -113 -98 -297q0 -183 98 -299q99 -117 262 -117q146 0 248 105q105 108 105 282v47q0 178 -103 287t-248 109zM557 1051q128 0 224 -56t143 -145l4 178h119v-1028h-119l-4 174q-47 -84 -146 -140.5t-223 -56.5q-216 0 -350 152
q-129 150 -129 385q0 236 131 385q134 152 350 152zM313 1358q29 29 68 29t65 -29q26 -26 26 -65.5t-26 -65.5t-65 -26t-68 26q-26 26 -26 65.5t26 65.5zM678 1358q29 29 68 29t65 -29q26 -26 26 -65.5t-26 -65.5t-65 -26t-68 26q-26 26 -26 65.5t26 65.5z" />
    <glyph glyph-name="agrave.alt" horiz-adv-x="1210" 
d="M569 928q-162 0 -264 -117q-98 -113 -98 -297q0 -183 98 -299q99 -117 262 -117q146 0 248 105q105 108 105 282v47q0 178 -103 287t-248 109zM557 1051q128 0 224 -56t143 -145l4 178h119v-1028h-119l-4 174q-47 -84 -146 -140.5t-223 -56.5q-216 0 -350 152
q-129 150 -129 385q0 236 131 385q134 152 350 152zM219 1499h166l250 -323h-135z" />
    <glyph glyph-name="amacron.alt" horiz-adv-x="1210" 
d="M569 928q-162 0 -264 -117q-98 -113 -98 -297q0 -183 98 -299q99 -117 262 -117q146 0 248 105q105 108 105 282v47q0 178 -103 287t-248 109zM557 1051q128 0 224 -56t143 -145l4 178h119v-1028h-119l-4 174q-47 -84 -146 -140.5t-223 -56.5q-216 0 -350 152
q-129 150 -129 385q0 236 131 385q134 152 350 152zM303 1341h518v-112h-518v112z" />
    <glyph glyph-name="aring.alt" horiz-adv-x="1210" 
d="M569 928q-162 0 -264 -117q-98 -113 -98 -297q0 -183 98 -299q99 -117 262 -117q146 0 248 105q105 108 105 282v47q0 178 -103 287t-248 109zM557 1051q128 0 224 -56t143 -145l4 178h119v-1028h-119l-4 174q-47 -84 -146 -140.5t-223 -56.5q-216 0 -350 152
q-129 150 -129 385q0 236 131 385q134 152 350 152zM768 1343q0 -87 -58.5 -143.5t-150.5 -56.5t-150.5 56.5t-58.5 143.5q0 91 58.5 149t150.5 58t150.5 -58t58.5 -149zM446 1346q0 -45 33 -79t80 -34q48 0 80.5 34t32.5 79q0 49 -31.5 80.5t-81.5 31.5q-49 0 -81 -32
t-32 -80z" />
    <glyph glyph-name="atilde.alt" horiz-adv-x="1210" 
d="M569 928q-162 0 -264 -117q-98 -113 -98 -297q0 -183 98 -299q99 -117 262 -117q146 0 248 105q105 108 105 282v47q0 178 -103 287t-248 109zM557 1051q128 0 224 -56t143 -145l4 178h119v-1028h-119l-4 174q-47 -84 -146 -140.5t-223 -56.5q-216 0 -350 152
q-129 150 -129 385q0 236 131 385q134 152 350 152zM438 1430q44 0 77.5 -16.5t54 -39.5t38 -46t39 -39.5t47.5 -16.5q94 0 94 139h99q0 -113 -51.5 -179.5t-147.5 -66.5q-45 0 -79 16.5t-54.5 40t-38 47t-39 40t-47.5 16.5q-94 0 -94 -141h-98q0 115 51 180.5t149 65.5z
" />
    <glyph glyph-name="gbreve.alt" horiz-adv-x="1228" 
d="M721 1444h115q0 -118 -78 -195.5t-199 -77.5q-124 0 -201 77t-77 196h114q0 -75 45 -122.5t119 -47.5q71 0 116.5 48.5t45.5 121.5zM563 928q-165 0 -260 -115q-96 -116 -96 -297q0 -182 98 -295q103 -115 262 -115q145 0 246 107q105 108 105 289v43q0 173 -105 278
q-102 105 -250 105zM551 1051q124 0 223.5 -58t145.5 -141l4 176h120v-1014q0 -217 -126 -346q-125 -131 -343 -131q-182 0 -302.5 85t-157.5 253h135q53 -219 325 -219q162 0 251 92.5t89 263.5v166q-40 -82 -139 -138t-223 -56q-217 0 -348 149q-129 150 -129 383
q0 235 129 385t346 150z" />
    <glyph glyph-name="gcircumflex.alt" horiz-adv-x="1228" 
d="M563 928q-165 0 -260 -115q-96 -116 -96 -297q0 -182 98 -295q103 -115 262 -115q145 0 246 107q105 108 105 289v43q0 173 -105 278q-102 105 -250 105zM551 1051q124 0 223.5 -58t145.5 -141l4 176h120v-1014q0 -217 -126 -346q-125 -131 -343 -131q-182 0 -302.5 85
t-157.5 253h135q53 -219 325 -219q162 0 251 92.5t89 263.5v166q-40 -82 -139 -138t-223 -56q-217 0 -348 149q-129 150 -129 383q0 235 129 385t346 150zM522 1499h72l274 -323h-149l-160 202l-162 -202h-149z" />
    <glyph glyph-name="gcommaaccent.alt" horiz-adv-x="1228" 
d="M563 928q-165 0 -260 -115q-96 -116 -96 -297q0 -182 98 -295q103 -115 262 -115q145 0 246 107q105 108 105 289v43q0 173 -105 278q-102 105 -250 105zM551 1051q124 0 223.5 -58t145.5 -141l4 176h120v-1014q0 -217 -126 -346q-125 -131 -343 -131q-182 0 -302.5 85
t-157.5 253h135q53 -219 325 -219q162 0 251 92.5t89 263.5v166q-40 -82 -139 -138t-223 -56q-217 0 -348 149q-129 150 -129 383q0 235 129 385t346 150zM606 1610l47 -19q-61 -110 -73 -231q42 -5 70 -33.5t28 -69.5q0 -43 -31 -73.5t-74 -30.5q-45 0 -74.5 32t-29.5 83
q3 184 137 342z" />
    <glyph glyph-name="gdotaccent.alt" horiz-adv-x="1228" 
d="M563 928q-165 0 -260 -115q-96 -116 -96 -297q0 -182 98 -295q103 -115 262 -115q145 0 246 107q105 108 105 289v43q0 173 -105 278q-102 105 -250 105zM551 1051q124 0 223.5 -58t145.5 -141l4 176h120v-1014q0 -217 -126 -346q-125 -131 -343 -131q-182 0 -302.5 85
t-157.5 253h135q53 -219 325 -219q162 0 251 92.5t89 263.5v166q-40 -82 -139 -138t-223 -56q-217 0 -348 149q-129 150 -129 383q0 235 129 385t346 150zM487 1380q31 31 72 31t70 -31q31 -29 31 -69.5t-31 -69.5q-29 -29 -70 -29t-72 29q-29 29 -29 69.5t29 69.5z" />
    <glyph glyph-name="acircumflex.alt" horiz-adv-x="1210" 
d="M569 928q-162 0 -264 -117q-98 -113 -98 -297q0 -183 98 -299q99 -117 262 -117q146 0 248 105q105 108 105 282v47q0 178 -103 287t-248 109zM557 1051q128 0 224 -56t143 -145l4 178h119v-1028h-119l-4 174q-47 -84 -146 -140.5t-223 -56.5q-216 0 -350 152
q-129 150 -129 385q0 236 131 385q134 152 350 152zM539 1499h71l275 -323h-150l-160 202l-161 -202h-150z" />
    <glyph glyph-name="zero.tnum" horiz-adv-x="1124" 
d="M561 1133q217 0 344 -160q125 -155 125 -418q0 -264 -125 -422q-127 -160 -344 -160q-215 0 -342 160q-125 158 -125 422q0 263 125 418q127 160 342 160zM561 1008q-152 0 -241 -124t-89 -329q0 -206 89 -331.5t241 -125.5q153 0 241.5 125t88.5 332q0 206 -88 329.5
t-242 123.5z" />
    <glyph glyph-name="one.tnum" horiz-adv-x="653" 
d="M381 1106h108v-1106h-135v842h-301v98q169 0 234 33q71 35 94 133z" />
    <glyph glyph-name="two.tnum" horiz-adv-x="987" 
d="M492 1133q181 0 283 -99.5t102 -267.5q0 -221 -222 -404l-286 -235h544v-127h-792v90l450 371q93 77 129.5 141t36.5 160q0 244 -245 244q-109 0 -175 -70t-65 -197h-137q0 180 103 287t274 107z" />
    <glyph glyph-name="three.tnum" horiz-adv-x="1073" 
d="M913 748q0 -121 -59.5 -202t-153.5 -112q113 -27 188 -122t75 -230q0 -173 -119 -283q-115 -112 -301 -112q-208 0 -327.5 112t-119.5 312h133q1 -148 85 -222.5t231 -74.5q124 0 201 74t77 196q0 139 -100.5 214t-286.5 75h-26v123h26q177 0 257.5 59.5t80.5 189.5
q0 123 -64 192t-184 69q-119 0 -189.5 -75.5t-70.5 -217.5h-135q0 192 107.5 306t287.5 114q177 0 282 -107.5t105 -277.5z" />
    <glyph glyph-name="four.tnum" horiz-adv-x="1071" 
d="M655 1106h146v-975h211v-125h-211v-293h-135v293h-605v111zM666 131v750l-50 -90l-399 -660h449z" />
    <glyph glyph-name="five.tnum" horiz-adv-x="1081" 
d="M186 1106h740v-127h-602v-467q94 61 249 61q197 0 314 -120t117 -310q0 -197 -119 -325q-116 -131 -318 -131q-195 0 -308.5 105t-113.5 298h136q1 -137 76.5 -206.5t209.5 -69.5q138 0 217.5 88.5t79.5 236.5q0 141 -80 225.5t-219 84.5q-148 0 -260 -74h-119v731z" />
    <glyph glyph-name="six.tnum" horiz-adv-x="1101" 
d="M588 1419q167 0 275.5 -100.5t115.5 -269.5h-137q-27 243 -258 243q-166 0 -248 -146.5t-86 -461.5q42 79 133 131q95 53 201 53q196 0 311 -127q117 -126 117 -313q0 -195 -119 -326q-120 -129 -315 -129t-326 140q-139 151 -139 542q0 382 115.5 573t359.5 191z
M575 743q-125 0 -217 -92q-90 -90 -90 -223q0 -126 86 -229q85 -101 221 -101q133 0 216 92q81 93 81 236q0 135 -81 225q-83 92 -216 92z" />
    <glyph glyph-name="seven.tnum" horiz-adv-x="974" 
d="M82 1106h833v-111l-604 -1282h-147l596 1264h-678v129z" />
    <glyph glyph-name="eight.tnum" horiz-adv-x="1105" 
d="M553 1419q178 0 285 -110q110 -107 110 -273q0 -116 -55.5 -200.5t-132.5 -116.5q233 -102 233 -346q0 -174 -125 -287q-122 -113 -315 -113q-192 0 -317 113t-125 287q0 125 64.5 216.5t168.5 129.5q-78 35 -132 118.5t-54 198.5q0 165 108 273q107 110 287 110zM553 98
q126 0 215 74q88 76 88 203q0 125 -90 203q-89 77 -213 77q-126 0 -215 -77q-88 -76 -88 -203q0 -125 85.5 -201t217.5 -76zM553 1292q-116 0 -188 -71t-72 -187q0 -115 72 -183.5t188 -68.5t187 68.5t71 183.5q0 116 -72 187t-186 71z" />
    <glyph glyph-name="nine.tnum" horiz-adv-x="1101" 
d="M512 -313q-167 0 -275.5 100.5t-115.5 269.5h137q27 -243 258 -243q165 0 247.5 146.5t86.5 459.5q-42 -79 -135 -131q-89 -51 -199 -51q-198 0 -313 124q-115 127 -115 316q0 195 119 323q120 132 315 132t326 -140q139 -151 139 -542q0 -382 -115.5 -573t-359.5 -191z
M524 362q126 0 215 89t92 219v8q0 124 -86 227t-221 103q-132 0 -215 -95q-82 -91 -82 -233q0 -134 82 -225q84 -93 215 -93z" />
    <glyph glyph-name="zero.dnom" horiz-adv-x="745" 
d="M371 817q138 0 214.5 -110t76.5 -304q0 -196 -76 -306.5t-215 -110.5q-136 0 -211.5 110.5t-75.5 306.5q0 193 75.5 303.5t211.5 110.5zM371 713q-84 0 -128 -81t-44 -229q0 -149 44 -231t128 -82q85 0 130.5 82t45.5 231q0 148 -45.5 229t-130.5 81z" />
    <glyph glyph-name="one.dnom" horiz-adv-x="479" 
d="M270 803h86v-803h-112v616h-181v86q100 0 147 22.5t60 78.5z" />
    <glyph glyph-name="two.dnom" horiz-adv-x="655" 
d="M330 817q116 0 179.5 -59t63.5 -164q0 -112 -104 -234l-219 -254h336v-106h-492v82l277 319q88 101 88 187q0 125 -131 125q-59 0 -96 -38t-37 -108h-113q0 114 68.5 182t179.5 68z" />
    <glyph glyph-name="three.dnom" horiz-adv-x="710" 
d="M350 817q111 0 177.5 -63.5t66.5 -161.5q0 -68 -33.5 -112.5t-87.5 -63.5q65 -18 107.5 -69.5t42.5 -125.5q0 -105 -74 -170t-193 -65q-128 0 -200 64.5t-72 180.5h113q0 -70 43 -106.5t118 -36.5q68 0 110 38t42 99q0 142 -203 142h-31v96h29q174 0 174 125
q0 58 -34 91.5t-95 33.5t-98 -36t-37 -102h-113q0 113 66.5 177.5t181.5 64.5z" />
    <glyph glyph-name="four.dnom" horiz-adv-x="724" 
d="M408 803h131v-541h118v-100h-118v-162h-113v162h-363v90zM426 262v385l-27 -49l-213 -336h240z" />
    <glyph glyph-name="five.dnom" horiz-adv-x="712" 
d="M129 803h465v-107h-352v-227q60 31 141 31q116 0 185 -65.5t69 -180.5q0 -120 -73 -194t-195 -74q-124 0 -194.5 60.5t-70.5 174.5h113q0 -64 40.5 -97.5t111.5 -33.5q74 0 115.5 43.5t41.5 116.5q0 70 -42 113t-115 43q-82 0 -140 -37h-100v434z" />
    <glyph glyph-name="six.dnom" horiz-adv-x="722" 
d="M377 817q105 0 173.5 -60.5t72.5 -162.5h-113q-12 119 -137 119q-173 0 -176 -303q25 37 77 60.5t111 23.5q115 0 185.5 -70t70.5 -178q0 -116 -74 -188t-196 -72q-125 0 -201 82q-88 88 -88 313q0 436 295 436zM369 393q-64 0 -112.5 -41t-49.5 -100v-6q0 -64 46 -111
t116 -47q69 0 113 44t44 112q0 64 -44.5 106.5t-112.5 42.5z" />
    <glyph glyph-name="seven.dnom" horiz-adv-x="624" 
d="M49 803h514v-90l-346 -713h-123l338 694h-383v109z" />
    <glyph glyph-name="eight.dnom" horiz-adv-x="712" 
d="M604 590q0 -63 -30 -109.5t-74 -66.5q131 -61 131 -193q0 -102 -78.5 -168.5t-196.5 -66.5t-196 66.5t-78 168.5q0 69 36 118.5t95 74.5q-43 21 -73.5 67.5t-30.5 108.5q0 99 69 163t178 64q110 0 179 -64t69 -163zM356 88q69 0 115.5 37.5t46.5 99.5t-47.5 102
t-114.5 40t-113 -40t-46 -102t45.5 -99.5t113.5 -37.5zM455 680q-37 35 -98.5 35t-98.5 -35t-37 -92t37 -92q38 -35 98.5 -35t98.5 35t38 92t-38 92z" />
    <glyph glyph-name="nine.dnom" horiz-adv-x="722" 
d="M350 817q127 0 205 -78q86 -89 86 -317q0 -436 -297 -436q-105 0 -172.5 60.5t-71.5 162.5h113q15 -119 135 -119q175 0 178 305q-61 -82 -188 -82q-116 0 -186 68.5t-70 175.5q0 116 73.5 188t194.5 72zM352 406q66 0 114.5 43t49.5 104v4q0 63 -47 110.5t-117 47.5
q-67 0 -111 -45t-44 -113q0 -64 44 -107.5t111 -43.5z" />
    <glyph glyph-name="zero.subs" horiz-adv-x="745" 
d="M371 612q138 0 214.5 -110t76.5 -303q0 -196 -76 -307t-215 -111q-136 0 -211.5 111t-75.5 307q0 193 75.5 303t211.5 110zM371 508q-84 0 -128 -80.5t-44 -228.5q0 -149 44 -231.5t128 -82.5q85 0 130.5 82.5t45.5 231.5q0 148 -45 228.5t-131 80.5z" />
    <glyph glyph-name="one.subs" horiz-adv-x="479" 
d="M270 598h86v-803h-112v617h-181v86q100 0 147 22t60 78z" />
    <glyph glyph-name="two.subs" horiz-adv-x="655" 
d="M330 612q116 0 179.5 -59t63.5 -164q0 -111 -104 -233l-219 -254h336v-107h-492v82l277 320q88 101 88 186q0 125 -131 125q-59 0 -96 -38t-37 -108h-113q0 114 68.5 182t179.5 68z" />
    <glyph glyph-name="three.subs" horiz-adv-x="710" 
d="M350 612q111 0 177.5 -63.5t66.5 -161.5q0 -68 -33.5 -112.5t-87.5 -63.5q65 -18 107.5 -69.5t42.5 -125.5q0 -105 -74 -170t-193 -65q-128 0 -200 64.5t-72 181.5h113q0 -71 43 -107.5t118 -36.5q68 0 110 38t42 99q0 142 -203 142h-31v96h29q174 0 174 125
q0 58 -34 91.5t-95 33.5q-62 0 -98.5 -35.5t-36.5 -101.5h-113q0 112 66 176.5t182 64.5z" />
    <glyph glyph-name="four.subs" horiz-adv-x="724" 
d="M408 598h131v-541h118v-100h-118v-162h-113v162h-363v90zM426 57v385l-27 -49l-213 -336h240z" />
    <glyph glyph-name="five.subs" horiz-adv-x="712" 
d="M129 598h465v-106h-352v-228q60 31 141 31q116 0 185 -65.5t69 -180.5q0 -120 -73 -194t-195 -74q-124 0 -194.5 60.5t-70.5 174.5h113q0 -64 40.5 -97.5t111.5 -33.5q74 0 115.5 43.5t41.5 116.5q0 70 -42 113t-115 43q-82 0 -140 -37h-100v434z" />
    <glyph glyph-name="six.subs" horiz-adv-x="722" 
d="M377 612q105 0 173.5 -60.5t72.5 -162.5h-113q-12 119 -137 119q-173 0 -176 -303q25 37 77 60.5t111 23.5q115 0 185.5 -70t70.5 -178q0 -116 -74 -188t-196 -72q-125 0 -201 82q-88 88 -88 313q0 436 295 436zM369 188q-64 0 -112.5 -41t-49.5 -100v-6q0 -64 46 -111
t116 -47q69 0 113 44t44 112q0 64 -44.5 106.5t-112.5 42.5z" />
    <glyph glyph-name="seven.subs" horiz-adv-x="624" 
d="M49 598h514v-90l-346 -713h-123l338 694h-383v109z" />
    <glyph glyph-name="eight.subs" horiz-adv-x="712" 
d="M604 385q0 -63 -30 -109.5t-74 -66.5q131 -61 131 -193q0 -102 -78.5 -168.5t-196.5 -66.5t-196 66.5t-78 168.5q0 69 36 118.5t95 74.5q-43 21 -73.5 67.5t-30.5 108.5q0 99 69 163t178 64q110 0 179 -64t69 -163zM356 -117q69 0 115.5 37.5t46.5 99.5t-47.5 102
t-114.5 40t-113 -40t-46 -102t45.5 -99.5t113.5 -37.5zM455 475q-37 35 -98.5 35t-98.5 -35t-37 -92t37 -92q38 -35 98.5 -35t98.5 35t38 92t-38 92z" />
    <glyph glyph-name="nine.subs" horiz-adv-x="722" 
d="M350 612q128 0 205 -77q86 -89 86 -318q0 -436 -297 -436q-105 0 -172.5 60.5t-71.5 162.5h113q15 -119 135 -119q175 0 178 305q-60 -81 -188 -81q-116 0 -186 68t-70 175q0 116 73.5 188t194.5 72zM352 201q66 0 114.5 43t49.5 104v4q0 63 -47 110.5t-117 47.5
q-67 0 -111 -45t-44 -113q0 -64 44 -107.5t111 -43.5z" />
    <glyph glyph-name="zero.numr" horiz-adv-x="745" 
d="M371 1448q138 0 214.5 -110t76.5 -304q0 -196 -76 -307t-215 -111q-136 0 -211.5 111t-75.5 307q0 193 75.5 303.5t211.5 110.5zM371 1343q-84 0 -128 -80.5t-44 -228.5q0 -149 44 -231t128 -82q85 0 130.5 82t45.5 231q0 148 -45 228.5t-131 80.5z" />
    <glyph glyph-name="one.numr" horiz-adv-x="479" 
d="M270 1434h86v-803h-112v616h-181v86q100 0 147 22.5t60 78.5z" />
    <glyph glyph-name="two.numr" horiz-adv-x="655" 
d="M330 1448q116 0 179.5 -59t63.5 -164q0 -112 -104 -234l-219 -254h336v-106h-492v82l277 319q88 101 88 187q0 124 -131 124q-59 0 -96 -37.5t-37 -107.5h-113q0 114 68.5 182t179.5 68z" />
    <glyph glyph-name="three.numr" horiz-adv-x="710" 
d="M350 1448q111 0 177.5 -63.5t66.5 -161.5q0 -68 -33.5 -112.5t-87.5 -63.5q65 -18 107.5 -69.5t42.5 -125.5q0 -106 -74 -171t-193 -65q-128 0 -200 64.5t-72 181.5h113q0 -70 43 -106.5t118 -36.5q68 0 110 38t42 99q0 141 -203 141h-31v97h29q174 0 174 125
q0 58 -34 91t-95 33q-62 0 -98.5 -35.5t-36.5 -101.5h-113q0 113 66.5 177.5t181.5 64.5z" />
    <glyph glyph-name="four.numr" horiz-adv-x="724" 
d="M408 1434h131v-541h118v-100h-118v-162h-113v162h-363v90zM426 893v385l-27 -49l-213 -336h240z" />
    <glyph glyph-name="five.numr" horiz-adv-x="712" 
d="M129 1434h465v-107h-352v-227q58 30 141 30q117 0 185.5 -65t68.5 -180q0 -120 -73 -194.5t-195 -74.5q-124 0 -194.5 61t-70.5 175h113q0 -64 40.5 -97.5t111.5 -33.5q74 0 115.5 43.5t41.5 116.5q0 70 -42 112.5t-115 42.5q-82 0 -140 -37h-100v435z" />
    <glyph glyph-name="six.numr" horiz-adv-x="722" 
d="M377 1448q105 0 173.5 -60.5t72.5 -162.5h-113q-12 118 -137 118q-173 0 -176 -303q25 37 77 60.5t111 23.5q115 0 185.5 -70t70.5 -177q0 -116 -74 -188.5t-196 -72.5q-125 0 -201 82q-88 88 -88 314q0 436 295 436zM369 1024q-64 0 -112.5 -41t-49.5 -100v-6
q0 -64 46 -111t116 -47q69 0 113 43.5t44 111.5q0 64 -44.5 107t-112.5 43z" />
    <glyph glyph-name="seven.numr" horiz-adv-x="624" 
d="M49 1434h514v-91l-346 -712h-123l338 694h-383v109z" />
    <glyph glyph-name="eight.numr" horiz-adv-x="712" 
d="M604 1221q0 -63 -30 -110t-74 -67q131 -61 131 -192q0 -102 -78.5 -169t-196.5 -67t-196 67t-78 169q0 69 36 118t95 74q-42 21 -73 68t-31 109q0 99 69 163t178 64q110 0 179 -64t69 -163zM356 719q69 0 115.5 37.5t46.5 99.5t-47 101.5t-115 39.5q-67 0 -113 -39.5
t-46 -101.5t45.5 -99.5t113.5 -37.5zM455 1311q-37 35 -98.5 35t-98.5 -35t-37 -92.5t37 -92.5q38 -35 98.5 -35t98.5 35t38 92.5t-38 92.5z" />
    <glyph glyph-name="nine.numr" horiz-adv-x="722" 
d="M350 1448q127 0 205 -78q86 -89 86 -317q0 -437 -297 -437q-105 0 -172.5 61t-71.5 163h113q15 -119 135 -119q175 0 178 305q-61 -82 -188 -82q-116 0 -186 68.5t-70 175.5q0 116 73.5 188t194.5 72zM352 1036q66 0 114.5 43.5t49.5 104.5v4q0 63 -47 110.5t-117 47.5
q-67 0 -111 -45t-44 -113q0 -64 44 -108t111 -44z" />
    <glyph glyph-name="zero.lnum" horiz-adv-x="1177" 
d="M121 719q0 341 123 541t346 200q224 0 344 -200q123 -200 123 -541q0 -343 -123 -545q-121 -201 -344 -201q-222 0 -346 201q-123 202 -123 545zM258 719q0 -290 87 -454.5t245 -164.5t244 164.5t86 454.5q0 287 -86 450.5t-244 163.5t-245 -163.5t-87 -450.5z" />
    <glyph glyph-name="one.lnum" horiz-adv-x="1177" 
d="M616 1434h109v-1313h283v-121h-701v121h283v1034h-301v115q170 0 235 33q69 35 92 131z" />
    <glyph glyph-name="two.lnum" horiz-adv-x="1177" 
d="M600 1460q184 0 283.5 -102.5t99.5 -284.5q0 -201 -170 -422l-403 -524h610v-127h-795v100l473 613q82 107 115 185t33 171q0 264 -248 264q-116 0 -186 -78.5t-70 -222.5h-135q-3 196 106 311q108 117 287 117z" />
    <glyph glyph-name="three.lnum" horiz-adv-x="1177" 
d="M983 1065q0 -125 -59 -209t-152 -115q110 -27 185 -125.5t75 -236.5q0 -178 -119 -291q-121 -115 -307 -115q-203 0 -321.5 113.5t-118.5 310.5h135q0 -145 83 -221t224 -76q130 0 208.5 76.5t78.5 204.5q0 146 -100 222.5t-287 76.5h-29v123h27q177 0 258.5 62.5
t81.5 197.5q0 126 -64 198t-184 72q-119 0 -190.5 -75.5t-71.5 -217.5h-133q0 192 106.5 306t286.5 114q183 0 283 -112q104 -110 104 -283z" />
    <glyph glyph-name="four.lnum" horiz-adv-x="1177" 
d="M705 1434h145v-996h211v-125h-211v-313h-135v313h-600v111zM715 438v774l-49 -92l-400 -682h449z" />
    <glyph glyph-name="five.lnum" horiz-adv-x="1177" 
d="M229 1434h740v-127h-602v-488q95 62 254 62q195 0 309 -123q117 -120 117 -318q0 -203 -119 -334q-118 -133 -318 -133q-195 0 -308.5 105.5t-113.5 298.5h136q1 -137 76.5 -207t209.5 -70q138 0 217.5 91t79.5 245q0 144 -80 231t-219 87q-144 0 -260 -72h-119v752z" />
    <glyph glyph-name="six.lnum" horiz-adv-x="1177" 
d="M625 1460q164 0 272 -102t117 -273h-135q-27 248 -258 248q-167 0 -250 -155.5t-84 -485.5q42 75 134.5 125.5t194.5 50.5q201 0 314 -125q117 -126 117 -315q0 -195 -119 -326q-117 -129 -314 -129t-325 140q-139 154 -139 563q0 392 115.5 588t359.5 196zM612 743
q-125 0 -215 -90q-89 -89 -92 -217v-8q0 -126 86 -229q85 -101 221 -101q130 0 213 92q84 96 84 236q0 132 -84 225q-83 92 -213 92z" />
    <glyph glyph-name="seven.lnum" horiz-adv-x="1177" 
d="M176 1434h842v-111l-604 -1323h-148l596 1305h-686v129z" />
    <glyph glyph-name="eight.lnum" horiz-adv-x="1177" 
d="M983 1067q0 -122 -55 -209t-133 -119q102 -42 169.5 -132t67.5 -222q0 -177 -127 -295q-126 -117 -317 -117q-192 0 -318 117q-127 118 -127 295q0 129 67 224.5t169 129.5q-78 33 -132 120.5t-54 207.5q0 167 108 281q106 112 287 112q180 0 286 -112q109 -115 109 -281
zM588 98q125 0 215 78q90 81 90 211t-90 211q-89 80 -215 80q-125 0 -217 -80q-90 -81 -90 -211t90 -211q90 -78 217 -78zM588 1335q-116 0 -188 -74.5t-72 -195.5q0 -118 72 -190t188 -72t188 72t72 190q0 120 -73 195t-187 75z" />
    <glyph glyph-name="nine.lnum" horiz-adv-x="1177" 
d="M553 -27q-165 0 -272 101q-108 102 -117 274h135q27 -248 258 -248q167 0 250 154.5t84 484.5q-44 -75 -136 -124.5t-194 -49.5q-199 0 -315 125q-115 127 -115 316q0 194 117 323q119 131 315 131q199 0 326 -139q139 -154 139 -563q0 -393 -115.5 -589t-359.5 -196z
M565 690q125 0 213 88q91 91 94 217v11q0 124 -86 227q-85 102 -221 102q-133 0 -215 -94q-82 -91 -82 -233q0 -135 82 -226q83 -92 215 -92z" />
    <glyph glyph-name="b.sups" horiz-adv-x="913" 
d="M139 1751h109v-426q33 54 98.5 89.5t149.5 35.5q152 0 243 -104q95 -103 95 -263q0 -156 -93 -260q-91 -102 -245 -102q-170 0 -252 129l-6 -115h-99v1016zM479 1348q-99 0 -164.5 -66.5t-66.5 -179.5v-39q0 -110 66.5 -176t166.5 -66q108 0 173 72.5t65 189.5t-67 191
t-173 74z" />
    <glyph glyph-name="c.sups" horiz-adv-x="833" 
d="M428 1450q123 0 207 -59t110 -168h-108q-23 61 -78 94t-129 33q-103 0 -170 -75.5t-67 -191.5q0 -113 67 -187.5t170 -74.5q72 0 128.5 35t76.5 92h113q-29 -108 -114.5 -167.5t-205.5 -59.5q-148 0 -250 102q-98 101 -98 260t98 263q101 104 250 104z" />
    <glyph glyph-name="d.sups" horiz-adv-x="913" 
d="M666 1751h108v-1016h-100l-4 115q-88 -129 -254 -129q-152 0 -244 102q-92 103 -92 260q0 160 92 263q94 104 246 104q169 0 248 -125v426zM432 1348q-105 0 -172 -74.5t-67 -190.5q0 -117 64.5 -189.5t172.5 -72.5q101 0 168.5 66t67.5 176v39q-1 113 -67.5 179.5
t-166.5 66.5z" />
    <glyph glyph-name="e.sups" horiz-adv-x="847" 
d="M420 1450q152 0 243 -93.5t91 -258.5v-51h-561q1 -101 67.5 -163.5t167.5 -62.5q160 0 203 119h112q-31 -105 -113.5 -162t-205.5 -57q-153 0 -248.5 99.5t-95.5 262.5q0 162 94 263q94 104 246 104zM418 1350q-93 0 -155 -59.5t-70 -153.5h446q0 100 -59 156.5
t-162 56.5z" />
    <glyph glyph-name="f.sups" horiz-adv-x="524" 
d="M387 1761q61 0 98 -16v-98q-43 16 -90 16q-104 0 -104 -115v-112h184v-99h-184v-602h-111v602h-131v99h131v114q0 100 54.5 155.5t152.5 55.5z" />
    <glyph glyph-name="g.sups" horiz-adv-x="802" 
d="M498 1436h260v-99h-121q41 -59 41 -135q0 -107 -79 -177.5t-202 -70.5q-93 0 -166 43q-32 -25 -32 -77q0 -80 96 -80h203q111 0 171 -51t60 -140q0 -109 -82 -169t-223 -60q-154 0 -237 54.5t-83 156.5q0 100 80 141q-92 44 -92 141q0 88 72 142q-49 64 -49 147
q0 109 79 178.5t203 69.5q52 0 101 -14zM223 1202q0 -70 48.5 -116t125.5 -46t125.5 46t48.5 116q0 72 -48 117t-126 45t-126 -45t-48 -117zM479 754h-155q-47 -5 -79 -36.5t-32 -80.5q0 -129 213 -129q195 0 195 135q0 51 -38 81t-104 30z" />
    <glyph glyph-name="h.sups" horiz-adv-x="829" 
d="M139 1751h109v-416q24 49 82.5 82t128.5 33q114 0 177.5 -71t63.5 -191v-453h-110v434q0 85 -41.5 131t-114.5 46q-80 0 -133 -61t-53 -159v-391h-109v1016z" />
    <glyph glyph-name="i.sups" horiz-adv-x="399" 
d="M143 1436h111v-701h-111v701zM143 1710q31 35 76 19.5t56.5 -55t-21.5 -75.5q-19 -21 -44.5 -23.5t-45.5 11t-33.5 33.5t-11 45.5t23.5 44.5z" />
    <glyph glyph-name="j.sups" horiz-adv-x="399" 
d="M143 1436h111v-785q0 -231 -209 -231q-36 0 -88 10v102q38 -12 76 -12q60 0 85 32.5t25 100.5v783zM201 1733q31 0 54.5 -23t23.5 -55t-23.5 -55t-54.5 -23q-48 -3 -68 37.5t0 81t68 37.5z" />
    <glyph glyph-name="k.sups" horiz-adv-x="761" 
d="M152 1751h108v-651l283 336h133l-238 -289l277 -412h-125l-228 326l-102 -121v-205h-108v1016z" />
    <glyph glyph-name="l.sups" horiz-adv-x="401" 
d="M145 1751h111v-1016h-111v1016z" />
    <glyph glyph-name="m.sups" horiz-adv-x="1269" 
d="M905 1450q111 0 173.5 -71t62.5 -191v-453h-109v434q0 85 -40.5 131t-110.5 46q-79 0 -131.5 -57t-53.5 -152v-402h-110v434q0 85 -40.5 131t-113.5 46q-79 0 -131.5 -61t-52.5 -159v-391h-109v701h99l6 -109q24 53 82 88t131 35q161 0 219 -143q25 64 87 103.5t142 39.5
z" />
    <glyph glyph-name="o.sups" horiz-adv-x="886" 
d="M807 1083q0 -158 -102 -260t-263 -102q-160 0 -262 102q-100 100 -100 260q0 165 100 265q102 102 262 102q161 0 263 -102t102 -265zM444 1350q-112 0 -181.5 -74.5t-69.5 -190.5t69.5 -190t181.5 -74q109 0 179.5 75.5t70.5 188.5q0 116 -70 190.5t-180 74.5z" />
    <glyph glyph-name="p.sups" horiz-adv-x="925" 
d="M510 1450q152 0 244 -102q92 -103 92 -263q0 -158 -94 -262q-92 -102 -244 -102q-84 0 -149.5 35.5t-96.5 89.5v-410h-110v1000h100l4 -115q86 129 254 129zM496 1350q-101 0 -168.5 -66t-67.5 -174v-39q1 -113 68 -180.5t166 -67.5q106 0 172.5 73t66.5 189
q0 118 -64.5 191.5t-172.5 73.5z" />
    <glyph glyph-name="q.sups" horiz-adv-x="925" 
d="M416 1450q168 0 254 -129l4 115h100v-1000h-108v410q-79 -125 -248 -125q-152 0 -246 102q-92 106 -92 262q0 160 92 263q91 102 244 102zM430 1350q-108 0 -172.5 -73.5t-64.5 -191.5q0 -116 66.5 -189t172.5 -73q99 0 166 67.5t68 180.5v39q0 108 -67.5 174t-168.5 66z
" />
    <glyph glyph-name="r.sups" horiz-adv-x="540" 
d="M477 1442v-107q-94 0 -149 -55q-68 -62 -68 -170v-375h-108v701h98l6 -119q24 56 81.5 90.5t139.5 34.5z" />
    <glyph glyph-name="s.sups" horiz-adv-x="702" 
d="M348 1450q107 0 173.5 -56t66.5 -153l-113 -2q0 111 -131 111q-125 0 -125 -97q0 -48 30 -69t126 -45q125 -29 181 -77.5t56 -129.5q0 -98 -71.5 -154.5t-186.5 -56.5q-121 0 -192.5 60t-73.5 159h113q0 -119 157 -119q67 0 105.5 29.5t38.5 77.5q0 47 -36.5 72.5
t-135.5 48.5q-117 30 -170.5 75.5t-53.5 124.5q0 90 64.5 145.5t177.5 55.5z" />
    <glyph glyph-name="t.sups" horiz-adv-x="550" 
d="M180 1612h109l-2 -176h190v-103h-190l-2 -391q0 -65 21 -91t81 -26q40 0 90 13v-97q-50 -16 -104 -16q-200 0 -197 199l2 409h-139v103h139z" />
    <glyph glyph-name="u.sups" horiz-adv-x="821" 
d="M571 1436h111v-701h-100l-4 105q-25 -50 -83 -84.5t-130 -34.5q-111 0 -173.5 71t-62.5 191v453h109v-437q0 -84 40 -129t113 -45q77 0 128.5 59.5t51.5 155.5v396z" />
    <glyph glyph-name="v.sups" horiz-adv-x="772" 
d="M602 1436h119l-281 -701h-108l-279 701h117l201 -514l14 -54l16 54z" />
    <glyph glyph-name="w.sups" horiz-adv-x="1153" 
d="M983 1436h117l-230 -701h-110l-185 516l-184 -516h-106l-232 701h115l160 -502l16 -62l16 62l170 502h93l172 -502l14 -62l16 62z" />
    <glyph glyph-name="x.sups" horiz-adv-x="782" 
d="M571 1436h129l-237 -338l256 -363h-129l-199 275l-198 -275h-130l256 363l-237 338h129l180 -252z" />
    <glyph glyph-name="y.sups" horiz-adv-x="774" 
d="M602 1436h119l-399 -1000h-117l123 309l-275 691h117l201 -514l14 -54l16 54z" />
    <glyph glyph-name="z.sups" horiz-adv-x="708" 
d="M84 1436h539v-84l-398 -518h422v-99h-567v84l397 518h-393v99z" />
    <glyph glyph-name="a.sups" horiz-adv-x="772" 
d="M383 1450q125 0 193.5 -63.5t68.5 -184.5v-467h-100l-4 99q-73 -113 -228 -113q-98 0 -155.5 51t-57.5 137q0 159 205 199l230 45v45q0 154 -152 154q-71 0 -112.5 -36t-41.5 -102h-110q5 106 76 171t188 65zM535 1008v57l-207 -43q-117 -21 -117 -107q0 -45 32 -72.5
t87 -27.5q99 0 159 72q46 55 46 121z" />
    <glyph glyph-name="g.alt.sups" horiz-adv-x="921" 
d="M428 1348q-106 0 -170.5 -71t-64.5 -187q0 -115 65.5 -187t169.5 -72q99 0 166.5 67t67.5 175v39q0 107 -67 171.5t-167 64.5zM414 1450q166 0 252 -129l4 115h100v-691q0 -148 -91.5 -236.5t-246.5 -88.5q-131 0 -216.5 59.5t-111.5 179.5h111q38 -139 217 -139
q109 0 169.5 58.5t60.5 164.5v109q-79 -125 -248 -125q-150 0 -242 102q-92 103 -92 261q0 161 91.5 260.5t242.5 99.5z" />
    <glyph glyph-name="a.alt.sups" horiz-adv-x="913" 
d="M418 1450q170 0 252 -129l4 115h100v-701h-100l-4 115q-82 -129 -254 -129q-152 0 -244 102q-92 106 -92 262q0 158 92 261q94 104 246 104zM432 1350q-105 0 -172 -74.5t-67 -190.5t66 -190t171 -74q101 0 168.5 66t67.5 176v39q0 113 -67 180.5t-167 67.5z" />
    <glyph glyph-name="g_i.alt" horiz-adv-x="1183" 
d="M594 1518q236 0 381 -154q147 -153 147 -389q0 -233 -147 -389q-145 -154 -381 -154q-237 0 -385 154q-148 157 -148 389q0 235 148 389t385 154zM594 1419q-190 0 -311 -127q-117 -126 -117 -317q0 -194 117 -320q119 -125 311 -125q191 0 307 125q117 126 117 320
q0 191 -117 317q-118 127 -307 127z" />
    <glyph glyph-name="zero.slash" horiz-adv-x="1124" 
d="M1030 719q0 -343 -123 -545q-124 -201 -344 -201q-222 0 -346 201q-121 204 -121 545q0 340 121 541q123 200 346 200q224 0 344 -200q123 -200 123 -541zM891 719q0 231 -60 391l-479 -899q82 -111 211 -111q158 0 243 164t85 455zM563 1333q-160 0 -245 -162t-85 -452
q0 -246 58 -395l481 899q-79 110 -209 110z" />
    <glyph glyph-name="L_a_r_s_s_e_i_t" horiz-adv-x="6037" 
d="M4311 1051q214 0 340.5 -135.5t126.5 -378.5v-72h-817q7 -166 106 -266.5t250 -100.5q243 0 316 193h133q-48 -150 -164 -232t-287 -82q-211 0 -350 148q-135 147 -135 387q0 238 131 387q134 152 350 152zM3197 1499v-125q-123 0 -183.5 -65t-60.5 -205v-76h680v-104
l-342 -496q209 -15 324 -139q116 -125 116 -293q0 -210 -124.5 -328.5t-354.5 -118.5q-71 0 -168 17l13 131q97 -23 147 -23q172 0 263 81.5t91 240.5q0 145 -101.5 229t-270.5 84h-97v84l351 514h-527v-907h-133v1104q0 395 377 395zM1497 1051q169 0 260.5 -95.5
t91.5 -269.5v-686h-123l-4 150q-43 -76 -129.5 -124.5t-195.5 -48.5q-133 0 -212 75.5t-79 199.5q0 235 278 293l334 69v68q0 248 -221 248q-106 0 -169.5 -57.5t-63.5 -163.5h-129q3 150 100 243q102 99 262 99zM166 1434h135v-1307h662v-127h-797v1434zM5571 1290h129
l-2 -262h278v-121h-281l-4 -624q0 -97 33 -138t121 -41q67 0 131 21v-117q-55 -22 -145 -22q-137 0 -202.5 67t-64.5 213l5 641h-205v121h205zM4311 930q-147 0 -242.5 -96.5t-107.5 -251.5h686q0 161 -91 254.5t-245 93.5zM2599 1038v-127q-125 0 -209 -84
q-98 -94 -98 -270v-557h-129v1028h121l4 -186q33 87 113.5 141.5t197.5 54.5zM1718 412v86l-309 -68q-89 -21 -130.5 -61t-41.5 -115q0 -74 46 -115t130 -41q149 0 238 111q67 88 67 203zM5050 1028h129v-1028h-129v1028zM5116 1454q41 0 70.5 -29.5t29.5 -70.5t-29.5 -70
t-70.5 -29q-42 0 -71 28.5t-29 70.5t29 71t71 29z" />
    <glyph glyph-name="A.smcp" horiz-adv-x="1140" 
d="M504 1104h133l465 -1104h-146l-129 303h-514l-127 -303h-145zM592 870l-23 62l-20 -62l-193 -448h428z" />
    <glyph glyph-name="B.smcp" horiz-adv-x="972" 
d="M160 1104h307q165 0 260.5 -80t95.5 -217q0 -144 -127 -227q93 -31 146 -101.5t53 -163.5q0 -143 -101.5 -229t-273.5 -86h-360v1104zM520 506h-227v-383h227q112 0 176 51.5t64 142.5q0 87 -64 138t-176 51zM467 981h-174v-358h184q96 0 154.5 49t58.5 129q0 84 -60 132
t-163 48z" />
    <glyph glyph-name="C.smcp" horiz-adv-x="1208" 
d="M649 1124q189 0 315.5 -90t176.5 -254h-148q-80 221 -344 221q-185 0 -303 -127q-115 -127 -115 -321t115 -324q118 -127 303 -127q267 0 350 226h144q-102 -348 -494 -348q-248 0 -399 161q-154 165 -154 412q0 245 154 410q151 161 399 161z" />
    <glyph glyph-name="D.smcp" horiz-adv-x="1243" 
d="M160 1104h407q264 0 422 -152t158 -399q0 -251 -158 -403q-156 -150 -422 -150h-407v1104zM567 979h-274v-854h274q208 0 327.5 114t119.5 314q0 198 -120 312t-327 114z" />
    <glyph glyph-name="E.smcp" horiz-adv-x="888" 
d="M160 1104h624v-125h-491v-348h434v-125h-434v-381h491v-125h-624v1104z" />
    <glyph glyph-name="F.smcp" horiz-adv-x="839" 
d="M160 1104h610v-125h-477v-365h403v-122h-403v-492h-133v1104z" />
    <glyph glyph-name="G.smcp" horiz-adv-x="1263" 
d="M655 1124q192 0 320 -90t178 -254h-147q-83 221 -353 221q-184 0 -305 -127q-117 -126 -117 -321q0 -196 119 -324q121 -127 307 -127q174 0 273 85.5t100 248.5h-352v125h491v-72q0 -239 -135.5 -374t-376.5 -135q-251 0 -405 161q-156 163 -156 412q0 245 156 408
t403 163z" />
    <glyph glyph-name="H.smcp" horiz-adv-x="1216" 
d="M924 1104h133v-1104h-133v508h-631v-508h-133v1104h133v-471h631v471z" />
    <glyph glyph-name="I.smcp" horiz-adv-x="450" 
d="M160 1104h133v-1104h-133v1104z" />
    <glyph glyph-name="J.smcp" horiz-adv-x="849" 
d="M573 1104h134v-789q0 -158 -83 -244.5t-231 -86.5q-321 0 -336 346h131q12 -221 203 -221q88 0 135 54t47 156v785z" />
    <glyph glyph-name="K.smcp" horiz-adv-x="1150" 
d="M815 1104h162l-387 -488l500 -616h-166l-422 512l-201 -238v-274h-133v1104h133v-635z" />
    <glyph glyph-name="L.smcp" horiz-adv-x="856" 
d="M158 1104h133v-979h518v-125h-651v1104z" />
    <glyph glyph-name="M.smcp" horiz-adv-x="1488" 
d="M1186 1104h143v-1104h-133v842l-31 -82l-368 -760h-105l-368 760l-31 82v-842h-133v1104h143l408 -825l32 -74l31 74z" />
    <glyph glyph-name="N.smcp" horiz-adv-x="1216" 
d="M924 1104h133v-1104h-127l-592 811l-45 68v-879h-133v1104h129l590 -807l45 -72v879z" />
    <glyph glyph-name="O.smcp" horiz-adv-x="1331" 
d="M668 1124q251 0 407 -163q160 -165 160 -408q0 -245 -160 -410q-156 -163 -407 -163q-257 0 -414 161q-158 166 -158 412q0 244 158 410q157 161 414 161zM668 1001q-195 0 -316 -127t-121 -321t121 -324q121 -127 316 -127q188 0 309 127q121 130 121 324t-121 321
t-309 127z" />
    <glyph glyph-name="P.smcp" horiz-adv-x="929" 
d="M160 1104h332q166 0 267 -93t101 -243q0 -149 -101 -240.5t-267 -91.5h-199v-436h-133v1104zM492 979h-199v-418h199q107 0 171 55.5t64 151.5q0 97 -64 154t-171 57z" />
    <glyph glyph-name="Q.smcp" horiz-adv-x="1331" 
d="M668 1124q251 0 407 -163q160 -165 160 -408q0 -152 -62.5 -276t-175.5 -199l238 -230h-182l-174 168q-104 -36 -211 -36q-257 0 -414 161q-158 166 -158 412q0 244 158 410q157 161 414 161zM668 1001q-195 0 -316 -127t-121 -321t121 -324q121 -127 316 -127
q51 0 108 13l-198 196h182l145 -143q91 60 142 160.5t51 224.5q0 194 -121 321t-309 127z" />
    <glyph glyph-name="R.smcp" horiz-adv-x="921" 
d="M160 1104h303q170 0 270.5 -90t100.5 -242q0 -105 -58.5 -183.5t-161.5 -113.5l269 -475h-152l-254 453h-184v-453h-133v1104zM463 979h-170v-406h170q109 0 173 53t64 146q0 96 -64 151.5t-173 55.5z" />
    <glyph glyph-name="S.smcp" horiz-adv-x="894" 
d="M449 1124q151 0 238.5 -80.5t88.5 -228.5h-133q-1 90 -54.5 140.5t-144.5 50.5q-88 0 -137 -46.5t-49 -130.5q0 -80 49 -120q47 -36 185 -88q174 -64 249 -136q74 -71 74 -188q0 -146 -96.5 -231.5t-253.5 -85.5q-175 0 -274 93.5t-101 250.5h133q1 -110 64.5 -169
t179.5 -59q101 0 157 52.5t56 140.5q0 71 -55.5 117t-192.5 94q-167 60 -237 129t-70 192q0 134 87 218.5t237 84.5z" />
    <glyph glyph-name="T.smcp" horiz-adv-x="999" 
d="M18 1104h961v-125h-414v-979h-131v979h-416v125z" />
    <glyph glyph-name="U.smcp" horiz-adv-x="1181" 
d="M905 1104h133v-670q0 -220 -117 -337t-329 -117q-215 0 -331 117t-116 337v670h134v-670q0 -332 313 -332t313 332v670z" />
    <glyph glyph-name="V.smcp" horiz-adv-x="1128" 
d="M946 1104h144l-467 -1104h-119l-465 1104h141l361 -852l22 -68l23 68z" />
    <glyph glyph-name="W.smcp" horiz-adv-x="1634" 
d="M1452 1104h139l-368 -1104h-127l-260 786l-19 74l-18 -74l-260 -786h-125l-371 1104h139l279 -817l18 -80l19 80l266 817h108l267 -817l16 -80l23 80z" />
    <glyph glyph-name="X.smcp" horiz-adv-x="1142" 
d="M901 1104h160l-402 -541l420 -563h-157l-353 463l-348 -463h-158l420 563l-401 541h160l327 -438z" />
    <glyph glyph-name="Y.smcp" horiz-adv-x="1118" 
d="M928 1104h153l-456 -684v-420h-133v420l-457 684h153l326 -483l45 -74l45 74z" />
    <glyph glyph-name="Z.smcp" horiz-adv-x="987" 
d="M78 1104h821v-107l-655 -872h674v-125h-846v106l657 873h-651v125z" />
    <glyph glyph-name="Aringacute.smcp" horiz-adv-x="1140" 
d="M504 1104h133l465 -1104h-146l-129 303h-514l-127 -303h-145zM647 1761h201l-207 -170q62 -23 97.5 -74.5t35.5 -119.5q0 -87 -58.5 -144t-150.5 -57t-150.5 57t-58.5 144q0 118 97 178zM592 870l-23 62l-20 -62l-193 -448h428zM453 1399q0 -45 33 -79t79 -34
q48 0 80.5 34t32.5 79q0 49 -31.5 80.5t-81.5 31.5q-49 0 -80.5 -32t-31.5 -80z" />
    <glyph glyph-name="Aogonek.smcp" horiz-adv-x="1140" 
d="M504 1104h133l465 -1104h-37q-123 -62 -123 -172q0 -60 31.5 -92.5t87.5 -32.5q51 0 88 18l29 -92q-44 -24 -121 -24q-95 0 -156 60t-61 161q0 124 106 199l-119 278h-514l-127 -303h-145zM592 870l-23 62l-20 -62l-193 -448h428z" />
    <glyph glyph-name="AE.smcp" horiz-adv-x="1548" 
d="M786 1104h660v-125h-494v-348h437v-125h-437v-381h494v-125h-625v303h-422l-217 -303h-153zM821 422v508l-35 -60l-311 -448h346z" />
    <glyph glyph-name="AEacute.smcp" horiz-adv-x="1566" 
d="M797 1104h659v-125h-493v-348h436v-125h-436v-381h493v-125h-625v303h-421l-217 -303h-154zM831 422v508l-34 -60l-312 -448h346zM1169 1561h166l-280 -324h-135z" />
    <glyph glyph-name="Ccedilla.smcp" horiz-adv-x="1208" 
d="M649 1124q189 0 315.5 -90t176.5 -254h-148q-80 221 -344 221q-185 0 -303 -127q-115 -127 -115 -321t115 -324q118 -127 303 -127q267 0 350 226h144q-95 -336 -469 -348l-23 -89h23q78 0 126 -45t48 -120q0 -81 -57 -129t-146 -48q-124 0 -190 78l59 74q50 -59 131 -59
q47 0 77 22.5t30 59.5q0 38 -25.5 59.5t-67.5 21.5q-21 0 -73 -10l-45 15l43 174q-219 21 -355 178q-133 160 -133 391q0 245 154 410q151 161 399 161z" />
    <glyph glyph-name="Dcaron.smcp" horiz-adv-x="1249" 
d="M731 1430h168l-272 -259h-97l-274 259h168l154 -152zM160 1104h407q264 0 422 -152t158 -399q0 -251 -158 -403q-156 -150 -422 -150h-407v1104zM567 979h-274v-854h274q208 0 327.5 114t119.5 314q0 198 -120 312t-327 114z" />
    <glyph glyph-name="Dcroat.smcp" horiz-adv-x="1265" 
d="M182 1104h408q264 0 422 -152q157 -151 157 -399q0 -252 -157 -403q-156 -150 -422 -150h-408v500h-145v102h145v502zM590 979h-275v-377h226v-102h-226v-375h275q208 0 327 114t119 314q0 198 -119.5 312t-326.5 114z" />
    <glyph glyph-name="Eogonek.smcp" horiz-adv-x="888" 
d="M160 1104h624v-125h-491v-348h434v-125h-434v-381h491v-125h-63q-123 -62 -123 -172q0 -60 31.5 -92.5t87.5 -32.5q51 0 88 18l29 -92q-43 -24 -121 -24q-95 0 -156 60t-61 161q0 105 75 174h-411v1104z" />
    <glyph glyph-name="Gcommaaccent.smcp" horiz-adv-x="1253" 
d="M655 1124q192 0 320 -90t178 -254h-147q-83 221 -353 221q-184 0 -305 -127q-117 -126 -117 -321q0 -196 119 -324q121 -127 307 -127q174 0 273 85.5t100 248.5h-352v125h491v-72q0 -239 -135.5 -374t-376.5 -135q-251 0 -405 161q-156 163 -156 412q0 245 156 408
t403 163zM750 -207q0 -81 -39 -168t-101 -151l-43 22q60 94 72 203q-43 5 -70.5 32.5t-27.5 69.5q0 44 30 74.5t74 30.5q45 0 75 -32t30 -81z" />
    <glyph glyph-name="Hbar.smcp" horiz-adv-x="1224" 
d="M926 1104h133v-178h131v-97h-131v-829h-133v508h-631v-508h-133v829h-129v97h129v178h133v-178h631v178zM295 829v-196h631v196h-631z" />
    <glyph glyph-name="Kcommaaccent.smcp" horiz-adv-x="1150" 
d="M815 1104h162l-387 -488l500 -616h-166l-422 512l-201 -238v-274h-133v1104h133v-635zM678 -188q0 -81 -38.5 -168.5t-100.5 -151.5l-43 23q59 93 71 202q-43 5 -70.5 33t-27.5 70q0 44 30 74t74 30q45 0 75 -31.5t30 -80.5z" />
    <glyph glyph-name="Lcaron.smcp" horiz-adv-x="874" 
d="M741 1176q45 0 76 -32t31 -81q0 -179 -139 -344l-47 20q60 105 75 230q-43 5 -70.5 32.5t-27.5 69.5q0 43 30 74t72 31zM158 1104h133v-979h518v-125h-651v1104z" />
    <glyph glyph-name="Lcommaaccent.smcp" horiz-adv-x="874" 
d="M158 1104h133v-979h518v-125h-651v1104zM588 -184q0 -81 -38.5 -168.5t-100.5 -151.5l-43 23q59 93 71 202q-43 5 -70.5 33t-27.5 70q0 44 30 74t74 30q45 0 75 -31.5t30 -80.5z" />
    <glyph glyph-name="Lslash.smcp" horiz-adv-x="874" 
d="M172 1104h133v-520l148 63l39 -92l-187 -80v-350h518v-125h-651v418l-125 -53l-37 92l162 69v578z" />
    <glyph glyph-name="Ldot.smcp" horiz-adv-x="858" 
d="M158 1104h133v-979h518v-125h-651v1104zM668 610q45 0 76.5 -30.5t31.5 -77.5q0 -48 -30.5 -79.5t-77.5 -31.5t-79 32t-32 79t31.5 77.5t79.5 30.5z" />
    <glyph glyph-name="Oslash.smcp" horiz-adv-x="1349" 
d="M676 1124q126 0 239 -49l76 131l94 -51l-75 -131q111 -79 172 -201t61 -270q0 -245 -160 -410q-156 -163 -407 -163q-132 0 -244 47l-76 -133l-94 51l78 133q-111 79 -173.5 203t-62.5 272q0 244 158 410q157 161 414 161zM676 1001q-195 0 -316 -127
q-120 -126 -120 -321q0 -237 163 -363l449 777q-78 34 -176 34zM1106 553q0 233 -162 358l-448 -776q73 -33 180 -33q188 0 309 127q121 130 121 324z" />
    <glyph glyph-name="OE.smcp" horiz-adv-x="1832" 
d="M1100 1104h624v-125h-491v-348h434v-125h-434v-381h491v-125h-624v186q-156 -206 -436 -206q-253 0 -410 161q-158 166 -158 412q0 244 158 410q154 161 410 161q277 0 436 -206v186zM668 1001q-195 0 -316 -127t-121 -321t121 -324q121 -127 316 -127q186 0 307 121
q119 122 125 309v39q-6 191 -125 310q-120 120 -307 120z" />
    <glyph glyph-name="Scedilla.smcp" horiz-adv-x="915" 
d="M457 1124q151 0 238.5 -80.5t88.5 -228.5h-133q-1 90 -54 140.5t-144 50.5q-88 0 -137.5 -46.5t-49.5 -130.5q0 -80 49 -120q47 -36 185 -88q175 -64 250 -136q73 -70 73 -188q0 -141 -90 -226t-241 -91l-23 -89h23q78 0 126 -45t48 -120q0 -81 -57 -129t-146 -48
q-125 0 -191 78l60 74q50 -59 131 -59q47 0 76.5 22.5t29.5 59.5q0 38 -25 59.5t-67 21.5q-22 0 -74 -10l-45 15l45 174q-142 19 -222.5 109.5t-82.5 230.5h133q1 -110 64.5 -169t179.5 -59q101 0 157 52.5t56 140.5q0 71 -55.5 117t-192.5 94q-167 60 -237 129t-70 192
q0 134 87 218.5t237 84.5z" />
    <glyph glyph-name="Scommaaccent.smcp" horiz-adv-x="913" 
d="M457 1124q151 0 238.5 -80.5t88.5 -228.5h-133q-1 90 -54 140.5t-144 50.5q-88 0 -137.5 -46.5t-49.5 -130.5q0 -80 49 -120q47 -36 185 -88q175 -64 250 -136q73 -70 73 -188q0 -146 -96.5 -231.5t-253.5 -85.5q-175 0 -274 93.5t-101 250.5h133q1 -110 64.5 -169
t179.5 -59q101 0 157 52.5t56 140.5q0 71 -55.5 117t-192.5 94q-167 60 -237 129t-70 192q0 134 87 218.5t237 84.5zM563 -195q0 -81 -38.5 -168t-100.5 -151l-43 22q60 94 72 203q-43 5 -71 33t-28 70q0 44 30.5 74t74.5 30q45 0 74.5 -32t29.5 -81z" />
    <glyph glyph-name="germandbls.smcp" horiz-adv-x="1048" 
d="M559 1124q115 0 197.5 -34.5t163.5 -110.5l-261 -334q141 -11 229.5 -96t88.5 -217q0 -160 -103 -251t-292 -91q-84 0 -158 14l8 125q69 -16 146 -16q126 0 195 55t69 160q0 104 -85 162.5t-235 58.5l-30 53l258 338q-67 61 -193 61q-115 0 -189.5 -71t-74.5 -191v-739
h-133v737q0 171 108 279t291 108z" />
    <glyph glyph-name="Tcommaaccent.smcp" horiz-adv-x="999" 
d="M18 1104h961v-125h-414v-979h-131v979h-416v125zM600 -190q0 -81 -38.5 -168.5t-100.5 -151.5l-43 23q59 93 71 202q-43 5 -70.5 33t-27.5 70q0 44 30.5 74t74.5 30q45 0 74.5 -31.5t29.5 -80.5z" />
    <glyph glyph-name="Tbar.smcp" horiz-adv-x="999" 
d="M18 1104h961v-125h-414v-371h256v-100h-256v-508h-131v508h-258v100h258v371h-416v125z" />
    <glyph glyph-name="Uogonek.smcp" horiz-adv-x="1181" 
d="M905 1104h133v-670q0 -176 -75.5 -287.5t-217.5 -148.5q-92 -59 -92 -156q0 -60 31.5 -92.5t87.5 -32.5q48 0 88 19l29 -92q-45 -25 -121 -25q-95 0 -156 60t-61 161q0 82 43 140h-2q-215 0 -331 117t-116 337v670h134v-670q0 -332 313 -332t313 332v670z" />
    <glyph glyph-name="Eng.smcp" horiz-adv-x="1216" 
d="M924 1104h133v-1112q0 -161 -83 -246.5t-237 -85.5v119q91 0 139 53.5t48 155.5v20l-586 803l-45 68v-879h-133v1104h129l590 -807l45 -72v879z" />
    <glyph glyph-name="Eth.smcp" horiz-adv-x="1265" 
d="M182 1104h408q264 0 422 -152q157 -151 157 -399q0 -252 -157 -403q-156 -150 -422 -150h-408v500h-145v102h145v502zM590 979h-275v-377h226v-102h-226v-375h275q208 0 327 114t119 314q0 198 -119.5 312t-326.5 114z" />
    <glyph glyph-name="Thorn.smcp" horiz-adv-x="964" 
d="M160 1104h133v-176h223q166 0 264.5 -86t98.5 -228q0 -143 -98 -228t-265 -85h-223v-301h-133v1104zM516 803h-223v-377h223q105 0 167 50.5t62 137.5t-62 138t-167 51z" />
    <glyph glyph-name="exclam.smcp" horiz-adv-x="450" 
d="M160 1104h127v-789h-127v789zM225 170q41 0 69 -27.5t28 -66.5q0 -38 -28 -65t-69 -27q-43 0 -70.5 25.5t-27.5 66.5t27.5 67.5t70.5 26.5z" />
    <glyph glyph-name="question.smcp" horiz-adv-x="729" 
d="M358 1130q138 0 229 -82t91 -219q0 -88 -39 -161.5t-94 -114.5q-133 -95 -133 -178v-60h-127v62q0 64 39 120t96 97q57 40 97 100.5t40 130.5q0 92 -55 144.5t-144 52.5q-97 0 -151.5 -54t-54.5 -153h-119q0 147 90 231t235 84zM444 76q0 -39 -27.5 -65.5t-68.5 -26.5
t-69.5 27t-28.5 65q0 39 28.5 66.5t69.5 27.5t68.5 -26.5t27.5 -67.5z" />
    <glyph glyph-name="parenleft.smcp" 
d="M356 1200l88 -65q-116 -141 -166.5 -276t-50.5 -312t50.5 -312t166.5 -276l-88 -63q-128 152 -190 306.5t-62 344.5q0 355 252 653z" />
    <glyph glyph-name="parenright.smcp" 
d="M27 1135l90 65q250 -300 250 -653q0 -351 -250 -651l-90 63q116 137 166.5 273.5t50.5 314.5t-50.5 314.5t-166.5 273.5z" />
    <glyph glyph-name="bracketleft.smcp" horiz-adv-x="491" 
d="M143 1169h297v-114h-178v-1020h178v-115h-297v1249z" />
    <glyph glyph-name="bracketright.smcp" horiz-adv-x="491" 
d="M51 1169h299v-1249h-299v115h178v1020h-178v114z" />
    <glyph glyph-name="braceleft.smcp" horiz-adv-x="473" 
d="M373 1169h49v-114h-45q-107 0 -107 -113v-242q0 -120 -96 -155q96 -41 96 -156v-242q0 -112 107 -112h45v-115h-49q-108 0 -164.5 59t-56.5 166v230q0 114 -107 114h-29v111h29q107 0 107 115v229q0 107 56 166t165 59z" />
    <glyph glyph-name="braceright.smcp" horiz-adv-x="473" 
d="M51 1169h49q108 0 165 -59t57 -166v-229q0 -115 106 -115h27v-111h-27q-106 0 -106 -114v-230q0 -106 -57.5 -165.5t-164.5 -59.5h-49v115h45q107 0 107 112v242q0 115 96 156q-96 35 -96 155v242q0 113 -107 113h-45v114z" />
    <glyph glyph-name="Euro.smcp" horiz-adv-x="1005" 
d="M309 461h269v-101h-254q58 -258 262 -258q183 0 223 181h141q-39 -154 -126.5 -228.5t-237.5 -74.5q-155 0 -260 100.5t-140 279.5h-133v101h119q-2 18 -2 92q0 56 4 96h-121v101h135q37 178 140.5 276t257.5 98q300 0 364 -301h-141q-34 178 -223 178q-202 0 -260 -251
h252v-101h-269q-4 -40 -4 -96t4 -92z" />
    <glyph glyph-name="dollar.smcp" horiz-adv-x="942" 
d="M414 1264h102v-144q125 -18 196 -96t72 -209h-133q-3 147 -135 182v-383q169 -64 238 -133.5t69 -183.5q0 -135 -83 -219t-224 -96v-156h-102v158q-148 13 -231 104.5t-85 235.5h133q3 -194 183 -224v408q-152 57 -216.5 126t-64.5 187q0 123 74.5 205.5t206.5 95.5v142z
M688 289q0 60 -39.5 102t-132.5 80v-373q80 10 126 62.5t46 128.5zM266 829q0 -65 33.5 -104t114.5 -72v348q-72 -11 -110 -55t-38 -117z" />
    <glyph glyph-name="cent.smcp" horiz-adv-x="944" 
d="M436 950h103v-143q118 -12 200.5 -79.5t108.5 -176.5h-125q-46 116 -184 137v-586q141 21 182 140h129q-31 -110 -112.5 -177t-198.5 -79v-144h-103v144q-153 15 -252 129q-96 116 -96 280q0 165 96 281q101 116 252 131v143zM217 395q0 -112 61 -192t158 -99v586
q-99 -19 -159 -99.5t-60 -195.5z" />
    <glyph glyph-name="sterling.smcp" horiz-adv-x="882" 
d="M324 580h260v-105h-232q8 -44 8 -80q0 -123 -75 -229l-25 -41h303q150 0 150 145h121q-1 -132 -73 -201t-204 -69h-479v55l65 88q88 119 88 254q0 47 -8 78h-166v105h133q-63 141 -63 229q0 142 88.5 228.5t228.5 86.5q143 0 225.5 -77t86.5 -222h-125q0 86 -48 133.5
t-134 47.5q-88 0 -138.5 -53t-50.5 -146q0 -51 21 -117q15 -47 43 -110z" />
    <glyph glyph-name="florin.smcp" horiz-adv-x="624" 
d="M528 1163q68 0 115 -18l-12 -113q-49 19 -99 19q-120 0 -135 -133l-14 -125h221l-10 -113h-221l-90 -803q-12 -112 -78.5 -172.5t-175.5 -60.5q-69 0 -115 18l12 115q46 -21 99 -21q120 0 135 133l86 791h-160l12 113h160l16 137q14 111 80 172t174 61z" />
    <glyph glyph-name="yen.smcp" horiz-adv-x="1144" 
d="M684 481h178v-100h-219v-113h219v-98h-219v-170h-133v170h-215v98h215v113h-215v100h174l-416 623h154l325 -483l46 -74l45 74l323 483h154z" />
    <glyph glyph-name="zero.smcp" horiz-adv-x="964" 
d="M483 1124q179 0 279 -152.5t100 -418.5t-100 -419.5t-279 -153.5q-181 0 -281 153t-100 420t100 419t281 152zM483 1001q-120 0 -183.5 -117.5t-63.5 -330.5q0 -214 63.5 -332.5t183.5 -118.5q118 0 182 119.5t64 331.5q0 211 -64 329.5t-182 118.5z" />
    <glyph glyph-name="one.smcp" horiz-adv-x="604" 
d="M342 1104h104v-1104h-133v858h-239v113q137 0 193 27.5t75 105.5z" />
    <glyph glyph-name="two.smcp" horiz-adv-x="851" 
d="M432 1124q151 0 233.5 -80.5t82.5 -222.5q0 -155 -138 -321l-305 -375h463v-125h-645v96l373 455q66 79 91 137t25 127q0 186 -182 186q-87 0 -138 -55t-50 -158h-133q-1 153 87.5 244.5t235.5 91.5z" />
    <glyph glyph-name="three.smcp" horiz-adv-x="925" 
d="M772 817q0 -93 -47 -157t-119 -89q89 -21 147 -94t58 -178q0 -143 -98 -231t-254 -88q-166 0 -261.5 88t-95.5 245h131q0 -103 62 -157t168 -54q97 0 155 54t58 145q0 102 -75 156.5t-212 54.5h-31v117h29q129 0 189.5 44t60.5 138q0 89 -47.5 139.5t-136.5 50.5
q-87 0 -139 -53t-52 -153h-133q0 152 88 240.5t236 88.5q146 0 232.5 -85.5t86.5 -221.5z" />
    <glyph glyph-name="four.smcp" horiz-adv-x="929" 
d="M543 1104h145v-752h164v-123h-164v-229h-131v229h-479v107zM559 350v559l-39 -69l-301 -490h340z" />
    <glyph glyph-name="five.smcp" horiz-adv-x="927" 
d="M170 1104h606v-125h-475v-338q76 43 195 43q156 0 249 -91.5t93 -246.5q0 -156 -97 -264q-95 -102 -260 -102q-161 0 -252.5 83t-91.5 236h131q0 -96 56.5 -146.5t156.5 -50.5q103 0 162 65.5t59 172.5q0 104 -59 165.5t-162 61.5q-124 0 -194 -49h-117v586z" />
    <glyph glyph-name="six.smcp" horiz-adv-x="948" 
d="M502 1124q136 0 225 -82.5t96 -216.5h-133q-18 176 -190 176q-126 0 -188.5 -110.5t-63.5 -345.5q32 56 105.5 92.5t154.5 36.5q156 0 248 -94.5t92 -245.5q0 -153 -98 -254q-93 -100 -256 -100q-165 0 -267 108q-112 121 -112 434q0 602 387 602zM492 559
q-93 0 -161 -63t-69 -154v-8q0 -94 64 -164t166 -70q98 0 160.5 66.5t62.5 167.5q0 94 -63 159.5t-160 65.5z" />
    <glyph glyph-name="seven.smcp" horiz-adv-x="847" 
d="M92 1104h678v-109l-471 -995h-143l462 979h-526v125z" />
    <glyph glyph-name="eight.smcp" horiz-adv-x="948" 
d="M797 815q0 -88 -42.5 -154.5t-101.5 -91.5q183 -83 183 -268q0 -139 -105 -231q-104 -90 -256 -90q-151 0 -258 90q-104 91 -104 231q0 96 51 168.5t129 99.5q-59 27 -100 92.5t-41 153.5q0 135 89 222t234 87t233.5 -87t88.5 -222zM475 510q-96 0 -161.5 -57t-65.5 -148
q0 -90 65.5 -146.5t161.5 -56.5t161.5 56.5t65.5 146.5t-66 147.5t-161 57.5zM475 1001q-86 0 -139 -52t-53 -138q0 -82 53 -133t139 -51q85 0 138 51t53 133q0 86 -53 138t-138 52z" />
    <glyph glyph-name="nine.smcp" horiz-adv-x="948" 
d="M451 -20q-136 0 -225.5 82.5t-96.5 216.5h133q18 -177 191 -177q126 0 188.5 110t63.5 345q-36 -55 -109 -91t-152 -36q-156 0 -248 94.5t-92 245.5q0 149 97 254q97 100 258 100q164 0 266 -108q113 -122 113 -434q0 -602 -387 -602zM461 545q94 0 161.5 66t67.5 159
q0 91 -65 162q-66 72 -164 72t-160.5 -66.5t-62.5 -167.5q0 -94 63 -159.5t160 -65.5z" />
    <glyph glyph-name="ampersand.smcp" horiz-adv-x="1085" 
d="M471 1124q124 0 200.5 -68t76.5 -184q0 -112 -76 -182q-37 -35 -68 -55l-86 -53l-4 -2l258 -277q5 20 16 90q9 87 -16 172l123 15q27 -95 18 -199q-9 -90 -49 -174l195 -207h-162l-102 109q-123 -129 -324 -129q-175 0 -280 82t-105 223q0 98 55 167.5t168 137.5l23 12
l-27 29q-117 126 -117 243q0 110 77 180t206 70zM473 86q159 0 244 104l-307 328l-11 -6q-98 -61 -138 -107.5t-40 -115.5q0 -98 66.5 -150.5t185.5 -52.5zM319 872q-3 -77 91 -182l24 -26l8 4q4 3 26 15t26 15q37 23 65 47q55 49 55 123q0 69 -37 109.5t-104 40.5t-110 -40
t-44 -106z" />
    <glyph glyph-name="exclamdown.smcp" horiz-adv-x="450" 
d="M289 -4h-127v788h127v-788zM223 930q-41 0 -68.5 27.5t-27.5 66.5t27.5 65.5t68.5 26.5q43 0 71 -25.5t28 -66.5t-28 -67.5t-71 -26.5z" />
    <glyph glyph-name="questiondown.smcp" horiz-adv-x="729" 
d="M360 -18q-138 0 -228.5 82t-90.5 219q0 88 39 161.5t94 112.5q133 99 133 180v60h127v-62q0 -64 -39.5 -120.5t-97.5 -96.5q-56 -40 -95.5 -101t-39.5 -130q0 -92 54.5 -144.5t143.5 -52.5q97 0 152 54t55 153h119q0 -147 -90.5 -231t-235.5 -84zM274 1036q0 38 28 65
t69 27t69.5 -27t28.5 -65q0 -39 -28.5 -66.5t-69.5 -27.5q-42 0 -69.5 26.5t-27.5 67.5z" />
    <glyph glyph-name="F.smcp_I.smcp" horiz-adv-x="1292" 
d="M160 1104h610v-125h-477v-365h403v-122h-403v-492h-133v1104zM999 1104h134v-1104h-134v1104z" />
    <glyph glyph-name="F.smcp_J.smcp" horiz-adv-x="1585" 
d="M1307 1104h133v-789q0 -158 -83 -244.5t-231 -86.5q-320 0 -335 346h131q12 -221 202 -221q88 0 135.5 54t47.5 156v785zM160 1104h610v-125h-477v-365h403v-122h-403v-492h-133v1104z" />
    <glyph glyph-name="Iogonek.smcp" horiz-adv-x="450" 
d="M160 1104h133v-1104h-47q-123 -62 -123 -172q0 -60 31.5 -92.5t87.5 -32.5q50 0 88 18l28 -92q-44 -24 -120 -24q-96 0 -157 60t-61 161q0 138 140 219v1059z" />
    <glyph glyph-name="Oslashacute.smcp" horiz-adv-x="1349" 
d="M676 1124q125 0 237 -47l74 129l100 -51l-77 -131q111 -78 172 -201t61 -270q0 -245 -160 -410q-156 -163 -407 -163q-130 0 -242 47l-76 -133l-98 51l78 135q-111 75 -172.5 199.5t-61.5 273.5q0 244 158 410q157 161 414 161zM676 1001q-195 0 -316 -127
q-120 -126 -120 -321q0 -236 161 -360l449 776q-79 32 -174 32zM1106 553q0 225 -160 358l-448 -776q82 -33 178 -33q188 0 309 127q121 130 121 324zM850 1546h166l-281 -323h-135z" />
    <glyph glyph-name="Rcommaaccent.smcp" horiz-adv-x="921" 
d="M160 1104h303q170 0 270.5 -90t100.5 -242q0 -105 -58.5 -183.5t-161.5 -113.5l269 -475h-152l-254 453h-184v-453h-133v1104zM463 979h-170v-406h170q109 0 173 53t64 146q0 96 -64 151.5t-173 55.5zM614 -184q0 -81 -38.5 -168.5t-100.5 -151.5l-43 23q60 94 72 202
q-43 5 -70.5 33t-27.5 70q0 44 30 74t74 30q45 0 74.5 -31.5t29.5 -80.5z" />
    <glyph glyph-name="Aacute.smcp" horiz-adv-x="1140" 
d="M504 1104h133l465 -1104h-146l-129 303h-514l-127 -303h-145zM592 870l-23 62l-20 -62l-193 -448h428zM741 1561h166l-280 -324h-135z" />
    <glyph glyph-name="Abreve.smcp" horiz-adv-x="1140" 
d="M737 1505h115q0 -118 -78 -195t-199 -77q-124 0 -201 76.5t-77 195.5h115q0 -75 44.5 -122.5t118.5 -47.5q71 0 116.5 48.5t45.5 121.5zM504 1104h133l465 -1104h-146l-129 303h-514l-127 -303h-145zM592 870l-23 62l-20 -62l-193 -448h428z" />
    <glyph glyph-name="Acircumflex.smcp" horiz-adv-x="1140" 
d="M504 1104h133l465 -1104h-146l-129 303h-514l-127 -303h-145zM592 870l-23 62l-20 -62l-193 -448h428zM537 1561h71l275 -324h-150l-160 203l-161 -203h-150z" />
    <glyph glyph-name="Adieresis.smcp" horiz-adv-x="1140" 
d="M504 1104h133l465 -1104h-146l-129 303h-514l-127 -303h-145zM592 870l-23 62l-20 -62l-193 -448h428zM324 1419q29 29 68 29t65 -29q26 -26 26 -65.5t-26 -65.5t-65 -26t-68 26q-26 26 -26 65.5t26 65.5zM688 1419q29 29 68 29t65 -29q26 -26 26 -65.5t-26 -65.5
t-65 -26t-68 26q-26 26 -26 65.5t26 65.5z" />
    <glyph glyph-name="Agrave.smcp" horiz-adv-x="1140" 
d="M504 1104h133l465 -1104h-146l-129 303h-514l-127 -303h-145zM592 870l-23 62l-20 -62l-193 -448h428zM229 1561h166l250 -324h-135z" />
    <glyph glyph-name="Amacron.smcp" horiz-adv-x="1140" 
d="M504 1104h133l465 -1104h-146l-129 303h-514l-127 -303h-145zM592 870l-23 62l-20 -62l-193 -448h428zM315 1403h519v-113h-519v113z" />
    <glyph glyph-name="Aring.smcp" horiz-adv-x="1140" 
d="M504 1104h133l465 -1104h-146l-129 303h-514l-127 -303h-145zM592 870l-23 62l-20 -62l-193 -448h428zM782 1405q0 -87 -58.5 -144t-150.5 -57t-150 57t-58 144q0 91 58 149t150 58t150.5 -58t58.5 -149zM461 1407q0 -45 33 -79t79 -34q48 0 80.5 34t32.5 79q0 49 -32 81
t-81 32t-80.5 -32.5t-31.5 -80.5z" />
    <glyph glyph-name="Atilde.smcp" horiz-adv-x="1140" 
d="M504 1104h133l465 -1104h-146l-129 303h-514l-127 -303h-145zM592 870l-23 62l-20 -62l-193 -448h428zM451 1491q44 0 77.5 -16.5t54 -39.5t38 -46t39 -39.5t47.5 -16.5q94 0 94 140h98q0 -113 -51.5 -179.5t-147.5 -66.5q-45 0 -79 16.5t-54.5 39.5t-38 46.5t-39 40
t-47.5 16.5q-94 0 -94 -141h-98q0 115 51.5 180.5t149.5 65.5z" />
    <glyph glyph-name="Cacute.smcp" horiz-adv-x="1208" 
d="M649 1124q189 0 315.5 -90t176.5 -254h-148q-80 221 -344 221q-185 0 -303 -127q-115 -127 -115 -321t115 -324q118 -127 303 -127q267 0 350 226h144q-102 -348 -494 -348q-248 0 -399 161q-154 165 -154 412q0 245 154 410q151 161 399 161zM811 1561h166l-281 -324
h-135z" />
    <glyph glyph-name="Ccaron.smcp" horiz-adv-x="1208" 
d="M649 1124q189 0 315.5 -90t176.5 -254h-148q-80 221 -344 221q-185 0 -303 -127q-115 -127 -115 -321t115 -324q118 -127 303 -127q267 0 350 226h144q-102 -348 -494 -348q-248 0 -399 161q-154 165 -154 412q0 245 154 410q151 161 399 161zM803 1536h149l-274 -324
h-72l-274 324h149l162 -203z" />
    <glyph glyph-name="Ccircumflex.smcp" horiz-adv-x="1208" 
d="M649 1124q189 0 315.5 -90t176.5 -254h-148q-80 221 -344 221q-185 0 -303 -127q-115 -127 -115 -321t115 -324q118 -127 303 -127q267 0 350 226h144q-102 -348 -494 -348q-248 0 -399 161q-154 165 -154 412q0 245 154 410q151 161 399 161zM606 1561h72l274 -324h-149
l-160 203l-162 -203h-149z" />
    <glyph glyph-name="Cdotaccent.smcp" horiz-adv-x="1208" 
d="M649 1124q189 0 315.5 -90t176.5 -254h-148q-80 221 -344 221q-185 0 -303 -127q-115 -127 -115 -321t115 -324q118 -127 303 -127q267 0 350 226h144q-102 -348 -494 -348q-248 0 -399 161q-154 165 -154 412q0 245 154 410q151 161 399 161zM571 1442q31 31 72 31
t70 -31q31 -29 31 -69.5t-31 -69.5q-29 -29 -70 -29t-72 29q-29 29 -29 69.5t29 69.5z" />
    <glyph glyph-name="Eacute.smcp" horiz-adv-x="888" 
d="M160 1104h624v-125h-491v-348h434v-125h-434v-381h491v-125h-624v1104zM662 1561h165l-280 -324h-135z" />
    <glyph glyph-name="Ebreve.smcp" horiz-adv-x="888" 
d="M160 1104h624v-125h-491v-348h434v-125h-434v-381h491v-125h-624v1104zM641 1505h115q0 -118 -77.5 -195t-199.5 -77q-124 0 -201 76.5t-77 195.5h114q0 -75 45 -122.5t119 -47.5q71 0 116.5 48.5t45.5 121.5z" />
    <glyph glyph-name="Ecaron.smcp" horiz-adv-x="888" 
d="M637 1536h149l-274 -324h-72l-274 324h149l162 -203zM160 1104h624v-125h-491v-348h434v-125h-434v-381h491v-125h-624v1104z" />
    <glyph glyph-name="Ecircumflex.smcp" horiz-adv-x="888" 
d="M446 1561h72l275 -324h-150l-160 203l-161 -203h-150zM160 1104h624v-125h-491v-348h434v-125h-434v-381h491v-125h-624v1104z" />
    <glyph glyph-name="Edieresis.smcp" horiz-adv-x="888" 
d="M160 1104h624v-125h-491v-348h434v-125h-434v-381h491v-125h-624v1104zM231 1419q29 29 68.5 29t65.5 -29q26 -26 26 -65.5t-26 -65.5t-65.5 -26t-68.5 26q-26 26 -26 65.5t26 65.5zM596 1419q29 29 68 29t65 -29q26 -26 26 -65.5t-26 -65.5t-65 -26t-68 26
q-26 26 -26 65.5t26 65.5z" />
    <glyph glyph-name="Edotaccent.smcp" horiz-adv-x="888" 
d="M160 1104h624v-125h-491v-348h434v-125h-434v-381h491v-125h-624v1104zM414 1442q31 31 71.5 31t69.5 -31q31 -29 31 -69.5t-31 -69.5q-29 -29 -69.5 -29t-71.5 29q-29 29 -29 69.5t29 69.5z" />
    <glyph glyph-name="Egrave.smcp" horiz-adv-x="888" 
d="M160 1104h624v-125h-491v-348h434v-125h-434v-381h491v-125h-624v1104zM152 1561h165l250 -324h-135z" />
    <glyph glyph-name="Emacron.smcp" horiz-adv-x="888" 
d="M160 1104h624v-125h-491v-348h434v-125h-434v-381h491v-125h-624v1104zM219 1403h518v-113h-518v113z" />
    <glyph glyph-name="Gbreve.smcp" horiz-adv-x="1253" 
d="M655 1124q192 0 320 -90t178 -254h-147q-83 221 -353 221q-184 0 -305 -127q-117 -126 -117 -321q0 -196 119 -324q121 -127 307 -127q174 0 273 85.5t100 248.5h-352v125h491v-72q0 -239 -135.5 -374t-376.5 -135q-251 0 -405 161q-156 163 -156 412q0 245 156 408
t403 163zM813 1505h115q0 -118 -77.5 -195t-199.5 -77q-124 0 -201 76.5t-77 195.5h114q0 -75 45 -122.5t119 -47.5q71 0 116.5 48.5t45.5 121.5z" />
    <glyph glyph-name="Gcircumflex.smcp" horiz-adv-x="1253" 
d="M655 1124q192 0 320 -90t178 -254h-147q-83 221 -353 221q-184 0 -305 -127q-117 -126 -117 -321q0 -196 119 -324q121 -127 307 -127q174 0 273 85.5t100 248.5h-352v125h491v-72q0 -239 -135.5 -374t-376.5 -135q-251 0 -405 161q-156 163 -156 412q0 245 156 408
t403 163zM614 1561h72l275 -324h-150l-160 203l-162 -203h-149z" />
    <glyph glyph-name="Gdotaccent.smcp" horiz-adv-x="1253" 
d="M655 1124q192 0 320 -90t178 -254h-147q-83 221 -353 221q-184 0 -305 -127q-117 -126 -117 -321q0 -196 119 -324q121 -127 307 -127q174 0 273 85.5t100 248.5h-352v125h491v-72q0 -239 -135.5 -374t-376.5 -135q-251 0 -405 161q-156 163 -156 412q0 245 156 408
t403 163zM578 1442q31 31 71.5 31t69.5 -31q31 -29 31 -69.5t-31 -69.5q-29 -29 -69.5 -29t-71.5 29q-29 29 -29 69.5t29 69.5z" />
    <glyph glyph-name="Hcircumflex.smcp" horiz-adv-x="1216" 
d="M571 1561h72l275 -324h-150l-160 203l-162 -203h-149zM924 1104h133v-1104h-133v508h-631v-508h-133v1104h133v-471h631v471z" />
    <glyph glyph-name="Iacute.smcp" horiz-adv-x="450" 
d="M397 1559h166l-280 -324h-136zM160 1104h133v-1104h-133v1104z" />
    <glyph glyph-name="Ibreve.smcp" horiz-adv-x="450" 
d="M395 1503h115q0 -119 -77.5 -195.5t-199.5 -76.5q-124 0 -201 76.5t-77 195.5h115q0 -75 44.5 -122.5t118.5 -47.5q71 0 116.5 48.5t45.5 121.5zM160 1104h133v-1104h-133v1104z" />
    <glyph glyph-name="Idotaccent.smcp" horiz-adv-x="450" 
d="M158 1440q31 31 71.5 31t69.5 -31q31 -29 31 -70t-31 -70q-29 -29 -69.5 -29t-71.5 29q-29 29 -29 70t29 70zM160 1104h133v-1104h-133v1104z" />
    <glyph glyph-name="Icircumflex.smcp" horiz-adv-x="450" 
d="M195 1559h71l275 -324h-150l-160 203l-161 -203h-150zM160 1104h133v-1104h-133v1104z" />
    <glyph glyph-name="Idieresis.smcp" horiz-adv-x="450" 
d="M-18 1417q29 29 68 29t65 -29q26 -26 26 -65.5t-26 -65.5t-65.5 -26t-65.5 26q-29 26 -29 65t27 66zM346 1417q29 29 68 29t65 -29q26 -26 26 -65.5t-26 -65.5t-65 -26t-68 26q-26 26 -26 65.5t26 65.5zM160 1104h133v-1104h-133v1104z" />
    <glyph glyph-name="Igrave.smcp" horiz-adv-x="450" 
d="M-111 1559h166l250 -324h-135zM160 1104h133v-1104h-133v1104z" />
    <glyph glyph-name="Imacron.smcp" horiz-adv-x="450" 
d="M-27 1401h519v-113h-519v113zM160 1104h133v-1104h-133v1104z" />
    <glyph glyph-name="Itilde.smcp" horiz-adv-x="450" 
d="M109 1489q44 0 77.5 -16.5t54 -39.5t38 -46t39 -39.5t47.5 -16.5q94 0 94 139h98q0 -113 -51.5 -179t-147.5 -66q-45 0 -79 16.5t-54.5 39.5t-38 46.5t-39 40t-47.5 16.5q-94 0 -94 -141h-98q0 115 51.5 180.5t149.5 65.5zM160 1104h133v-1104h-133v1104z" />
    <glyph glyph-name="Jcircumflex.smcp" horiz-adv-x="849" 
d="M606 1559h72l274 -324h-149l-160 203l-162 -203h-149zM573 1104h134v-789q0 -158 -83 -244.5t-231 -86.5q-321 0 -336 346h131q12 -221 203 -221q88 0 135 54t47 156v785z" />
    <glyph glyph-name="Lacute.smcp" horiz-adv-x="856" 
d="M395 1561h166l-280 -324h-136zM158 1104h133v-979h518v-125h-651v1104z" />
    <glyph glyph-name="Nacute.smcp" horiz-adv-x="1216" 
d="M924 1104h133v-1104h-127l-592 811l-45 68v-879h-133v1104h129l590 -807l45 -72v879zM791 1559h165l-280 -324h-135z" />
    <glyph glyph-name="Ncaron.smcp" horiz-adv-x="1216" 
d="M924 1104h133v-1104h-127l-592 811l-45 68v-879h-133v1104h129l590 -807l45 -72v879zM782 1534h150l-275 -324h-71l-275 324h150l162 -203z" />
    <glyph glyph-name="Ncommaaccent.smcp" horiz-adv-x="1216" 
d="M924 1104h133v-1104h-127l-592 811l-45 68v-879h-133v1104h129l590 -807l45 -72v879zM713 -184q0 -81 -39 -168.5t-101 -151.5l-43 23q60 94 72 202q-43 5 -70.5 33t-27.5 70q0 44 30 74t74 30q45 0 75 -31.5t30 -80.5z" />
    <glyph glyph-name="Ntilde.smcp" horiz-adv-x="1216" 
d="M924 1104h133v-1104h-127l-592 811l-45 68v-879h-133v1104h129l590 -807l45 -72v879zM500 1489q44 0 77.5 -16.5t54 -39.5t38 -46t39 -39.5t47.5 -16.5q94 0 94 139h98q0 -113 -51 -179t-147 -66q-45 0 -79 16.5t-54.5 39.5t-38 46.5t-39 40t-47.5 16.5q-95 0 -95 -141
h-98q0 115 51.5 180.5t149.5 65.5z" />
    <glyph glyph-name="Oacute.smcp" horiz-adv-x="1349" 
d="M676 1124q251 0 407 -163q160 -165 160 -408q0 -245 -160 -410q-156 -163 -407 -163q-257 0 -414 161q-158 166 -158 412q0 244 158 410q157 161 414 161zM676 1001q-195 0 -316 -127q-120 -126 -120 -321t120 -324q121 -127 316 -127q188 0 309 127q121 130 121 324
t-121 321t-309 127zM846 1561h166l-281 -324h-135z" />
    <glyph glyph-name="Obreve.smcp" horiz-adv-x="1349" 
d="M840 1505h114q0 -118 -77.5 -195t-198.5 -77q-124 0 -201.5 76.5t-77.5 195.5h115q0 -75 45 -122.5t119 -47.5q71 0 116.5 48.5t45.5 121.5zM676 1124q251 0 407 -163q160 -165 160 -408q0 -245 -160 -410q-156 -163 -407 -163q-257 0 -414 161q-158 166 -158 412
q0 244 158 410q157 161 414 161zM676 1001q-195 0 -316 -127q-120 -126 -120 -321t120 -324q121 -127 316 -127q188 0 309 127q121 130 121 324t-121 321t-309 127z" />
    <glyph glyph-name="Ocircumflex.smcp" horiz-adv-x="1349" 
d="M641 1561h72l274 -324h-149l-160 203l-162 -203h-149zM676 1124q251 0 407 -163q160 -165 160 -408q0 -245 -160 -410q-156 -163 -407 -163q-257 0 -414 161q-158 166 -158 412q0 244 158 410q157 161 414 161zM676 1001q-195 0 -316 -127q-120 -126 -120 -321t120 -324
q121 -127 316 -127q188 0 309 127q121 130 121 324t-121 321t-309 127z" />
    <glyph glyph-name="Odieresis.smcp" horiz-adv-x="1349" 
d="M676 1124q251 0 407 -163q160 -165 160 -408q0 -245 -160 -410q-156 -163 -407 -163q-257 0 -414 161q-158 166 -158 412q0 244 158 410q157 161 414 161zM676 1001q-195 0 -316 -127q-120 -126 -120 -321t120 -324q121 -127 316 -127q188 0 309 127q121 130 121 324
t-121 321t-309 127zM428 1419q29 29 68 29t65 -29q26 -26 26 -65.5t-26 -65.5t-65 -26t-68 26q-26 26 -26 65.5t26 65.5zM793 1419q29 29 68 29t65 -29q26 -26 26 -65.5t-26 -65.5t-65 -26t-68 26q-26 26 -26 65.5t26 65.5z" />
    <glyph glyph-name="Ograve.smcp" horiz-adv-x="1349" 
d="M676 1124q251 0 407 -163q160 -165 160 -408q0 -245 -160 -410q-156 -163 -407 -163q-257 0 -414 161q-158 166 -158 412q0 244 158 410q157 161 414 161zM676 1001q-195 0 -316 -127q-120 -126 -120 -321t120 -324q121 -127 316 -127q188 0 309 127q121 130 121 324
t-121 321t-309 127zM334 1561h166l250 -324h-136z" />
    <glyph glyph-name="Ohungarumlaut.smcp" horiz-adv-x="1349" 
d="M633 1561h143l-211 -324h-125zM950 1561h144l-211 -324h-125zM676 1124q251 0 407 -163q160 -165 160 -408q0 -245 -160 -410q-156 -163 -407 -163q-257 0 -414 161q-158 166 -158 412q0 244 158 410q157 161 414 161zM676 1001q-195 0 -316 -127q-120 -126 -120 -321
t120 -324q121 -127 316 -127q188 0 309 127q121 130 121 324t-121 321t-309 127z" />
    <glyph glyph-name="Omacron.smcp" horiz-adv-x="1349" 
d="M676 1124q251 0 407 -163q160 -165 160 -408q0 -245 -160 -410q-156 -163 -407 -163q-257 0 -414 161q-158 166 -158 412q0 244 158 410q157 161 414 161zM676 1001q-195 0 -316 -127q-120 -126 -120 -321t120 -324q121 -127 316 -127q188 0 309 127q121 130 121 324
t-121 321t-309 127zM420 1403h518v-113h-518v113z" />
    <glyph glyph-name="Otilde.smcp" horiz-adv-x="1349" 
d="M555 1491q44 0 77.5 -16.5t54 -39.5t38 -46t39 -39.5t47.5 -16.5q94 0 94 140h99q0 -113 -51.5 -179.5t-147.5 -66.5q-45 0 -79 16.5t-54.5 39.5t-38 46.5t-39 40t-47.5 16.5q-94 0 -94 -141h-99q0 115 51.5 180.5t149.5 65.5zM676 1124q251 0 407 -163
q160 -165 160 -408q0 -245 -160 -410q-156 -163 -407 -163q-257 0 -414 161q-158 166 -158 412q0 244 158 410q157 161 414 161zM676 1001q-195 0 -316 -127q-120 -126 -120 -321t120 -324q121 -127 316 -127q188 0 309 127q121 130 121 324t-121 321t-309 127z" />
    <glyph glyph-name="Racute.smcp" horiz-adv-x="921" 
d="M160 1104h303q170 0 270.5 -90t100.5 -242q0 -105 -58.5 -183.5t-161.5 -113.5l269 -475h-152l-254 453h-184v-453h-133v1104zM463 979h-170v-406h170q109 0 173 53t64 146q0 96 -64 151.5t-173 55.5zM627 1559h166l-281 -324h-135z" />
    <glyph glyph-name="Rcaron.smcp" horiz-adv-x="921" 
d="M160 1104h303q170 0 270.5 -90t100.5 -242q0 -105 -58.5 -183.5t-161.5 -113.5l269 -475h-152l-254 453h-184v-453h-133v1104zM463 979h-170v-406h170q109 0 173 53t64 146q0 96 -64 151.5t-173 55.5zM614 1534h150l-275 -324h-71l-275 324h150l162 -203z" />
    <glyph glyph-name="Sacute.smcp" horiz-adv-x="894" 
d="M449 1124q151 0 238.5 -80.5t88.5 -228.5h-133q-1 90 -54.5 140.5t-144.5 50.5q-88 0 -137 -46.5t-49 -130.5q0 -80 49 -120q47 -36 185 -88q174 -64 249 -136q74 -71 74 -188q0 -146 -96.5 -231.5t-253.5 -85.5q-175 0 -274 93.5t-101 250.5h133q1 -110 64.5 -169
t179.5 -59q101 0 157 52.5t56 140.5q0 71 -55.5 117t-192.5 94q-167 60 -237 129t-70 192q0 134 87 218.5t237 84.5zM625 1559h166l-281 -324h-135z" />
    <glyph glyph-name="Scaron.smcp" horiz-adv-x="894" 
d="M449 1124q151 0 238.5 -80.5t88.5 -228.5h-133q-1 90 -54.5 140.5t-144.5 50.5q-88 0 -137 -46.5t-49 -130.5q0 -80 49 -120q47 -36 185 -88q174 -64 249 -136q74 -71 74 -188q0 -146 -96.5 -231.5t-253.5 -85.5q-175 0 -274 93.5t-101 250.5h133q1 -110 64.5 -169
t179.5 -59q101 0 157 52.5t56 140.5q0 71 -55.5 117t-192.5 94q-167 60 -237 129t-70 192q0 134 87 218.5t237 84.5zM616 1534h150l-274 -324h-72l-275 324h150l162 -203z" />
    <glyph glyph-name="Scircumflex.smcp" horiz-adv-x="894" 
d="M449 1124q151 0 238.5 -80.5t88.5 -228.5h-133q-1 90 -54.5 140.5t-144.5 50.5q-88 0 -137 -46.5t-49 -130.5q0 -80 49 -120q47 -36 185 -88q174 -64 249 -136q74 -71 74 -188q0 -146 -96.5 -231.5t-253.5 -85.5q-175 0 -274 93.5t-101 250.5h133q1 -110 64.5 -169
t179.5 -59q101 0 157 52.5t56 140.5q0 71 -55.5 117t-192.5 94q-167 60 -237 129t-70 192q0 134 87 218.5t237 84.5zM420 1559h72l274 -324h-150l-159 203l-162 -203h-150z" />
    <glyph glyph-name="Tcaron.smcp" horiz-adv-x="999" 
d="M662 1534h149l-274 -324h-72l-275 324h150l162 -203zM18 1104h961v-125h-414v-979h-131v979h-416v125z" />
    <glyph glyph-name="Uacute.smcp" horiz-adv-x="1181" 
d="M905 1104h133v-670q0 -220 -117 -337t-329 -117q-215 0 -331 117t-116 337v670h134v-670q0 -332 313 -332t313 332v670zM762 1559h166l-281 -324h-135z" />
    <glyph glyph-name="Ubreve.smcp" horiz-adv-x="1181" 
d="M756 1503h114q0 -119 -77 -195.5t-199 -76.5q-124 0 -201.5 76.5t-77.5 195.5h115q0 -75 45 -122.5t119 -47.5q71 0 116.5 48.5t45.5 121.5zM905 1104h133v-670q0 -220 -117 -337t-329 -117q-215 0 -331 117t-116 337v670h134v-670q0 -332 313 -332t313 332v670z" />
    <glyph glyph-name="Ucircumflex.smcp" horiz-adv-x="1181" 
d="M557 1559h72l274 -324h-149l-160 203l-162 -203h-149zM905 1104h133v-670q0 -220 -117 -337t-329 -117q-215 0 -331 117t-116 337v670h134v-670q0 -332 313 -332t313 332v670z" />
    <glyph glyph-name="Udieresis.smcp" horiz-adv-x="1181" 
d="M905 1104h133v-670q0 -220 -117 -337t-329 -117q-215 0 -331 117t-116 337v670h134v-670q0 -332 313 -332t313 332v670zM344 1417q29 29 68 29t65 -29q26 -26 26 -65.5t-26 -65.5t-65 -26t-68 26q-26 26 -26 65.5t26 65.5zM709 1417q29 29 68 29t65 -29q26 -26 26 -65.5
t-26 -65.5t-65 -26t-68 26q-26 26 -26 65.5t26 65.5z" />
    <glyph glyph-name="Ugrave.smcp" horiz-adv-x="1181" 
d="M905 1104h133v-670q0 -220 -117 -337t-329 -117q-215 0 -331 117t-116 337v670h134v-670q0 -332 313 -332t313 332v670zM250 1559h166l250 -324h-136z" />
    <glyph glyph-name="Uhungarumlaut.smcp" horiz-adv-x="1181" 
d="M549 1559h143l-211 -324h-125zM866 1559h144l-211 -324h-125zM905 1104h133v-670q0 -220 -117 -337t-329 -117q-215 0 -331 117t-116 337v670h134v-670q0 -332 313 -332t313 332v670z" />
    <glyph glyph-name="Umacron.smcp" horiz-adv-x="1181" 
d="M905 1104h133v-670q0 -220 -117 -337t-329 -117q-215 0 -331 117t-116 337v670h134v-670q0 -332 313 -332t313 332v670zM334 1401h518v-113h-518v113z" />
    <glyph glyph-name="Uring.smcp" horiz-adv-x="1181" 
d="M801 1403q0 -87 -58.5 -144t-150.5 -57t-150.5 57t-58.5 144q0 91 58.5 149t150.5 58t150.5 -58t58.5 -149zM479 1405q0 -45 33 -79t80 -34q48 0 80.5 34t32.5 79q0 49 -31.5 81t-81.5 32q-49 0 -81 -32.5t-32 -80.5zM905 1104h133v-670q0 -220 -117 -337t-329 -117
q-215 0 -331 117t-116 337v670h134v-670q0 -332 313 -332t313 332v670z" />
    <glyph glyph-name="Utilde.smcp" horiz-adv-x="1181" 
d="M469 1489q44 0 77.5 -16.5t54 -39.5t38 -46t39 -39.5t47.5 -16.5q94 0 94 139h99q0 -113 -51.5 -179t-147.5 -66q-45 0 -79 16.5t-54.5 39.5t-38 46.5t-39 40t-47.5 16.5q-94 0 -94 -141h-99q0 115 51.5 180.5t149.5 65.5zM905 1104h133v-670q0 -220 -117 -337t-329 -117
q-215 0 -331 117t-116 337v670h134v-670q0 -332 313 -332t313 332v670z" />
    <glyph glyph-name="Wacute.smcp" horiz-adv-x="1634" 
d="M1452 1104h139l-368 -1104h-127l-260 786l-19 74l-18 -74l-260 -786h-125l-371 1104h139l279 -817l18 -80l19 80l266 817h108l267 -817l16 -80l23 80zM985 1561h166l-281 -324h-135z" />
    <glyph glyph-name="Wcircumflex.smcp" horiz-adv-x="1634" 
d="M1452 1104h139l-368 -1104h-127l-260 786l-19 74l-18 -74l-260 -786h-125l-371 1104h139l279 -817l18 -80l19 80l266 817h108l267 -817l16 -80l23 80zM780 1561h72l274 -324h-149l-160 203l-162 -203h-149z" />
    <glyph glyph-name="Wdieresis.smcp" horiz-adv-x="1634" 
d="M1452 1104h139l-368 -1104h-127l-260 786l-19 74l-18 -74l-260 -786h-125l-371 1104h139l279 -817l18 -80l19 80l266 817h108l267 -817l16 -80l23 80zM567 1419q29 29 68 29t65 -29q26 -26 26 -65.5t-26 -65.5t-65 -26t-68 26q-26 26 -26 65.5t26 65.5zM932 1419
q29 29 68 29t65 -29q26 -26 26 -65.5t-26 -65.5t-65 -26t-68 26q-26 26 -26 65.5t26 65.5z" />
    <glyph glyph-name="Wgrave.smcp" horiz-adv-x="1634" 
d="M1452 1104h139l-368 -1104h-127l-260 786l-19 74l-18 -74l-260 -786h-125l-371 1104h139l279 -817l18 -80l19 80l266 817h108l267 -817l16 -80l23 80zM473 1561h166l250 -324h-135z" />
    <glyph glyph-name="Yacute.smcp" horiz-adv-x="1118" 
d="M928 1104h153l-456 -684v-420h-133v420l-457 684h153l326 -483l45 -74l45 74zM723 1561h166l-281 -324h-135z" />
    <glyph glyph-name="Ycircumflex.smcp" horiz-adv-x="1118" 
d="M928 1104h153l-456 -684v-420h-133v420l-457 684h153l326 -483l45 -74l45 74zM520 1561h72l274 -324h-149l-160 203l-162 -203h-149z" />
    <glyph glyph-name="Ydieresis.smcp" horiz-adv-x="1118" 
d="M928 1104h153l-456 -684v-420h-133v420l-457 684h153l326 -483l45 -74l45 74zM305 1419q29 29 68 29t65 -29q26 -26 26 -65.5t-26 -65.5t-65 -26t-68 26q-26 26 -26 65.5t26 65.5zM670 1419q29 29 68 29t65 -29q26 -26 26 -65.5t-26 -65.5t-65 -26t-68 26
q-26 26 -26 65.5t26 65.5z" />
    <glyph glyph-name="Ygrave.smcp" horiz-adv-x="1118" 
d="M928 1104h153l-456 -684v-420h-133v420l-457 684h153l326 -483l45 -74l45 74zM213 1561h166l250 -324h-135z" />
    <glyph glyph-name="Zacute.smcp" horiz-adv-x="987" 
d="M78 1104h821v-107l-655 -872h674v-125h-846v106l657 873h-651v125zM680 1561h166l-281 -324h-135z" />
    <glyph glyph-name="Zcaron.smcp" horiz-adv-x="987" 
d="M672 1536h149l-274 -324h-72l-274 324h149l162 -203zM78 1104h821v-107l-655 -872h674v-125h-846v106l657 873h-651v125z" />
    <glyph glyph-name="Zdotaccent.smcp" horiz-adv-x="987" 
d="M78 1104h821v-107l-655 -872h674v-125h-846v106l657 873h-651v125zM440 1442q31 31 72 31t70 -31q31 -29 31 -69.5t-31 -69.5q-29 -29 -70 -29t-72 29q-29 29 -29 69.5t29 69.5z" />
    </font>
</defs>
</svg>
